<svg width="17" height="34" viewBox="0 0 17 34" fill="none" xmlns="http://www.w3.org/2000/svg">
<path d="M0 0H13C14.1046 0 15 0.895431 15 2C15 3.10457 14.1046 4 13 4H0V0Z" fill="#9EBBF2"/>
<path d="M0 5H11C12.1046 5 13 5.89543 13 7C13 8.10457 12.1046 9 11 9H0V5Z" fill="#9EBBF2"/>
<path d="M0 10H13C14.1046 10 15 10.8954 15 12C15 13.1046 14.1046 14 13 14H0V10Z" fill="#9EBBF2"/>
<path d="M0 15H15C16.1046 15 17 15.8954 17 17C17 18.1046 16.1046 19 15 19H0V15Z" fill="#9EBBF2"/>
<path d="M0 20H12C13.1046 20 14 20.8954 14 22C14 23.1046 13.1046 24 12 24H0V20Z" fill="#9EBBF2"/>
<path d="M0 25H14C15.1046 25 16 25.8954 16 27C16 28.1046 15.1046 29 14 29H0V25Z" fill="#9EBBF2"/>
<path d="M0 30H11C12.1046 30 13 30.8954 13 32C13 33.1046 12.1046 34 11 34H0V30Z" fill="#9EBBF2"/>
</svg>
