<svg width="86" height="78" viewBox="0 0 86 78" fill="none" xmlns="http://www.w3.org/2000/svg">
<path d="M0 16C0 7.16344 7.16344 0 16 0H70C78.8366 0 86 7.16344 86 16V62C86 70.8366 78.8366 78 70 78H16C7.16345 78 0 70.8366 0 62V16Z" fill="#4169E1"/>
<path d="M43 38C48.5 38 53 33.5 53 28C53 22.5 48.5 18 43 18C37.5 18 33 22.5 33 28C33 33.5 37.5 38 43 38Z" stroke="white" stroke-width="1.5" stroke-linecap="round" stroke-linejoin="round"/>
<path d="M40.17 30.83L45.83 25.17M45.83 30.83L40.17 25.17" stroke="white" stroke-width="1.5" stroke-linecap="round" stroke-linejoin="round"/>
<path d="M33.6056 51.1293H32.0544C31.9948 50.7978 31.8837 50.5062 31.7213 50.2543C31.5589 50.0024 31.3601 49.7886 31.1247 49.6129C30.8894 49.4373 30.6259 49.3047 30.3343 49.2152C30.0459 49.1257 29.7393 49.081 29.4145 49.081C28.8279 49.081 28.3025 49.2285 27.8385 49.5234C27.3778 49.8184 27.0132 50.2509 26.7448 50.821C26.4796 51.3911 26.347 52.0871 26.347 52.9091C26.347 53.7377 26.4796 54.437 26.7448 55.0071C27.0132 55.5772 27.3795 56.008 27.8435 56.2997C28.3075 56.5914 28.8295 56.7372 29.4095 56.7372C29.731 56.7372 30.036 56.6941 30.3243 56.608C30.616 56.5185 30.8795 56.3875 31.1148 56.2152C31.3501 56.0429 31.549 55.8324 31.7114 55.5838C31.8771 55.3319 31.9914 55.0436 32.0544 54.7188L33.6056 54.7237C33.5227 55.2242 33.362 55.6849 33.1233 56.1058C32.888 56.5234 32.5847 56.8847 32.2135 57.1896C31.8456 57.4912 31.4247 57.7249 30.9507 57.8906C30.4768 58.0563 29.9597 58.1392 29.3996 58.1392C28.518 58.1392 27.7325 57.9304 27.0431 57.5128C26.3537 57.0919 25.8101 56.4903 25.4124 55.7081C25.018 54.9259 24.8208 53.9929 24.8208 52.9091C24.8208 51.822 25.0196 50.889 25.4173 50.1101C25.8151 49.3279 26.3586 48.728 27.048 48.3104C27.7374 47.8894 28.5213 47.679 29.3996 47.679C29.9398 47.679 30.4436 47.7569 30.911 47.9126C31.3816 48.0651 31.8042 48.2905 32.1787 48.5888C32.5532 48.8838 32.8631 49.245 33.1084 49.6726C33.3537 50.0968 33.5194 50.5824 33.6056 51.1293ZM36.811 47.8182V58H35.3245V47.8182H36.811ZM42.0274 58.1541C41.3115 58.1541 40.6868 57.9901 40.1531 57.6619C39.6195 57.3338 39.2052 56.8748 38.9102 56.2848C38.6153 55.6948 38.4678 55.0054 38.4678 54.2166C38.4678 53.4245 38.6153 52.7318 38.9102 52.1385C39.2052 51.5452 39.6195 51.0845 40.1531 50.7564C40.6868 50.4283 41.3115 50.2642 42.0274 50.2642C42.7433 50.2642 43.3681 50.4283 43.9017 50.7564C44.4353 51.0845 44.8496 51.5452 45.1446 52.1385C45.4396 52.7318 45.5871 53.4245 45.5871 54.2166C45.5871 55.0054 45.4396 55.6948 45.1446 56.2848C44.8496 56.8748 44.4353 57.3338 43.9017 57.6619C43.3681 57.9901 42.7433 58.1541 42.0274 58.1541ZM42.0324 56.9062C42.4964 56.9062 42.8809 56.7836 43.1858 56.5384C43.4907 56.2931 43.7161 55.9666 43.8619 55.5589C44.0111 55.1513 44.0857 54.7022 44.0857 54.2116C44.0857 53.7244 44.0111 53.277 43.8619 52.8693C43.7161 52.4583 43.4907 52.1286 43.1858 51.88C42.8809 51.6314 42.4964 51.5071 42.0324 51.5071C41.5651 51.5071 41.1773 51.6314 40.8691 51.88C40.5641 52.1286 40.3371 52.4583 40.1879 52.8693C40.0421 53.277 39.9692 53.7244 39.9692 54.2116C39.9692 54.7022 40.0421 55.1513 40.1879 55.5589C40.3371 55.9666 40.5641 56.2931 40.8691 56.5384C41.1773 56.7836 41.5651 56.9062 42.0324 56.9062ZM52.9687 52.228L51.6214 52.4666C51.565 52.2943 51.4755 52.1302 51.3529 51.9744C51.2336 51.8187 51.0712 51.6911 50.8657 51.5916C50.6602 51.4922 50.4033 51.4425 50.0951 51.4425C49.6742 51.4425 49.3228 51.5369 49.0411 51.7259C48.7594 51.9115 48.6185 52.1518 48.6185 52.4467C48.6185 52.7019 48.713 52.9074 48.9019 53.0632C49.0908 53.219 49.3957 53.3466 49.8167 53.446L51.0297 53.7244C51.7324 53.8868 52.2561 54.1371 52.6008 54.4751C52.9455 54.8132 53.1178 55.2524 53.1178 55.7926C53.1178 56.25 52.9852 56.6577 52.7201 57.0156C52.4582 57.3703 52.092 57.6487 51.6214 57.8509C51.154 58.053 50.6121 58.1541 49.9956 58.1541C49.1405 58.1541 48.4429 57.9718 47.9026 57.6072C47.3624 57.2393 47.0309 56.7173 46.9083 56.0412L48.3451 55.8224C48.4346 56.197 48.6185 56.4804 48.8969 56.6726C49.1753 56.8615 49.5383 56.956 49.9857 56.956C50.4729 56.956 50.8624 56.8549 51.154 56.6527C51.4457 56.4472 51.5915 56.197 51.5915 55.902C51.5915 55.6634 51.502 55.4628 51.3231 55.3004C51.1474 55.138 50.8773 55.0154 50.5127 54.9325L49.2201 54.6491C48.5075 54.4867 47.9805 54.2282 47.6391 53.8736C47.301 53.5189 47.132 53.0698 47.132 52.5263C47.132 52.0755 47.258 51.6811 47.5099 51.343C47.7617 51.005 48.1098 50.7415 48.5539 50.5526C48.998 50.3603 49.5068 50.2642 50.0802 50.2642C50.9055 50.2642 51.5551 50.4432 52.029 50.8011C52.503 51.1558 52.8162 51.6314 52.9687 52.228ZM58.0434 58.1541C57.291 58.1541 56.6431 57.9934 56.0995 57.6719C55.5593 57.3471 55.1417 56.8913 54.8467 56.3047C54.555 55.7147 54.4092 55.0237 54.4092 54.2315C54.4092 53.4493 54.555 52.7599 54.8467 52.1634C55.1417 51.5668 55.5526 51.1011 56.0796 50.7663C56.6099 50.4316 57.2297 50.2642 57.939 50.2642C58.3699 50.2642 58.7875 50.3355 59.1919 50.478C59.5962 50.6205 59.9591 50.8442 60.2806 51.1491C60.6021 51.4541 60.8557 51.8501 61.0413 52.3374C61.2269 52.8213 61.3197 53.4096 61.3197 54.1023V54.6293H55.2494V53.5156H59.863C59.863 53.1245 59.7835 52.7782 59.6244 52.4766C59.4653 52.1716 59.2416 51.9313 58.9532 51.7557C58.6682 51.58 58.3334 51.4922 57.949 51.4922C57.5313 51.4922 57.1668 51.5949 56.8552 51.8004C56.547 52.0026 56.3083 52.2678 56.1393 52.5959C55.9736 52.9207 55.8907 53.2737 55.8907 53.6548V54.5249C55.8907 55.0353 55.9802 55.4695 56.1592 55.8274C56.3415 56.1854 56.595 56.4588 56.9198 56.6477C57.2446 56.8333 57.6241 56.9261 58.0583 56.9261C58.3401 56.9261 58.5969 56.8864 58.8289 56.8068C59.0609 56.724 59.2615 56.6013 59.4305 56.4389C59.5995 56.2765 59.7288 56.076 59.8183 55.8374L61.2252 56.0909C61.1125 56.5052 60.9104 56.8681 60.6187 57.1797C60.3303 57.4879 59.9674 57.7282 59.5299 57.9006C59.0957 58.0696 58.6002 58.1541 58.0434 58.1541Z" fill="white"/>
</svg>
