<svg width="21" height="20" viewBox="0 0 21 20" fill="none" xmlns="http://www.w3.org/2000/svg">
<g clip-path="url(#clip0_16172_172326)">
<path d="M10.4999 4.16667C11.8472 4.16667 13.0843 4.62794 14.0719 5.39505L17.1028 2.50341C15.3406 0.949961 13.0338 0 10.4999 0C6.66028 0 3.33051 2.1666 1.65479 5.34154L5.02515 8.00232C5.84159 5.76614 7.98118 4.16667 10.4999 4.16667Z" fill="#F44336"/>
<path d="M20.4134 11.2528C20.4655 10.8431 20.5 10.4252 20.5 10.0013C20.5 9.28643 20.4219 8.59032 20.2794 7.91797H10.5V12.0846H15.9052C15.4679 13.2211 14.6894 14.1828 13.6983 14.8508L17.0812 17.5215C18.8745 15.9475 20.1016 13.7433 20.4134 11.2528Z" fill="#2196F3"/>
<path d="M4.66667 9.9983C4.66667 9.29543 4.79738 8.62465 5.0252 8.00062L1.65484 5.33984C0.920278 6.73165 0.5 8.3151 0.5 9.9983C0.5 11.6627 0.912547 13.2286 1.63185 14.6091L5.00648 11.9449C4.79036 11.3353 4.66667 10.682 4.66667 9.9983Z" fill="#FFC107"/>
<path d="M10.5 15.832C7.96205 15.832 5.80868 14.2083 5.00647 11.9453L1.63184 14.6095C3.29937 17.8099 6.6415 19.9987 10.5 19.9987C13.0231 19.9987 15.324 19.0613 17.0812 17.5189L13.6983 14.8482C12.7843 15.4644 11.6903 15.832 10.5 15.832Z" fill="#00B060"/>
<path opacity="0.1" d="M10.4999 19.7934C7.55686 19.7934 4.91053 18.5791 3.03955 16.6445C4.87106 18.6999 7.53031 20.0018 10.4999 20.0018C13.4421 20.0018 16.0793 18.7256 17.9067 16.7024C16.0413 18.6056 13.415 19.7934 10.4999 19.7934Z" fill="#222222"/>
<path opacity="0.1" d="M10.5 11.875V12.0833H15.9052L15.9896 11.875H10.5Z" fill="#222222"/>
<path d="M20.4952 10.1219C20.4958 10.0809 20.4998 10.0405 20.4998 9.99938C20.4998 9.98773 20.498 9.97649 20.4979 9.96484C20.4974 10.0173 20.4947 10.0692 20.4952 10.1219Z" fill="#E6E6E6"/>
<path opacity="0.2" d="M10.5 7.91797V8.1263H20.3213C20.3082 8.05754 20.2939 7.98623 20.2794 7.91797H10.5Z" fill="white"/>
<path d="M20.2794 7.91667H10.5V12.0833H15.9052C15.0646 14.268 12.981 15.8333 10.5 15.8333C7.27836 15.8333 4.66667 13.2216 4.66667 10C4.66667 6.77831 7.27836 4.16667 10.5 4.16667C11.6682 4.16667 12.7449 4.52555 13.6571 5.11724C13.7967 5.20798 13.9408 5.29317 14.0719 5.39505L17.1029 2.50341L17.0345 2.45082C15.2808 0.930888 13.0029 0 10.5 0C4.97713 0 0.5 4.47713 0.5 10C0.5 15.5228 4.97713 20 10.5 20C15.5981 20 19.7962 16.1823 20.4134 11.2515C20.4655 10.8418 20.5 10.4239 20.5 10C20.5 9.28513 20.4219 8.58902 20.2794 7.91667Z" fill="url(#paint0_linear_16172_172326)"/>
<path opacity="0.1" d="M13.6569 4.9094C12.7448 4.31772 11.668 3.95883 10.4998 3.95883C7.2782 3.95883 4.6665 6.57048 4.6665 9.79217C4.6665 9.82731 4.66698 9.85478 4.66759 9.88982C4.72379 6.71676 7.31334 4.16717 10.4998 4.16717C11.668 4.16717 12.7448 4.52605 13.6569 5.11774C13.7965 5.20848 13.9406 5.29367 14.0718 5.39555L17.1027 2.50391L14.0718 5.18722C13.9406 5.08534 13.7965 5.00014 13.6569 4.9094Z" fill="#222222"/>
<path opacity="0.2" d="M10.5 0.208333C12.9792 0.208333 15.2358 1.12366 16.9827 2.618L17.1029 2.50341L17.0112 2.42356C15.2575 0.903633 13.0029 0 10.5 0C4.97713 0 0.5 4.47713 0.5 10C0.5 10.0351 0.504883 10.0691 0.505239 10.1042C0.561696 4.62987 5.01228 0.208333 10.5 0.208333Z" fill="white"/>
</g>
<defs>
<linearGradient id="paint0_linear_16172_172326" x1="0.5" y1="10" x2="20.5" y2="10" gradientUnits="userSpaceOnUse">
<stop stop-color="white" stop-opacity="0.2"/>
<stop offset="1" stop-color="white" stop-opacity="0"/>
</linearGradient>
<clipPath id="clip0_16172_172326">
<rect width="20" height="20" fill="white" transform="translate(0.5)"/>
</clipPath>
</defs>
</svg>
