<svg width="200" height="200" viewBox="0 0 200 200" fill="none" xmlns="http://www.w3.org/2000/svg">
<path d="M100 10C111.819 10 123.522 12.3279 134.442 16.8508C145.361 21.3738 155.282 28.0031 163.64 36.3604C171.997 44.7177 178.626 54.6392 183.149 65.5585C187.672 76.4778 190 88.181 190 100C190 111.819 187.672 123.522 183.149 134.442C178.626 145.361 171.997 155.282 163.64 163.64C155.282 171.997 145.361 178.626 134.441 183.149C123.522 187.672 111.819 190 100 190C88.181 190 76.4778 187.672 65.5585 183.149C54.6392 178.626 44.7176 171.997 36.3604 163.64C28.0031 155.282 21.3737 145.361 16.8508 134.441C12.3279 123.522 9.99999 111.819 10 100C10 88.181 12.3279 76.4777 16.8509 65.5584C21.3738 54.6391 28.0031 44.7176 36.3604 36.3604C44.7177 28.0031 54.6392 21.3737 65.5585 16.8508C76.4778 12.3279 88.1811 9.99999 100 10L100 10Z" stroke="#F6F6F5" stroke-width="20" stroke-linecap="round" stroke-linejoin="round"/>
<path d="M100 10C116.562 10 132.802 14.5698 146.933 23.2063C161.065 31.8429 172.539 44.2112 180.093 58.9497C187.647 73.6881 190.988 90.2252 189.747 106.74C188.507 123.255 182.734 139.108 173.063 152.553C163.393 165.998 150.2 176.513 134.937 182.942C119.674 189.371 102.933 191.464 86.5574 188.99C70.1817 186.517 54.806 179.573 42.1231 168.922C29.4403 158.272 19.9421 144.328 14.6742 128.627" stroke="#4169E1" stroke-width="16" stroke-linecap="round" stroke-linejoin="round"/>
<path d="M68.9279 76.2727V85H67.6112V76.2727H68.9279ZM70.7433 85V78.4545H71.9663V79.5199H72.0472C72.1836 79.1591 72.4066 78.8778 72.7163 78.6761C73.0259 78.4716 73.3967 78.3693 73.8285 78.3693C74.266 78.3693 74.6325 78.4716 74.9279 78.6761C75.2262 78.8807 75.4464 79.1619 75.5884 79.5199H75.6566C75.8129 79.1705 76.0614 78.892 76.4023 78.6847C76.7433 78.4744 77.1495 78.3693 77.6211 78.3693C78.2148 78.3693 78.6992 78.5554 79.0742 78.9276C79.4521 79.2997 79.641 79.8608 79.641 80.6108V85H78.3668V80.7301C78.3668 80.2869 78.2461 79.9659 78.0046 79.767C77.7631 79.5682 77.4748 79.4688 77.1396 79.4688C76.7248 79.4688 76.4023 79.5966 76.1722 79.8523C75.9421 80.1051 75.8271 80.4304 75.8271 80.8281V85H74.5572V80.6491C74.5572 80.294 74.4464 80.0085 74.2248 79.7926C74.0032 79.5767 73.7148 79.4688 73.3597 79.4688C73.1183 79.4688 72.8952 79.5327 72.6907 79.6605C72.489 79.7855 72.3256 79.9602 72.2006 80.1847C72.0785 80.4091 72.0174 80.669 72.0174 80.9645V85H70.7433ZM81.3487 87.4545V78.4545H82.593V79.5156H82.6996C82.7734 79.3793 82.88 79.2216 83.0192 79.0426C83.1584 78.8636 83.3516 78.7074 83.5987 78.5739C83.8459 78.4375 84.1726 78.3693 84.5788 78.3693C85.1072 78.3693 85.5788 78.5028 85.9936 78.7699C86.4084 79.0369 86.7337 79.4219 86.9695 79.9247C87.2081 80.4276 87.3274 81.0327 87.3274 81.7401C87.3274 82.4474 87.2095 83.054 86.9737 83.5597C86.7379 84.0625 86.4141 84.4503 86.0021 84.723C85.5902 84.9929 85.12 85.1278 84.5916 85.1278C84.1939 85.1278 83.8686 85.0611 83.6158 84.9276C83.3658 84.794 83.1697 84.6378 83.0277 84.4588C82.8857 84.2798 82.7763 84.1207 82.6996 83.9815H82.6229V87.4545H81.3487ZM82.5973 81.7273C82.5973 82.1875 82.6641 82.5909 82.7976 82.9375C82.9311 83.2841 83.1243 83.5554 83.3771 83.7514C83.63 83.9446 83.9396 84.0412 84.3061 84.0412C84.6868 84.0412 85.005 83.9403 85.2607 83.7386C85.5163 83.5341 85.7095 83.2571 85.8402 82.9077C85.9737 82.5582 86.0405 82.1648 86.0405 81.7273C86.0405 81.2955 85.9751 80.9077 85.8445 80.5639C85.7166 80.2202 85.5234 79.9489 85.2649 79.75C85.0092 79.5511 84.6896 79.4517 84.3061 79.4517C83.9368 79.4517 83.6243 79.5469 83.3686 79.7372C83.1158 79.9276 82.924 80.1932 82.7933 80.5341C82.6626 80.875 82.5973 81.2727 82.5973 81.7273ZM91.5121 85.1321C90.8984 85.1321 90.3629 84.9915 89.9055 84.7102C89.4482 84.429 89.093 84.0355 88.8402 83.5298C88.5874 83.0241 88.4609 82.4332 88.4609 81.7571C88.4609 81.0781 88.5874 80.4844 88.8402 79.9759C89.093 79.4673 89.4482 79.0724 89.9055 78.7912C90.3629 78.5099 90.8984 78.3693 91.5121 78.3693C92.1257 78.3693 92.6612 78.5099 93.1186 78.7912C93.576 79.0724 93.9311 79.4673 94.1839 79.9759C94.4368 80.4844 94.5632 81.0781 94.5632 81.7571C94.5632 82.4332 94.4368 83.0241 94.1839 83.5298C93.9311 84.0355 93.576 84.429 93.1186 84.7102C92.6612 84.9915 92.1257 85.1321 91.5121 85.1321ZM91.5163 84.0625C91.9141 84.0625 92.2436 83.9574 92.505 83.7472C92.7663 83.5369 92.9595 83.2571 93.0845 82.9077C93.2124 82.5582 93.2763 82.1733 93.2763 81.7528C93.2763 81.3352 93.2124 80.9517 93.0845 80.6023C92.9595 80.25 92.7663 79.9673 92.505 79.7543C92.2436 79.5412 91.9141 79.4347 91.5163 79.4347C91.1158 79.4347 90.7834 79.5412 90.5192 79.7543C90.2578 79.9673 90.0632 80.25 89.9354 80.6023C89.8104 80.9517 89.7479 81.3352 89.7479 81.7528C89.7479 82.1733 89.8104 82.5582 89.9354 82.9077C90.0632 83.2571 90.2578 83.5369 90.5192 83.7472C90.7834 83.9574 91.1158 84.0625 91.5163 84.0625ZM95.9854 85V78.4545H97.217V79.4943H97.2852C97.4045 79.142 97.6147 78.8651 97.9158 78.6634C98.2198 78.4588 98.5636 78.3565 98.9471 78.3565C99.0266 78.3565 99.1204 78.3594 99.2283 78.3651C99.3391 78.3707 99.4258 78.3778 99.4883 78.3864V79.6051C99.4371 79.5909 99.3462 79.5753 99.2156 79.5582C99.0849 79.5384 98.9542 79.5284 98.8235 79.5284C98.5224 79.5284 98.2539 79.5923 98.0181 79.7202C97.7852 79.8452 97.6005 80.0199 97.4641 80.2443C97.3278 80.4659 97.2596 80.7187 97.2596 81.0028V85H95.9854ZM104.033 78.4545V79.4773H100.458V78.4545H104.033ZM101.417 76.8864H102.691V83.0781C102.691 83.3253 102.728 83.5114 102.801 83.6364C102.875 83.7585 102.971 83.8423 103.087 83.8878C103.206 83.9304 103.336 83.9517 103.475 83.9517C103.577 83.9517 103.667 83.9446 103.743 83.9304C103.82 83.9162 103.88 83.9048 103.922 83.8963L104.152 84.9489C104.078 84.9773 103.973 85.0057 103.837 85.0341C103.701 85.0653 103.53 85.0824 103.326 85.0852C102.99 85.0909 102.678 85.0312 102.388 84.9062C102.098 84.7812 101.864 84.5881 101.685 84.3267C101.506 84.0653 101.417 83.7372 101.417 83.3423V76.8864ZM105.442 85V78.4545H106.717V85H105.442ZM106.086 77.4446C105.864 77.4446 105.674 77.3707 105.515 77.223C105.359 77.0724 105.281 76.8935 105.281 76.6861C105.281 76.4759 105.359 76.2969 105.515 76.1491C105.674 75.9986 105.864 75.9233 106.086 75.9233C106.308 75.9233 106.496 75.9986 106.653 76.1491C106.812 76.2969 106.891 76.4759 106.891 76.6861C106.891 76.8935 106.812 77.0724 106.653 77.223C106.496 77.3707 106.308 77.4446 106.086 77.4446ZM109.705 81.1136V85H108.431V78.4545H109.654V79.5199H109.735C109.885 79.1733 110.121 78.8949 110.442 78.6847C110.766 78.4744 111.174 78.3693 111.665 78.3693C112.111 78.3693 112.502 78.4631 112.837 78.6506C113.172 78.8352 113.432 79.1108 113.617 79.4773C113.801 79.8437 113.894 80.2969 113.894 80.8366V85H112.62V80.9901C112.62 80.5156 112.496 80.1449 112.249 79.8778C112.002 79.608 111.662 79.473 111.23 79.473C110.935 79.473 110.672 79.5369 110.442 79.6648C110.215 79.7926 110.034 79.9801 109.901 80.2273C109.77 80.4716 109.705 80.767 109.705 81.1136ZM118.347 87.5909C117.827 87.5909 117.38 87.5227 117.005 87.3864C116.632 87.25 116.328 87.0696 116.093 86.8452C115.857 86.6207 115.681 86.375 115.564 86.108L116.659 85.6562C116.736 85.7812 116.838 85.9134 116.966 86.0526C117.097 86.1946 117.273 86.3153 117.495 86.4148C117.719 86.5142 118.007 86.5639 118.36 86.5639C118.843 86.5639 119.242 86.446 119.557 86.2102C119.873 85.9773 120.03 85.6051 120.03 85.0938V83.8068H119.949C119.873 83.946 119.762 84.1009 119.617 84.2713C119.475 84.4418 119.279 84.5895 119.029 84.7145C118.779 84.8395 118.453 84.902 118.053 84.902C117.536 84.902 117.07 84.7812 116.655 84.5398C116.243 84.2955 115.917 83.9361 115.675 83.4616C115.436 82.9844 115.317 82.3977 115.317 81.7017C115.317 81.0057 115.435 80.4091 115.671 79.9119C115.909 79.4148 116.236 79.0341 116.651 78.7699C117.066 78.5028 117.536 78.3693 118.061 78.3693C118.468 78.3693 118.796 78.4375 119.046 78.5739C119.296 78.7074 119.49 78.8636 119.63 79.0426C119.772 79.2216 119.881 79.3793 119.958 79.5156H120.051V78.4545H121.3V85.1449C121.3 85.7074 121.169 86.169 120.908 86.5298C120.647 86.8906 120.293 87.1577 119.847 87.331C119.404 87.5043 118.904 87.5909 118.347 87.5909ZM118.334 83.8452C118.701 83.8452 119.01 83.7599 119.263 83.5895C119.519 83.4162 119.712 83.169 119.843 82.848C119.976 82.5241 120.043 82.1364 120.043 81.6847C120.043 81.2443 119.978 80.8565 119.847 80.5213C119.716 80.1861 119.525 79.9247 119.272 79.7372C119.019 79.5469 118.706 79.4517 118.334 79.4517C117.951 79.4517 117.631 79.5511 117.375 79.75C117.12 79.946 116.926 80.2131 116.796 80.5511C116.668 80.8892 116.604 81.267 116.604 81.6847C116.604 82.1136 116.669 82.4901 116.8 82.8139C116.931 83.1378 117.124 83.3906 117.38 83.5724C117.638 83.7543 117.956 83.8452 118.334 83.8452ZM123.848 85.081C123.615 85.081 123.415 84.9986 123.248 84.8338C123.08 84.6662 122.996 84.4645 122.996 84.2287C122.996 83.9957 123.08 83.7969 123.248 83.6321C123.415 83.4645 123.615 83.3807 123.848 83.3807C124.081 83.3807 124.282 83.4645 124.449 83.6321C124.617 83.7969 124.701 83.9957 124.701 84.2287C124.701 84.3849 124.661 84.5284 124.581 84.6591C124.505 84.7869 124.402 84.8892 124.275 84.9659C124.147 85.0426 124.005 85.081 123.848 85.081ZM127.247 85.081C127.014 85.081 126.814 84.9986 126.646 84.8338C126.478 84.6662 126.395 84.4645 126.395 84.2287C126.395 83.9957 126.478 83.7969 126.646 83.6321C126.814 83.4645 127.014 83.3807 127.247 83.3807C127.48 83.3807 127.68 83.4645 127.848 83.6321C128.015 83.7969 128.099 83.9957 128.099 84.2287C128.099 84.3849 128.059 84.5284 127.98 84.6591C127.903 84.7869 127.801 84.8892 127.673 84.9659C127.545 85.0426 127.403 85.081 127.247 85.081ZM130.645 85.081C130.412 85.081 130.212 84.9986 130.044 84.8338C129.877 84.6662 129.793 84.4645 129.793 84.2287C129.793 83.9957 129.877 83.7969 130.044 83.6321C130.212 83.4645 130.412 83.3807 130.645 83.3807C130.878 83.3807 131.078 83.4645 131.246 83.6321C131.414 83.7969 131.498 83.9957 131.498 84.2287C131.498 84.3849 131.458 84.5284 131.378 84.6591C131.301 84.7869 131.199 84.8892 131.071 84.9659C130.944 85.0426 130.801 85.081 130.645 85.081Z" fill="#84878D"/>
<path d="M77.8888 119.298C76.3619 119.298 75.0124 119.036 73.8406 118.51C72.6758 117.984 71.7631 117.26 71.1026 116.337C70.4421 115.413 70.1154 114.362 70.1225 113.183C70.1154 112.26 70.3036 111.411 70.6871 110.637C71.0778 109.856 71.6069 109.206 72.2745 108.688C72.9421 108.162 73.6879 107.828 74.5117 107.686V107.558C73.4251 107.295 72.555 106.713 71.9016 105.811C71.2482 104.909 70.9251 103.872 70.9322 102.7C70.9251 101.585 71.2198 100.591 71.8164 99.7173C72.4201 98.8366 73.2475 98.1442 74.2987 97.6399C75.3498 97.1357 76.5465 96.8835 77.8888 96.8835C79.217 96.8835 80.4031 97.1392 81.4471 97.6506C82.4982 98.1548 83.3256 98.8473 83.9293 99.728C84.533 100.602 84.8384 101.592 84.8455 102.7C84.8384 103.872 84.5046 104.909 83.8441 105.811C83.1836 106.713 82.3242 107.295 81.266 107.558V107.686C82.0827 107.828 82.8178 108.162 83.4712 108.688C84.1317 109.206 84.6573 109.856 85.0479 110.637C85.4457 111.411 85.6481 112.26 85.6552 113.183C85.6481 114.362 85.3143 115.413 84.6538 116.337C83.9933 117.26 83.0771 117.984 81.9052 118.51C80.7404 119.036 79.4016 119.298 77.8888 119.298ZM77.8888 116.603C78.7908 116.603 79.5721 116.454 80.2326 116.156C80.8931 115.85 81.4045 115.428 81.7667 114.888C82.1289 114.341 82.3136 113.702 82.3207 112.97C82.3136 112.21 82.1147 111.539 81.7241 110.957C81.3406 110.374 80.8185 109.916 80.158 109.582C79.4975 109.249 78.7411 109.082 77.8888 109.082C77.0295 109.082 76.266 109.249 75.5984 109.582C74.9308 109.916 74.4052 110.374 74.0217 110.957C73.6381 111.539 73.4499 112.21 73.457 112.97C73.4499 113.702 73.6239 114.341 73.979 114.888C74.3413 115.428 74.8562 115.85 75.5238 116.156C76.1914 116.454 76.9798 116.603 77.8888 116.603ZM77.8888 106.45C78.6133 106.45 79.256 106.305 79.8171 106.013C80.3782 105.722 80.8185 105.317 81.1381 104.799C81.4648 104.281 81.6317 103.673 81.6388 102.977C81.6317 102.295 81.4684 101.699 81.1488 101.188C80.8363 100.676 80.3995 100.282 79.8384 100.005C79.2773 99.7209 78.6275 99.5788 77.8888 99.5788C77.136 99.5788 76.4755 99.7209 75.9073 100.005C75.3462 100.282 74.9094 100.676 74.5969 101.188C74.2844 101.699 74.1317 102.295 74.1388 102.977C74.1317 103.673 74.288 104.281 74.6076 104.799C74.9272 105.317 75.3675 105.722 75.9286 106.013C76.4968 106.305 77.1502 106.45 77.8888 106.45ZM97.0676 119.362C95.3844 119.355 93.9462 118.911 92.753 118.031C91.5598 117.15 90.6472 115.868 90.0151 114.185C89.383 112.501 89.0669 110.474 89.0669 108.102C89.0669 105.737 89.383 103.716 90.0151 102.04C90.6543 100.364 91.5705 99.0852 92.7637 98.2045C93.964 97.3239 95.3986 96.8835 97.0676 96.8835C98.7367 96.8835 100.168 97.3274 101.361 98.2152C102.554 99.0959 103.467 100.374 104.099 102.05C104.738 103.719 105.058 105.737 105.058 108.102C105.058 110.481 104.742 112.512 104.11 114.195C103.477 115.871 102.565 117.153 101.372 118.041C100.178 118.922 98.7438 119.362 97.0676 119.362ZM97.0676 116.518C98.5449 116.518 99.699 115.797 100.53 114.355C101.368 112.913 101.787 110.829 101.787 108.102C101.787 106.29 101.595 104.76 101.212 103.51C100.835 102.253 100.292 101.301 99.5819 100.655C98.8787 100.001 98.0407 99.6747 97.0676 99.6747C95.5975 99.6747 94.4434 100.399 93.6053 101.848C92.7672 103.297 92.3446 105.381 92.3375 108.102C92.3375 109.92 92.5257 111.457 92.9022 112.714C93.2857 113.964 93.829 114.913 94.5321 115.559C95.2353 116.198 96.0804 116.518 97.0676 116.518ZM120.225 114.909V113.759C120.225 112.935 120.396 112.182 120.737 111.5C121.085 110.811 121.589 110.261 122.25 109.849C122.917 109.43 123.723 109.22 124.668 109.22C125.634 109.22 126.444 109.426 127.097 109.838C127.75 110.25 128.244 110.8 128.578 111.489C128.919 112.178 129.089 112.935 129.089 113.759V114.909C129.089 115.733 128.919 116.489 128.578 117.178C128.237 117.86 127.736 118.411 127.076 118.83C126.422 119.241 125.62 119.447 124.668 119.447C123.709 119.447 122.9 119.241 122.239 118.83C121.578 118.411 121.078 117.86 120.737 117.178C120.396 116.489 120.225 115.733 120.225 114.909ZM122.708 113.759V114.909C122.708 115.52 122.853 116.074 123.145 116.571C123.436 117.068 123.944 117.317 124.668 117.317C125.385 117.317 125.886 117.068 126.17 116.571C126.454 116.074 126.596 115.52 126.596 114.909V113.759C126.596 113.148 126.458 112.594 126.181 112.097C125.911 111.599 125.407 111.351 124.668 111.351C123.958 111.351 123.453 111.599 123.155 112.097C122.857 112.594 122.708 113.148 122.708 113.759ZM109.252 102.423V101.273C109.252 100.449 109.423 99.6925 109.764 99.0036C110.112 98.3146 110.616 97.7642 111.277 97.3523C111.944 96.9403 112.75 96.7344 113.695 96.7344C114.661 96.7344 115.471 96.9403 116.124 97.3523C116.777 97.7642 117.271 98.3146 117.605 99.0036C117.939 99.6925 118.105 100.449 118.105 101.273V102.423C118.105 103.247 117.935 104.004 117.594 104.692C117.26 105.374 116.763 105.925 116.103 106.344C115.449 106.756 114.647 106.962 113.695 106.962C112.729 106.962 111.916 106.756 111.255 106.344C110.602 105.925 110.105 105.374 109.764 104.692C109.423 104.004 109.252 103.247 109.252 102.423ZM111.745 101.273V102.423C111.745 103.034 111.887 103.588 112.172 104.085C112.463 104.582 112.971 104.831 113.695 104.831C114.405 104.831 114.902 104.582 115.186 104.085C115.478 103.588 115.623 103.034 115.623 102.423V101.273C115.623 100.662 115.485 100.108 115.208 99.6108C114.931 99.1136 114.426 98.8651 113.695 98.8651C112.985 98.8651 112.48 99.1136 112.182 99.6108C111.891 100.108 111.745 100.662 111.745 101.273ZM110.265 119L125.265 97.1818H127.811L112.811 119H110.265Z" fill="#20232E"/>
</svg>
