<svg width="149" height="50" viewBox="0 0 149 50" fill="none" xmlns="http://www.w3.org/2000/svg">
<path fill-rule="evenodd" clip-rule="evenodd" d="M17.7535 48.5897L5.20801 41.3186C1.98422 39.4501 0 36.0085 0 32.2854V17.7146C0 13.9915 1.98422 10.5499 5.20801 8.68142L17.7535 1.41031C20.9979 -0.470103 25.0021 -0.470101 28.2465 1.41031L40.792 8.68142C44.0158 10.5499 46 13.9915 46 17.7146V32.2854C46 36.0085 44.0158 39.4501 40.792 41.3186L28.2465 48.5897C25.0021 50.4701 20.9979 50.4701 17.7535 48.5897ZM26.1479 5.0236L38.6934 12.2947C40.6276 13.4158 41.8182 15.4807 41.8182 17.7146V32.2854C41.8182 34.5193 40.6276 36.5842 38.6934 37.7053L26.1479 44.9764C24.2013 46.1047 21.7987 46.1046 19.8521 44.9764L7.30662 37.7053C5.37235 36.5842 4.18182 34.5193 4.18182 32.2854V17.7146C4.18182 15.4807 5.37235 13.4158 7.30662 12.2947L19.8521 5.0236C21.7987 3.89535 24.2013 3.89535 26.1479 5.0236Z" fill="#0C3F8B"/>
<path fill-rule="evenodd" clip-rule="evenodd" d="M17.255 38.6548V25.5207C17.255 24.2229 16.2019 23.1709 14.9028 23.1709H10.9772C9.67809 23.1709 8.62494 24.2229 8.62494 25.5207V34.0242L17.255 38.6548Z" fill="#E73369"/>
<path d="M27.7045 38.4794V14.6208C27.7045 13.323 26.6514 12.271 25.3523 12.271H21.4318C20.1327 12.271 19.0795 13.323 19.0795 14.6208V39.6016L19.3443 39.7475C21.2299 40.7862 23.5171 40.7862 25.4026 39.7475L27.7045 38.4794Z" fill="#F2B926"/>
<path d="M38.1071 32.7093V19.3205C38.1071 18.0227 37.054 16.9707 35.7548 16.9707H31.8863C30.5871 16.9707 29.534 18.0227 29.534 19.3205V38.1559L36.3267 34.2429C37.0228 33.8418 37.6233 33.3187 38.1071 32.7093Z" fill="#59BC49"/>
<path d="M54.8333 17.5206C54.5936 17.5206 54.3921 17.4429 54.2287 17.2875C54.0762 17.121 54 16.9156 54 16.6714V9.24535C54 8.99004 54.0762 8.78469 54.2287 8.62928C54.3921 8.47388 54.5936 8.39618 54.8333 8.39618C55.0838 8.39618 55.2853 8.47388 55.4378 8.62928C55.5903 8.78469 55.6665 8.99004 55.6665 9.24535V9.4285C56.0042 9.08439 56.4126 8.81244 56.8919 8.61263C57.3711 8.41283 57.8885 8.31293 58.444 8.31293C59.1956 8.31293 59.8654 8.47943 60.4536 8.81244C61.0527 9.13435 61.521 9.61166 61.8587 10.2444C62.2073 10.8771 62.3815 11.6541 62.3815 12.5754V16.6714C62.3815 16.9156 62.2998 17.121 62.1365 17.2875C61.984 17.4429 61.7879 17.5206 61.5483 17.5206C61.3087 17.5206 61.1071 17.4429 60.9438 17.2875C60.7913 17.121 60.715 16.9156 60.715 16.6714V12.5754C60.715 11.6319 60.4645 10.9437 59.9635 10.5108C59.4733 10.0668 58.8579 9.84476 58.1172 9.84476C57.6598 9.84476 57.2459 9.93911 56.8755 10.1278C56.5052 10.3165 56.2111 10.5718 55.9933 10.8937C55.7754 11.2045 55.6665 11.5653 55.6665 11.976V16.6714C55.6665 16.9156 55.5903 17.121 55.4378 17.2875C55.2853 17.4429 55.0838 17.5206 54.8333 17.5206ZM54.8333 14.1905C54.5936 14.1905 54.3921 14.1128 54.2287 13.9574C54.0762 13.7909 54 13.5855 54 13.3413V5.34917C54 5.09386 54.0762 4.88851 54.2287 4.7331C54.3921 4.5777 54.5936 4.5 54.8333 4.5C55.0838 4.5 55.2853 4.5777 55.4378 4.7331C55.5903 4.88851 55.6665 5.09386 55.6665 5.34917V13.3413C55.6665 13.5855 55.5903 13.7909 55.4378 13.9574C55.2853 14.1128 55.0838 14.1905 54.8333 14.1905Z" fill="white"/>
<path d="M68.6982 17.5705C67.7941 17.5705 66.9881 17.3763 66.2801 16.9878C65.583 16.5881 65.033 16.0442 64.63 15.356C64.2378 14.6567 64.0418 13.8575 64.0418 12.9584C64.0418 12.0482 64.2269 11.2489 64.5973 10.5607C64.9785 9.86141 65.5013 9.3175 66.1658 8.92899C66.8302 8.52938 67.5926 8.32958 68.4531 8.32958C69.3027 8.32958 70.0325 8.52383 70.6424 8.91234C71.2524 9.28975 71.7153 9.81701 72.0312 10.4941C72.358 11.1601 72.5213 11.9316 72.5213 12.8085C72.5213 13.0194 72.4505 13.197 72.3089 13.3413C72.1673 13.4745 71.9876 13.5411 71.7698 13.5411H65.5612C65.6811 14.3071 66.0242 14.9342 66.5905 15.4226C67.1678 15.8999 67.8704 16.1386 68.6982 16.1386C69.0358 16.1386 69.3789 16.0775 69.7275 15.9554C70.0869 15.8222 70.3756 15.6724 70.5934 15.5059C70.7568 15.3838 70.9311 15.3227 71.1163 15.3227C71.3123 15.3116 71.4811 15.3671 71.6227 15.4892C71.8079 15.6557 71.9059 15.8389 71.9168 16.0387C71.9277 16.2385 71.8406 16.4105 71.6554 16.5548C71.2851 16.8546 70.8222 17.0988 70.2667 17.2875C69.7221 17.4762 69.1992 17.5705 68.6982 17.5705ZM68.4531 9.76151C67.6471 9.76151 66.999 9.98906 66.5089 10.4442C66.0187 10.8993 65.7083 11.4876 65.5776 12.2091H71.0182C70.9202 11.4987 70.6533 10.9159 70.2176 10.4608C69.782 9.99461 69.1938 9.76151 68.4531 9.76151Z" fill="white"/>
<path d="M73.5314 17.5039C73.3135 17.5039 73.1393 17.4373 73.0086 17.3041C72.8887 17.1598 72.8288 16.9878 72.8288 16.788C72.8288 16.5881 72.9051 16.3883 73.0576 16.1885L75.59 12.9584L72.8942 9.71156C72.7526 9.53395 72.6763 9.34525 72.6654 9.14545C72.6546 8.93454 72.709 8.75694 72.8288 8.61263C72.9486 8.46833 73.1284 8.39618 73.368 8.39618C73.6294 8.39618 73.8364 8.49053 73.9888 8.67924L76.6683 11.9427L79.0701 8.67924C79.1572 8.56823 79.2498 8.49608 79.3478 8.46278C79.4458 8.41838 79.5548 8.39618 79.6746 8.39618C79.9142 8.39618 80.0939 8.47388 80.2137 8.62928C80.3335 8.77359 80.388 8.95119 80.3771 9.1621C80.3771 9.373 80.3009 9.57835 80.1484 9.77816L77.6813 13.0583L80.2791 16.2218C80.4425 16.4216 80.5187 16.6215 80.5078 16.8213C80.5078 17.01 80.437 17.1709 80.2954 17.3041C80.1647 17.4373 79.9904 17.5039 79.7726 17.5039C79.6637 17.5039 79.5602 17.4873 79.4622 17.454C79.3641 17.4207 79.2716 17.3485 79.1844 17.2375L76.5866 14.0739L74.1196 17.2375C73.9562 17.4151 73.7601 17.5039 73.5314 17.5039Z" fill="white"/>
<path d="M84.8511 17.5705C84.056 17.5705 83.3425 17.3707 82.7108 16.9711C82.0791 16.5604 81.578 16.0109 81.2077 15.3227C80.8482 14.6234 80.6685 13.8353 80.6685 12.9584C80.6685 12.0815 80.8646 11.2933 81.2567 10.594C81.6597 9.89471 82.1989 9.34525 82.8742 8.94564C83.5604 8.53493 84.3283 8.32958 85.1779 8.32958C86.0275 8.32958 86.7899 8.53493 87.4652 8.94564C88.1406 9.34525 88.6743 9.89471 89.0664 10.594C89.4694 11.2933 89.6709 12.0815 89.6709 12.9584V16.6714C89.6709 16.9156 89.5892 17.121 89.4258 17.2875C89.2733 17.4429 89.0773 17.5206 88.8377 17.5206C88.598 17.5206 88.3965 17.4429 88.2331 17.2875C88.0806 17.121 88.0044 16.9156 88.0044 16.6714V16.0553C87.6232 16.5215 87.1603 16.8934 86.6156 17.1709C86.0819 17.4373 85.4938 17.5705 84.8511 17.5705ZM85.1779 16.072C85.7334 16.072 86.229 15.9388 86.6647 15.6724C87.1003 15.3949 87.4435 15.023 87.694 14.5568C87.9445 14.0795 88.0698 13.5467 88.0698 12.9584C88.0698 12.359 87.9445 11.8262 87.694 11.3599C87.4435 10.8826 87.1003 10.5108 86.6647 10.2444C86.229 9.96686 85.7334 9.82811 85.1779 9.82811C84.6333 9.82811 84.1377 9.96686 83.6911 10.2444C83.2554 10.5108 82.9069 10.8826 82.6454 11.3599C82.3949 11.8262 82.2697 12.359 82.2697 12.9584C82.2697 13.5467 82.3949 14.0795 82.6454 14.5568C82.9069 15.023 83.2554 15.3949 83.6911 15.6724C84.1377 15.9388 84.6333 16.072 85.1779 16.072Z" fill="white"/>
<path d="M93.6216 17.5039C93.1423 17.5039 92.7175 17.3707 92.3472 17.1043C91.9769 16.8379 91.6882 16.4771 91.4813 16.022C91.2743 15.5558 91.1708 15.023 91.1708 14.4236V5.33252C91.1708 5.08831 91.2471 4.88851 91.3996 4.7331C91.5521 4.5777 91.7481 4.5 91.9877 4.5C92.2274 4.5 92.4234 4.5777 92.5759 4.7331C92.7284 4.88851 92.8047 5.08831 92.8047 5.33252V14.4236C92.8047 14.8343 92.8809 15.1729 93.0334 15.4393C93.1859 15.7057 93.3819 15.8389 93.6216 15.8389H94.03C94.2479 15.8389 94.4221 15.9166 94.5529 16.072C94.6945 16.2274 94.7653 16.4272 94.7653 16.6714C94.7653 16.9156 94.6618 17.1154 94.4548 17.2708C94.2479 17.4262 93.981 17.5039 93.6543 17.5039H93.6216Z" fill="white"/>
<path d="M97.3435 21.5C97.2346 21.5 97.1039 21.4667 96.9514 21.4001C96.4721 21.1781 96.3414 20.8284 96.5593 20.3511L98.1931 16.6048L94.517 9.4951C94.4081 9.2842 94.3917 9.08439 94.468 8.89569C94.5551 8.69589 94.7022 8.55158 94.9091 8.46278C95.1161 8.37398 95.3121 8.36843 95.4973 8.44613C95.6824 8.51273 95.824 8.65149 95.9221 8.86239L98.912 14.9231L101.542 8.87904C101.76 8.41283 102.103 8.27963 102.572 8.47943C103.062 8.69034 103.198 9.03999 102.98 9.5284L97.9807 20.9838C97.85 21.3279 97.6376 21.5 97.3435 21.5Z" fill="white"/>
<path d="M107.147 17.5039C106.603 17.5039 106.113 17.3652 105.677 17.0877C105.241 16.7991 104.898 16.4105 104.648 15.9221C104.397 15.4337 104.272 14.8843 104.272 14.2738V10.1611H103.52C103.292 10.1611 103.106 10.0945 102.965 9.96131C102.823 9.82811 102.752 9.66161 102.752 9.4618C102.752 9.2398 102.823 9.06219 102.965 8.92899C103.106 8.79579 103.292 8.72919 103.52 8.72919H104.272V6.33154C104.272 6.08733 104.348 5.88753 104.501 5.73213C104.653 5.57672 104.849 5.49902 105.089 5.49902C105.328 5.49902 105.525 5.57672 105.677 5.73213C105.83 5.88753 105.906 6.08733 105.906 6.33154V8.72919H107.295C107.523 8.72919 107.708 8.79579 107.85 8.92899C107.992 9.06219 108.062 9.2398 108.062 9.4618C108.062 9.66161 107.992 9.82811 107.85 9.96131C107.708 10.0945 107.523 10.1611 107.295 10.1611H105.906V14.2738C105.906 14.7178 106.026 15.0896 106.265 15.3893C106.505 15.689 106.799 15.8389 107.147 15.8389H107.703C107.899 15.8389 108.062 15.9166 108.193 16.072C108.335 16.2274 108.406 16.4272 108.406 16.6714C108.406 16.9156 108.313 17.1154 108.128 17.2708C107.954 17.4262 107.725 17.5039 107.442 17.5039H107.147Z" fill="white"/>
<path d="M110.797 17.5039C110.557 17.5039 110.356 17.4262 110.192 17.2708C110.04 17.1043 109.964 16.899 109.964 16.6548V9.24535C109.964 8.99004 110.04 8.78469 110.192 8.62928C110.356 8.47388 110.557 8.39618 110.797 8.39618C111.047 8.39618 111.249 8.47388 111.401 8.62928C111.554 8.78469 111.63 8.99004 111.63 9.24535V16.6548C111.63 16.899 111.554 17.1043 111.401 17.2708C111.249 17.4262 111.047 17.5039 110.797 17.5039ZM110.797 6.9143C110.503 6.9143 110.247 6.80885 110.029 6.59794C109.822 6.37594 109.719 6.11508 109.719 5.81538C109.719 5.51567 109.822 5.26037 110.029 5.04946C110.247 4.82746 110.503 4.71645 110.797 4.71645C111.091 4.71645 111.342 4.82746 111.548 5.04946C111.766 5.26037 111.875 5.51567 111.875 5.81538C111.875 6.11508 111.766 6.37594 111.548 6.59794C111.342 6.80885 111.091 6.9143 110.797 6.9143Z" fill="white"/>
<path d="M118.129 17.5705C117.257 17.5705 116.479 17.3707 115.792 16.9711C115.117 16.5604 114.583 16.0109 114.191 15.3227C113.81 14.6234 113.619 13.8353 113.619 12.9584C113.619 12.0593 113.81 11.26 114.191 10.5607C114.573 9.86141 115.095 9.3175 115.76 8.92899C116.424 8.52938 117.187 8.32958 118.047 8.32958C119.332 8.32958 120.4 8.82909 121.249 9.82811C121.402 10.0057 121.456 10.1889 121.413 10.3776C121.369 10.5663 121.249 10.7328 121.053 10.8771C120.901 10.9881 120.732 11.0269 120.547 10.9936C120.362 10.9492 120.193 10.8493 120.04 10.6939C119.507 10.1167 118.842 9.82811 118.047 9.82811C117.208 9.82811 116.528 10.1167 116.005 10.6939C115.482 11.26 115.221 12.0149 115.221 12.9584C115.221 13.5578 115.34 14.0906 115.58 14.5568C115.831 15.023 116.174 15.3949 116.609 15.6724C117.045 15.9388 117.552 16.072 118.129 16.072C118.87 16.072 119.469 15.8777 119.926 15.4892C120.1 15.3449 120.28 15.2672 120.465 15.2561C120.65 15.2339 120.814 15.2839 120.955 15.406C121.141 15.5614 121.244 15.739 121.266 15.9388C121.288 16.1275 121.222 16.2995 121.07 16.4549C120.285 17.1987 119.305 17.5705 118.129 17.5705Z" fill="white"/>
<path d="M126.487 17.5705C125.725 17.5705 125.017 17.454 124.363 17.2209C123.721 16.9767 123.22 16.6714 122.86 16.3051C122.697 16.1275 122.626 15.9277 122.648 15.7057C122.68 15.4726 122.789 15.2839 122.975 15.1396C123.192 14.962 123.405 14.8898 123.612 14.9231C123.83 14.9453 124.015 15.0397 124.167 15.2062C124.352 15.4171 124.646 15.6169 125.05 15.8056C125.463 15.9832 125.921 16.072 126.422 16.072C127.054 16.072 127.533 15.9665 127.86 15.7556C128.197 15.5447 128.372 15.2728 128.383 14.9398C128.393 14.6068 128.235 14.3182 127.909 14.0739C127.593 13.8297 127.01 13.6299 126.161 13.4745C125.06 13.2525 124.26 12.9195 123.759 12.4755C123.269 12.0315 123.024 11.4876 123.024 10.8438C123.024 10.2777 123.187 9.81146 123.514 9.44515C123.84 9.06774 124.26 8.79024 124.772 8.61263C125.284 8.42393 125.817 8.32958 126.373 8.32958C127.092 8.32958 127.729 8.44613 128.284 8.67924C128.84 8.91234 129.281 9.23425 129.608 9.64496C129.76 9.82256 129.831 10.0113 129.82 10.2111C129.809 10.3998 129.717 10.5607 129.543 10.6939C129.368 10.816 129.161 10.8549 128.922 10.8105C128.682 10.7661 128.481 10.6662 128.317 10.5108C128.045 10.2444 127.751 10.0612 127.435 9.96131C127.119 9.86141 126.754 9.81146 126.34 9.81146C125.861 9.81146 125.453 9.89471 125.115 10.0612C124.788 10.2277 124.625 10.4719 124.625 10.7938C124.625 10.9936 124.674 11.1768 124.772 11.3433C124.881 11.4987 125.088 11.643 125.393 11.7762C125.698 11.8983 126.144 12.0204 126.732 12.1425C127.963 12.3867 128.813 12.7364 129.281 13.1915C129.76 13.6355 130 14.1849 130 14.8399C130 15.3505 129.864 15.8111 129.592 16.2218C129.33 16.6326 128.938 16.96 128.415 17.2042C127.903 17.4484 127.261 17.5705 126.487 17.5705Z" fill="white"/>
<path d="M62.0391 45.5C60.5109 45.5 59.1396 45.1028 57.9254 44.3083C56.7111 43.4917 55.7481 42.3993 55.0363 41.031C54.3454 39.6407 54 38.0738 54 36.3303C54 34.5869 54.3768 33.02 55.1305 31.6297C55.9051 30.2393 56.9414 29.1469 58.2394 28.3524C59.5583 27.5359 61.0342 27.1276 62.6672 27.1276C64.3001 27.1276 65.7656 27.5359 67.0636 28.3524C68.3616 29.1469 69.3874 30.2393 70.1411 31.6297C70.9157 33.02 71.303 34.5869 71.303 36.3303V43.7124C71.303 44.1979 71.146 44.6062 70.8319 44.9372C70.5388 45.2462 70.162 45.4007 69.7014 45.4007C69.2409 45.4007 68.8535 45.2462 68.5395 44.9372C68.2464 44.6062 68.0999 44.1979 68.0999 43.7124V42.4876C67.3671 43.4145 66.4774 44.1538 65.4306 44.7055C64.4048 45.2352 63.2743 45.5 62.0391 45.5ZM62.6672 42.5207C63.7349 42.5207 64.6874 42.2559 65.5248 41.7262C66.3623 41.1745 67.0217 40.4352 67.5032 39.5083C67.9847 38.5593 68.2255 37.5 68.2255 36.3303C68.2255 35.1386 67.9847 34.0793 67.5032 33.1524C67.0217 32.2034 66.3623 31.4641 65.5248 30.9345C64.6874 30.3828 63.7349 30.1069 62.6672 30.1069C61.6204 30.1069 60.6679 30.3828 59.8095 30.9345C58.9721 31.4641 58.3022 32.2034 57.7997 33.1524C57.3182 34.0793 57.0775 35.1386 57.0775 36.3303C57.0775 37.5 57.3182 38.5593 57.7997 39.5083C58.3022 40.4352 58.9721 41.1745 59.8095 41.7262C60.6679 42.2559 61.6204 42.5207 62.6672 42.5207Z" fill="white"/>
<path d="M81.0631 45.5C79.5977 45.5 78.2369 45.2683 76.9808 44.8048C75.7456 44.3193 74.7826 43.7124 74.0917 42.9841C73.7777 42.631 73.6416 42.2338 73.6835 41.7924C73.7463 41.329 73.9556 40.9538 74.3115 40.6669C74.7302 40.3138 75.1385 40.1703 75.5362 40.2366C75.9549 40.2807 76.3108 40.4683 76.6039 40.7993C76.9598 41.2186 77.5251 41.6159 78.2997 41.991C79.0952 42.3441 79.9745 42.5207 80.9375 42.5207C82.1518 42.5207 83.0729 42.311 83.701 41.8917C84.35 41.4724 84.6849 40.9317 84.7059 40.2697C84.7268 39.6076 84.4232 39.0338 83.7952 38.5483C83.188 38.0628 82.068 37.6655 80.4351 37.3566C78.3206 36.9152 76.7819 36.2531 75.8188 35.3703C74.8768 34.4876 74.4057 33.4062 74.4057 32.1262C74.4057 31.0007 74.7197 30.0738 75.3478 29.3455C75.9759 28.5952 76.7819 28.0434 77.7658 27.6903C78.7498 27.3152 79.7756 27.1276 80.8433 27.1276C82.225 27.1276 83.4497 27.3593 84.5174 27.8228C85.5851 28.2862 86.433 28.9262 87.0611 29.7428C87.3542 30.0959 87.4902 30.471 87.4693 30.8683C87.4484 31.2434 87.2704 31.5634 86.9355 31.8283C86.6005 32.071 86.2027 32.1483 85.7421 32.06C85.2816 31.9717 84.8943 31.7731 84.5802 31.4641C84.0569 30.9345 83.4916 30.5703 82.8845 30.3717C82.2774 30.1731 81.576 30.0738 80.7805 30.0738C79.8593 30.0738 79.0743 30.2393 78.4253 30.5703C77.7972 30.9014 77.4832 31.3869 77.4832 32.0269C77.4832 32.4241 77.5774 32.7883 77.7658 33.1193C77.9752 33.4283 78.3729 33.7152 78.9591 33.98C79.5453 34.2228 80.4037 34.4655 81.5342 34.7083C83.8998 35.1938 85.5328 35.889 86.433 36.7938C87.3542 37.6766 87.8147 38.769 87.8147 40.071C87.8147 41.0862 87.553 42.0021 87.0297 42.8186C86.5272 43.6352 85.7735 44.2862 84.7687 44.7717C83.7847 45.2572 82.5495 45.5 81.0631 45.5Z" fill="white"/>
<path d="M96.8578 45.5C95.3923 45.5 94.0315 45.2683 92.7754 44.8048C91.5402 44.3193 90.5772 43.7124 89.8863 42.9841C89.5723 42.631 89.4362 42.2338 89.4781 41.7924C89.5409 41.329 89.7503 40.9538 90.1062 40.6669C90.5249 40.3138 90.9331 40.1703 91.3309 40.2366C91.7496 40.2807 92.1055 40.4683 92.3986 40.7993C92.7545 41.2186 93.3197 41.6159 94.0943 41.991C94.8899 42.3441 95.7691 42.5207 96.7322 42.5207C97.9464 42.5207 98.8676 42.311 99.4956 41.8917C100.145 41.4724 100.48 40.9317 100.501 40.2697C100.521 39.6076 100.218 39.0338 99.5898 38.5483C98.9827 38.0628 97.8627 37.6655 96.2297 37.3566C94.1153 36.9152 92.5765 36.2531 91.6135 35.3703C90.6714 34.4876 90.2004 33.4062 90.2004 32.1262C90.2004 31.0007 90.5144 30.0738 91.1425 29.3455C91.7705 28.5952 92.5765 28.0434 93.5605 27.6903C94.5444 27.3152 95.5703 27.1276 96.638 27.1276C98.0197 27.1276 99.2444 27.3593 100.312 27.8228C101.38 28.2862 102.228 28.9262 102.856 29.7428C103.149 30.0959 103.285 30.471 103.264 30.8683C103.243 31.2434 103.065 31.5634 102.73 31.8283C102.395 32.071 101.997 32.1483 101.537 32.06C101.076 31.9717 100.689 31.7731 100.375 31.4641C99.8515 30.9345 99.2863 30.5703 98.6791 30.3717C98.072 30.1731 97.3707 30.0738 96.5751 30.0738C95.654 30.0738 94.8689 30.2393 94.2199 30.5703C93.5919 30.9014 93.2779 31.3869 93.2779 32.0269C93.2779 32.4241 93.3721 32.7883 93.5605 33.1193C93.7698 33.4283 94.1676 33.7152 94.7538 33.98C95.34 34.2228 96.1983 34.4655 97.3288 34.7083C99.6945 35.1938 101.327 35.889 102.228 36.7938C103.149 37.6766 103.609 38.769 103.609 40.071C103.609 41.0862 103.348 42.0021 102.824 42.8186C102.322 43.6352 101.568 44.2862 100.563 44.7717C99.5794 45.2572 98.3442 45.5 96.8578 45.5Z" fill="white"/>
<path d="M114.474 45.5C112.736 45.5 111.187 45.1138 109.826 44.3414C108.486 43.5469 107.429 42.4655 106.654 41.0972C105.901 39.7069 105.524 38.1179 105.524 36.3303C105.524 34.5207 105.88 32.9317 106.592 31.5634C107.324 30.1731 108.329 29.0917 109.606 28.3193C110.883 27.5248 112.349 27.1276 114.003 27.1276C115.636 27.1276 117.038 27.5138 118.211 28.2862C119.383 29.0366 120.273 30.0848 120.88 31.431C121.508 32.7552 121.822 34.289 121.822 36.0324C121.822 36.4517 121.686 36.8048 121.414 37.0917C121.142 37.3566 120.796 37.489 120.378 37.489H108.444C108.675 39.0117 109.334 40.2586 110.423 41.2297C111.532 42.1786 112.883 42.6531 114.474 42.6531C115.123 42.6531 115.782 42.5317 116.452 42.289C117.143 42.0241 117.698 41.7262 118.117 41.3952C118.431 41.1524 118.766 41.031 119.121 41.031C119.498 41.009 119.823 41.1193 120.095 41.3621C120.451 41.6931 120.639 42.0572 120.66 42.4545C120.681 42.8517 120.514 43.1938 120.158 43.4807C119.446 44.0766 118.556 44.5621 117.488 44.9372C116.442 45.3124 115.437 45.5 114.474 45.5ZM114.003 29.9745C112.454 29.9745 111.208 30.4269 110.266 31.3317C109.324 32.2366 108.727 33.4062 108.476 34.8407H118.933C118.745 33.4283 118.232 32.2697 117.394 31.3648C116.557 30.4379 115.426 29.9745 114.003 29.9745Z" fill="white"/>
<path d="M130.9 45.3676C129.854 45.3676 128.912 45.0917 128.074 44.54C127.237 43.9662 126.577 43.1938 126.096 42.2228C125.614 41.2517 125.374 40.1593 125.374 38.9455V30.769H123.929C123.489 30.769 123.133 30.6366 122.861 30.3717C122.589 30.1069 122.453 29.7759 122.453 29.3786C122.453 28.9372 122.589 28.5841 122.861 28.3193C123.133 28.0545 123.489 27.9221 123.929 27.9221H125.374V23.1552C125.374 22.6697 125.52 22.2724 125.813 21.9634C126.106 21.6545 126.483 21.5 126.944 21.5C127.404 21.5 127.781 21.6545 128.074 21.9634C128.367 22.2724 128.514 22.6697 128.514 23.1552V27.9221H131.183C131.623 27.9221 131.979 28.0545 132.251 28.3193C132.523 28.5841 132.659 28.9372 132.659 29.3786C132.659 29.7759 132.523 30.1069 132.251 30.3717C131.979 30.6366 131.623 30.769 131.183 30.769H128.514V38.9455C128.514 39.8283 128.744 40.5676 129.205 41.1634C129.665 41.7593 130.23 42.0572 130.9 42.0572H131.968C132.345 42.0572 132.659 42.2117 132.91 42.5207C133.182 42.8297 133.318 43.2269 133.318 43.7124C133.318 44.1979 133.14 44.5952 132.785 44.9041C132.45 45.2131 132.01 45.3676 131.466 45.3676H130.9Z" fill="white"/>
<path d="M142.248 45.5C140.783 45.5 139.422 45.2683 138.166 44.8048C136.931 44.3193 135.968 43.7124 135.277 42.9841C134.963 42.631 134.827 42.2338 134.869 41.7924C134.932 41.329 135.141 40.9538 135.497 40.6669C135.915 40.3138 136.324 40.1703 136.721 40.2366C137.14 40.2807 137.496 40.4683 137.789 40.7993C138.145 41.2186 138.71 41.6159 139.485 41.991C140.28 42.3441 141.16 42.5207 142.123 42.5207C143.337 42.5207 144.258 42.311 144.886 41.8917C145.535 41.4724 145.87 40.9317 145.891 40.2697C145.912 39.6076 145.608 39.0338 144.98 38.5483C144.373 38.0628 143.253 37.6655 141.62 37.3566C139.506 36.9152 137.967 36.2531 137.004 35.3703C136.062 34.4876 135.591 33.4062 135.591 32.1262C135.591 31.0007 135.905 30.0738 136.533 29.3455C137.161 28.5952 137.967 28.0434 138.951 27.6903C139.935 27.3152 140.961 27.1276 142.029 27.1276C143.41 27.1276 144.635 27.3593 145.703 27.8228C146.77 28.2862 147.618 28.9262 148.246 29.7428C148.539 30.0959 148.675 30.471 148.655 30.8683C148.634 31.2434 148.456 31.5634 148.121 31.8283C147.786 32.071 147.388 32.1483 146.927 32.06C146.467 31.9717 146.08 31.7731 145.766 31.4641C145.242 30.9345 144.677 30.5703 144.07 30.3717C143.463 30.1731 142.761 30.0738 141.966 30.0738C141.045 30.0738 140.26 30.2393 139.611 30.5703C138.982 30.9014 138.668 31.3869 138.668 32.0269C138.668 32.4241 138.763 32.7883 138.951 33.1193C139.16 33.4283 139.558 33.7152 140.144 33.98C140.731 34.2228 141.589 34.4655 142.719 34.7083C145.085 35.1938 146.718 35.889 147.618 36.7938C148.539 37.6766 149 38.769 149 40.071C149 41.0862 148.738 42.0021 148.215 42.8186C147.712 43.6352 146.959 44.2862 145.954 44.7717C144.97 45.2572 143.735 45.5 142.248 45.5Z" fill="white"/>
</svg>
