<svg width="24" height="24" viewBox="0 0 24 24" fill="none" xmlns="http://www.w3.org/2000/svg">
<path opacity="0.4" d="M18.9117 14.7484L18.913 14.7506C19.2233 15.2598 19.2776 15.8588 19.0721 16.4041C18.8638 16.957 18.4356 17.3741 17.8839 17.5554L17.8839 17.5554L17.8812 17.5563C15.9942 18.1885 14.008 18.5004 12.02 18.5004C10.032 18.5004 8.04663 18.1885 6.16104 17.547L6.16004 17.5467C5.54298 17.3382 5.10192 16.9176 4.92072 16.4118L4.92073 16.4118L4.91929 16.4079C4.72726 15.8855 4.78763 15.3029 5.11862 14.7479C5.11885 14.7475 5.11908 14.7471 5.11931 14.7467L6.12784 13.0791L6.1279 13.0792L6.13189 13.0723C6.26757 12.8397 6.38154 12.5285 6.46124 12.2353C6.54084 11.9425 6.6 11.6173 6.6 11.3504V8.82039C6.6 5.83598 9.0267 3.40039 12.02 3.40039C15.0133 3.40039 17.44 5.83598 17.44 8.82039V11.3504C17.44 11.6173 17.4992 11.9425 17.5786 12.236C17.6584 12.5307 17.7717 12.8421 17.9052 13.0772L17.905 13.0773L17.9117 13.0884L18.9117 14.7484Z" fill="#4169E1" stroke="#4169E1"/>
<mask id="path-2-inside-1_17252_147839" fill="white">
<path d="M14.25 3.32C13.56 3.05 12.81 2.9 12.02 2.9C11.24 2.9 10.49 3.04 9.79999 3.32C10.23 2.51 11.08 2 12.02 2C12.97 2 13.81 2.51 14.25 3.32Z"/>
</mask>
<path d="M14.25 3.32C13.56 3.05 12.81 2.9 12.02 2.9C11.24 2.9 10.49 3.04 9.79999 3.32C10.23 2.51 11.08 2 12.02 2C12.97 2 13.81 2.51 14.25 3.32Z" fill="#4169E1"/>
<path d="M14.25 3.32L13.8856 4.25124L16.436 5.24922L15.1287 2.84267L14.25 3.32ZM9.79999 3.32L8.91673 2.85111L7.62674 5.2811L10.176 4.24661L9.79999 3.32ZM14.6144 2.38876C13.8114 2.07456 12.938 1.9 12.02 1.9V3.9C12.6819 3.9 13.3085 4.02544 13.8856 4.25124L14.6144 2.38876ZM12.02 1.9C11.1199 1.9 10.2413 2.06171 9.42397 2.39339L10.176 4.24661C10.7387 4.01829 11.3601 3.9 12.02 3.9V1.9ZM10.6832 3.78889C10.937 3.31096 11.444 3 12.02 3V1C10.716 1 9.52301 1.70904 8.91673 2.85111L10.6832 3.78889ZM12.02 3C12.602 3 13.1055 3.30814 13.3713 3.79733L15.1287 2.84267C14.5144 1.71186 13.338 1 12.02 1V3Z" fill="#4169E1" mask="url(#path-2-inside-1_17252_147839)"/>
<path d="M10.0956 20.6143C10.146 20.6193 10.1966 20.6239 10.2474 20.6282C10.8289 20.6792 11.4233 20.71 12.02 20.71C12.6073 20.71 13.1924 20.6791 13.7645 20.628L13.7645 20.628L13.7674 20.6277C13.8104 20.6237 13.858 20.6197 13.9086 20.6156C13.4474 21.1572 12.7621 21.5 12 21.5C11.3411 21.5 10.6924 21.2319 10.2398 20.7628L10.2311 20.7538L10.222 20.7452C10.1782 20.7042 10.136 20.6604 10.0956 20.6143Z" fill="#4169E1" stroke="#4169E1"/>
</svg>
