<svg width="169" height="150" viewBox="0 0 169 150" fill="none" xmlns="http://www.w3.org/2000/svg">
<g clip-path="url(#clip0_12978_161168)">
<path d="M154.059 96.5582H153.703V96.4693H154.059V96.5582ZM154.059 94.3103H153.703V92.1593H154.059V94.3103ZM154.059 90.0003H153.703V87.8494H154.059V90.0003ZM154.059 85.6903H153.703V83.5394H154.059V85.6903ZM154.059 81.3884H153.703V79.2375H154.059V81.3884ZM153.695 77.0785V74.9275H154.051V77.0785H153.695ZM154.051 72.7685H153.695V70.6175H154.051V72.7685ZM154.051 68.4585H153.695V66.3076H154.051V68.4585ZM154.051 64.1485H153.695V61.9976H154.051V64.1485ZM154.051 59.8467H153.695V57.6957H154.051V59.8467ZM154.051 55.5367H153.695V53.3857H154.051V55.5367Z" fill="#708FFF"/>
<path d="M34.9974 28.8036H34.6416V26.6526H34.9974V28.8036ZM34.9974 24.4936H34.6416V22.3427H34.9974V24.4936ZM34.9974 20.1836H34.6416V18.0327H34.9974V20.1836ZM34.9974 15.8737H34.6416V13.7227H34.9974V15.8737ZM34.9974 11.5637H34.6416V9.41276H34.9974V11.5637ZM34.9974 7.25373H34.6416V5.10278H34.9974V7.25373ZM34.9974 2.95184H34.6416V1.83594H34.9974V2.95184Z" fill="#708FFF"/>
<path d="M123.703 17.2803H123.348V18.3557H123.703V17.2803Z" fill="#708FFF"/>
<path d="M123.703 85.7788H123.348V83.6682H123.703V85.7788ZM123.703 81.5658H123.348V79.4553H123.703V81.5658ZM123.703 77.3529H123.348V75.2424H123.703V77.3529ZM123.703 73.1399H123.348V71.0294H123.703V73.1399ZM123.703 68.927H123.348V66.8165H123.703V68.927ZM123.703 64.7141H123.348V62.6036H123.703V64.7141ZM123.703 60.493H123.348V58.3825H123.703V60.493ZM123.703 56.2801H123.348V54.1777H123.703V56.2801ZM123.703 52.0672H123.348V49.9567H123.703V52.0672ZM123.703 47.8542H123.348V45.7437H123.703V47.8542ZM123.703 43.6413H123.348V41.5308H123.703V43.6413ZM123.703 39.4284H123.348V37.3178H123.703V39.4284ZM123.703 35.2073H123.348V33.0968H123.703V35.2073ZM123.703 30.9944H123.348V28.8839H123.703V30.9944ZM123.703 26.7815H123.348V24.6709H123.703V26.7815ZM123.703 22.5685H123.348V20.458H123.703V22.5685Z" fill="#708FFF"/>
<path d="M123.704 89.143H122.45V88.7872H123.348V87.8896H123.704V89.143Z" fill="#708FFF"/>
<path d="M120.34 89.1429H118.229V88.7871H120.34V89.1429ZM116.119 89.1429H114.008V88.7871H116.119V89.1429ZM111.906 89.1429H109.795V88.7871H111.906V89.1429Z" fill="#708FFF"/>
<path d="M107.685 88.7871H106.609V89.1429H107.685V88.7871Z" fill="#708FFF"/>
<path d="M154.051 29.0859H153.695V30.1614H154.051V29.0859Z" fill="#708FFF"/>
<path d="M154.059 50.5709H153.703V48.5332H154.059V50.5709ZM154.059 46.4874H153.703V44.4496H154.059V46.4874ZM154.059 42.4038H153.703V40.3661H154.059V42.4038ZM154.059 38.3283H153.703V36.2906H154.059V38.3283ZM154.059 34.2448H153.703V32.207H154.059V34.2448Z" fill="#708FFF"/>
<path d="M154.059 53.8706H152.798V53.5148H153.695V52.6172H154.059V53.8706Z" fill="#708FFF"/>
<path d="M150.663 53.8704H148.528V53.5146H150.663V53.8704ZM146.393 53.8704H144.259V53.5146H146.393V53.8704ZM142.124 53.8704H139.989V53.5146H142.124V53.8704ZM137.854 53.8704H135.72V53.5146H137.854V53.8704ZM133.577 53.8704H131.442V53.5146H133.577V53.8704ZM129.307 53.8704H127.172V53.5146H129.307V53.8704Z" fill="#708FFF"/>
<path d="M125.038 53.5146H123.962V53.8704H125.038V53.5146Z" fill="#708FFF"/>
<path d="M168.412 46.8516H139.342V60.5012H168.412V46.8516Z" fill="#708FFF"/>
<path d="M168.412 46.8516H139.342V47.2397H168.412V46.8516Z" fill="#91A9FF"/>
<path d="M167.316 59.3994V47.9492L140.437 47.9492V59.3994L167.316 59.3994Z" fill="#ABC2FE"/>
<path d="M140.434 50.846C142.035 50.846 143.329 49.5522 143.329 47.9512H140.434V50.846Z" fill="#708FFF"/>
<path d="M167.313 50.846C165.712 50.846 164.418 49.5522 164.418 47.9512H167.313V50.846Z" fill="#708FFF"/>
<path d="M140.434 56.5068C142.035 56.5068 143.329 57.8006 143.329 59.4017H140.434V56.5068Z" fill="#708FFF"/>
<path d="M167.313 56.5068C165.712 56.5068 164.418 57.8006 164.418 59.4017H167.313V56.5068Z" fill="#708FFF"/>
<path d="M153.873 58.116C156.325 58.116 158.313 56.1284 158.313 53.6767C158.313 51.2249 156.325 49.2373 153.873 49.2373C151.421 49.2373 149.434 51.2249 149.434 53.6767C149.434 56.1284 151.421 58.116 153.873 58.116Z" fill="#708FFF"/>
<path d="M155.806 54.9139C155.806 53.7819 154.908 53.4908 154.173 53.1997V51.8493C154.326 51.8897 154.456 51.9705 154.569 52.0838C154.739 52.2697 155.022 52.3021 155.24 52.1727C155.539 51.9948 155.604 51.5824 155.361 51.3317C155.046 50.9921 154.633 50.8061 154.173 50.7495V50.3776C154.173 50.1754 154.011 50.0137 153.809 50.0137C153.607 50.0137 153.445 50.1754 153.445 50.3776V50.7414C152.669 50.8789 152.014 51.4207 152.014 52.3506C152.014 53.3533 152.741 53.7414 153.445 54.0245V55.4557C153.243 55.3991 153.089 55.294 152.96 55.1484C152.782 54.9463 152.499 54.8897 152.264 55.0271L152.224 55.0514C151.933 55.2212 151.86 55.6013 152.07 55.86C152.394 56.2563 152.863 56.5069 153.445 56.5797V56.9679C153.445 57.17 153.607 57.3317 153.809 57.3317C154.011 57.3317 154.173 57.17 154.173 56.9679V56.5959C155.111 56.4827 155.806 55.8924 155.806 54.9139ZM153.121 52.3668C153.121 52.1484 153.235 51.9705 153.445 51.8735V52.8519C153.21 52.7064 153.121 52.5608 153.121 52.3668ZM154.173 55.4881V54.3236C154.504 54.4773 154.69 54.639 154.69 54.922C154.682 55.1727 154.528 55.4072 154.173 55.4881Z" fill="#E2EAFE"/>
<path d="M106.609 55.1643C106.609 55.1643 111.041 52.4554 110.725 46.7788C110.402 41.1023 105.445 42.6306 105.445 42.6306L106.609 55.1643Z" fill="#FFB1D0"/>
<path d="M38.3127 96.5583C42.8653 75.623 45.9381 70.189 47.1187 66.1701C48.2993 62.1513 58.2211 38.782 62.4745 39.3642C66.7278 39.9464 66.0163 43.4559 64.3667 50.3211C62.7171 57.1863 58.9569 66.1621 58.9569 66.1621L59.3936 83.7335L38.3127 96.5583Z" fill="#FFB1D0"/>
<path d="M38.7817 94.8922L59.1591 74.5796L58.9489 66.1698C58.9489 66.1698 60.2507 63.0566 61.6577 59.0944L58.9489 42.0566C58.9489 42.0566 57.3478 63.6469 56.6524 68.4744L49.0998 72.0728C49.0998 72.0728 44.0135 77.9354 41.5715 83.6119C40.7952 86.1429 39.7602 91.0108 38.7817 94.8922Z" fill="#FE7592"/>
<path d="M106.997 86.41C106.997 86.41 111.291 81.7119 112.731 76.8682C114.162 72.0245 114.825 70.1081 112.011 67.9571C110.305 66.6553 104.313 77.9356 104.313 77.9356V89.038L106.997 86.41Z" fill="#FFB1D0"/>
<path d="M106.294 59.1354C106.294 59.1354 110.143 57.6637 111.574 60.6475C113.005 63.6313 112.868 66.1381 109.86 70.1084C106.852 74.0788 104.313 77.9359 104.313 77.9359L106.294 59.1354Z" fill="#FFB1D0"/>
<path d="M110.717 68.3534C110.717 68.3534 107.628 71.0461 107.369 74.7658C107.111 78.4854 108.38 84.728 108.38 84.728L102.485 91.7146L104.927 60.0003L106.286 59.127C106.286 59.127 106.464 68.5151 107.24 68.8709C108.016 69.2348 110.717 68.3534 110.717 68.3534Z" fill="#FE7592"/>
<path d="M58.4556 123.098L66.4852 128.297C66.4852 128.297 79.7143 123.098 84.9057 116.726C90.1052 110.346 100.731 95.2323 100.731 95.2323L66.2507 75.332L56.6604 76.1892L52.3181 99.0005L58.4556 123.098Z" fill="#FFB1D0"/>
<path d="M100.577 95.1347L70.3262 77.6846L59.5715 81.0808L55.1079 84.3638L53.6443 92.0458L55.9408 101.814L62.337 113.636C62.337 113.636 64.8195 112.035 65.6524 109.852L92.2642 107.03C95.8869 102.081 99.3316 97.2129 100.399 95.7007L100.577 95.1347Z" fill="#FE7592"/>
<path d="M37.399 117.187L22.0432 144.461H61.0594L66.4853 128.289L58.957 117.187H37.399Z" fill="#FFB1D0"/>
<path d="M67.5444 5.59569V26.3774H56.3611V5.59569C56.3611 4.05121 56.9837 2.65229 58.0026 1.64151C59.0053 0.622641 60.4042 0 61.9487 0C65.0376 0 67.5444 2.50674 67.5444 5.59569Z" fill="#ABC2FE"/>
<path d="M56.3613 13.2861V20.7821C56.3613 22.3266 55.7386 23.7255 54.7198 24.7363C53.709 25.747 52.3101 26.3778 50.7656 26.3778C47.6766 26.3778 45.178 23.871 45.178 20.7902V13.2942H56.3613V13.2861Z" fill="white"/>
<path d="M58.9408 18.2021V26.3774H50.7656C52.3101 26.3774 53.709 25.7547 54.7198 24.7358C55.7306 23.7251 56.3613 22.3261 56.3613 20.7817V18.2021H58.9408Z" fill="#ABC2FE"/>
<path d="M102.776 106.415H62.6846C60.6145 106.415 58.9407 104.741 58.9407 102.671V18.3152C58.9407 16.2451 60.6145 14.5713 62.6846 14.5713H102.776C104.846 14.5713 106.52 16.2451 106.52 18.3152V102.663C106.52 104.733 104.846 106.415 102.776 106.415Z" stroke="#231F20" stroke-width="1.2386" stroke-miterlimit="10"/>
<path d="M61.0513 100.067V20.9187C61.0513 20.3365 61.5284 19.8594 62.1106 19.8594H103.35C103.933 19.8594 104.41 20.3365 104.41 20.9187V100.067C104.41 100.649 103.933 101.126 103.35 101.126H62.1106C61.5284 101.126 61.0513 100.649 61.0513 100.067Z" stroke="#231F20" stroke-width="1.2386" stroke-miterlimit="10"/>
<path d="M102.776 106.415H62.6846C60.6145 106.415 58.9407 104.741 58.9407 102.671V18.3152C58.9407 16.2451 60.6145 14.5713 62.6846 14.5713H102.776C104.846 14.5713 106.52 16.2451 106.52 18.3152V102.663C106.52 104.733 104.846 106.415 102.776 106.415Z" fill="url(#paint0_linear_12978_161168)"/>
<path d="M61.0513 100.067V20.9187C61.0513 20.3365 61.5284 19.8594 62.1106 19.8594H103.35C103.933 19.8594 104.41 20.3365 104.41 20.9187V100.067C104.41 100.649 103.933 101.126 103.35 101.126H62.1106C61.5284 101.126 61.0513 100.649 61.0513 100.067Z" fill="#D6E3FF"/>
<path d="M82.4555 18.267C83.112 18.267 83.6442 17.7348 83.6442 17.0783C83.6442 16.4218 83.112 15.8896 82.4555 15.8896C81.799 15.8896 81.2668 16.4218 81.2668 17.0783C81.2668 17.7348 81.799 18.267 82.4555 18.267Z" stroke="#231F20" stroke-width="1.2386" stroke-miterlimit="10"/>
<path d="M82.4555 18.267C83.112 18.267 83.6442 17.7348 83.6442 17.0783C83.6442 16.4218 83.112 15.8896 82.4555 15.8896C81.799 15.8896 81.2668 16.4218 81.2668 17.0783C81.2668 17.7348 81.799 18.267 82.4555 18.267Z" fill="#221473"/>
<path opacity="0.2" d="M106.52 18.3155C106.52 16.5931 105.364 15.1456 103.779 14.709L68.4663 105.332L84.2588 106.084L106.528 35.8707V18.3155H106.52Z" fill="white"/>
<path opacity="0.2" d="M95.6846 14.5713H92.2641L92.1752 14.7007L58.9407 99.9783V102.663C58.9407 103.852 59.4905 104.911 60.3558 105.598L66.6711 106.083L95.6846 14.5713Z" fill="white"/>
<path d="M97.8276 94.3501H67.6335C64.7629 94.3501 62.4341 92.0213 62.4341 89.1506C62.4341 86.28 64.7629 83.9512 67.6335 83.9512H97.8195C100.69 83.9512 103.019 86.28 103.019 89.1506C103.027 92.0213 100.698 94.3501 97.8276 94.3501Z" fill="#FEAB00"/>
<path d="M70.957 88.5117C70.957 89.377 70.294 89.9834 69.453 89.9834H68.8951V91.2449H67.8196V87.04H69.453C70.3021 87.04 70.957 87.6465 70.957 88.5117ZM69.8816 88.5117C69.8816 88.2449 69.6956 88.067 69.453 88.067H68.8951V88.9646H69.453C69.6956 88.9646 69.8816 88.7786 69.8816 88.5117Z" fill="white"/>
<path d="M73.9812 90.6462H72.5823L72.4044 91.2527H71.24L72.6308 87.0479H73.9408L75.3316 91.2527H74.1753L73.9812 90.6462ZM73.6982 89.7163L73.2696 88.2851L72.8492 89.7163H73.6982Z" fill="white"/>
<path d="M77.8465 89.6357V91.253H76.7711V89.6438L75.356 87.04H76.5608L77.3047 88.6007L78.0568 87.04H79.2616L77.8465 89.6357Z" fill="white"/>
<path d="M85.5608 87.04V91.2449H84.7279L83.24 89.1263V91.2449H82.1646V87.04H82.9974L84.4853 89.1586V87.04H85.5608Z" fill="white"/>
<path d="M86.6606 89.1504C86.6606 87.9132 87.6391 86.959 88.8682 86.959C90.0973 86.959 91.0757 87.9132 91.0757 89.1504C91.0757 90.3876 90.0973 91.3417 88.8682 91.3417C87.6391 91.3417 86.6606 90.3876 86.6606 89.1504ZM90.0084 89.1504C90.0084 88.4792 89.5151 88.0102 88.8682 88.0102C88.2213 88.0102 87.728 88.4792 87.728 89.1504C87.728 89.8215 88.2213 90.2905 88.8682 90.2905C89.5151 90.2905 90.0084 89.8215 90.0084 89.1504Z" fill="white"/>
<path d="M91.666 87.04H92.8304L93.4773 89.6923L94.2294 87.04H95.0784L95.8304 89.6923L96.4854 87.04H97.6418L96.4693 91.2449H95.3291L94.6579 88.8675L93.9868 91.2449H92.8466L91.666 87.04Z" fill="white"/>
<path d="M90.7384 68.8192C95.1626 64.3951 95.1626 57.2221 90.7384 52.798C86.3143 48.3738 79.1413 48.3738 74.7172 52.798C70.293 57.2221 70.293 64.3951 74.7172 68.8192C79.1413 73.2434 86.3143 73.2434 90.7384 68.8192Z" fill="white"/>
<path d="M82.7305 62.8388C85.6378 62.8388 87.9946 60.482 87.9946 57.5747C87.9946 54.6674 85.6378 52.3105 82.7305 52.3105C79.8231 52.3105 77.4663 54.6674 77.4663 57.5747C77.4663 60.482 79.8231 62.8388 82.7305 62.8388Z" fill="#482AF6"/>
<path d="M82.7304 72.1377C85.5525 72.1377 88.132 71.1027 90.1132 69.3965C88.9973 66.3965 86.1105 64.2617 82.7304 64.2617C79.3423 64.2617 76.4555 66.3965 75.3477 69.3965C77.3288 71.1027 79.9083 72.1377 82.7304 72.1377Z" fill="#482AF6"/>
<path d="M89.0054 75.744H76.4555C76.0593 75.744 75.7358 75.4206 75.7358 75.0244C75.7358 74.6281 76.0593 74.3047 76.4555 74.3047H89.0135C89.4097 74.3047 89.7331 74.6281 89.7331 75.0244C89.7251 75.4206 89.4016 75.744 89.0054 75.744Z" fill="white"/>
<path d="M86.5066 78.7929H78.946C78.5498 78.7929 78.2263 78.4694 78.2263 78.0732C78.2263 77.677 78.5498 77.3535 78.946 77.3535H86.5066C86.9029 77.3535 87.2263 77.677 87.2263 78.0732C87.2263 78.4694 86.9029 78.7929 86.5066 78.7929Z" fill="white"/>
<path d="M63 37.4231C63 35.3611 64.6658 33.6953 66.7278 33.6953H99.2992C101.361 33.6953 103.027 35.3611 103.027 37.4231C103.027 39.4851 101.361 41.1508 99.2992 41.1508H66.7278C64.6739 41.1508 63 39.477 63 37.4231Z" fill="#708FFF"/>
<path d="M99.2991 39.6553H66.7277C65.4985 39.6553 64.4958 38.6526 64.4958 37.4154C64.4958 36.1863 65.4985 35.1836 66.7277 35.1836H99.2991C100.528 35.1836 101.531 36.1863 101.531 37.4154C101.531 38.6526 100.528 39.6553 99.2991 39.6553Z" fill="#3955BF"/>
<path d="M67.5444 0V5.5876C67.5444 2.49865 65.0376 0 61.9568 0H67.5444Z" fill="white"/>
<path d="M67.5444 0V39.655H98.4824V5.69272C98.4824 2.54717 95.9353 0 92.7897 0H67.5444Z" fill="white"/>
<path d="M77.2722 17.8469H71.2479C70.9326 17.8469 70.6819 17.5882 70.6819 17.2809C70.6819 16.9655 70.9406 16.7148 71.2479 16.7148H77.2722C77.5875 16.7148 77.8382 16.9736 77.8382 17.2809C77.8463 17.5882 77.5875 17.8469 77.2722 17.8469Z" fill="#7FA0FF"/>
<path d="M85.9648 11.1028H79.9405C79.6252 11.1028 79.3745 10.844 79.3745 10.5367C79.3745 10.2214 79.6333 9.9707 79.9405 9.9707H85.9648C86.2802 9.9707 86.5308 10.2295 86.5308 10.5367C86.5308 10.8521 86.2802 11.1028 85.9648 11.1028Z" fill="#7FA0FF"/>
<path d="M94.6575 17.8469H93.0726C92.7573 17.8469 92.5066 17.5882 92.5066 17.2809C92.5066 16.9655 92.7654 16.7148 93.0726 16.7148H94.6494C94.9648 16.7148 95.2155 16.9736 95.2155 17.2809C95.2236 17.5882 94.9729 17.8469 94.6575 17.8469Z" fill="#7FA0FF"/>
<path d="M74.5228 20.0862H71.256C70.9406 20.0862 70.6899 19.8274 70.6899 19.5201C70.6899 19.2048 70.9487 18.9541 71.256 18.9541H74.5228C74.8382 18.9541 75.0889 19.2129 75.0889 19.5201C75.0889 19.8355 74.8382 20.0862 74.5228 20.0862Z" fill="#7FA0FF"/>
<path d="M80.6198 20.0862H76.3988C76.0834 20.0862 75.8328 19.8274 75.8328 19.5201C75.8328 19.2048 76.0915 18.9541 76.3988 18.9541H80.6198C80.9352 18.9541 81.1859 19.2129 81.1859 19.5201C81.1859 19.8355 80.9352 20.0862 80.6198 20.0862Z" fill="#7FA0FF"/>
<path d="M94.6575 20.0862H93.0726C92.7573 20.0862 92.5066 19.8274 92.5066 19.5201C92.5066 19.2048 92.7654 18.9541 93.0726 18.9541H94.6494C94.9648 18.9541 95.2155 19.2129 95.2155 19.5201C95.2236 19.8355 94.9729 20.0862 94.6575 20.0862Z" fill="#7FA0FF"/>
<path d="M76.1401 22.3264H71.256C70.9406 22.3264 70.6899 22.0677 70.6899 21.7604C70.6899 21.445 70.9487 21.1943 71.256 21.1943H76.1401C76.4554 21.1943 76.7061 21.4531 76.7061 21.7604C76.7061 22.0757 76.4474 22.3264 76.1401 22.3264Z" fill="#7FA0FF"/>
<path d="M79.1077 22.3264H78.0079C77.6926 22.3264 77.4419 22.0677 77.4419 21.7604C77.4419 21.445 77.7007 21.1943 78.0079 21.1943H79.1077C79.423 21.1943 79.6737 21.4531 79.6737 21.7604C79.6818 22.0757 79.423 22.3264 79.1077 22.3264Z" fill="#7FA0FF"/>
<path d="M94.6575 22.3264H93.0726C92.7573 22.3264 92.5066 22.0677 92.5066 21.7604C92.5066 21.445 92.7654 21.1943 93.0726 21.1943H94.6494C94.9648 21.1943 95.2155 21.4531 95.2155 21.7604C95.2236 22.0757 94.9729 22.3264 94.6575 22.3264Z" fill="#7FA0FF"/>
<path d="M77.2722 24.5666H71.2479C70.9326 24.5666 70.6819 24.3079 70.6819 24.0006C70.6819 23.6852 70.9406 23.4346 71.2479 23.4346H77.2722C77.5875 23.4346 77.8382 23.6933 77.8382 24.0006C77.8463 24.316 77.5875 24.5666 77.2722 24.5666Z" fill="#7FA0FF"/>
<path d="M94.6575 24.5666H93.0726C92.7573 24.5666 92.5066 24.3079 92.5066 24.0006C92.5066 23.6852 92.7654 23.4346 93.0726 23.4346H94.6494C94.9648 23.4346 95.2155 23.6933 95.2155 24.0006C95.2236 24.316 94.9729 24.5666 94.6575 24.5666Z" fill="#7FA0FF"/>
<path d="M74.5228 26.8059H71.256C70.9406 26.8059 70.6899 26.5471 70.6899 26.2399C70.6899 25.9245 70.9487 25.6738 71.256 25.6738H74.5228C74.8382 25.6738 75.0889 25.9326 75.0889 26.2399C75.0889 26.5552 74.8382 26.8059 74.5228 26.8059Z" fill="#7FA0FF"/>
<path d="M80.6198 26.8059H76.3988C76.0834 26.8059 75.8328 26.5471 75.8328 26.2399C75.8328 25.9245 76.0915 25.6738 76.3988 25.6738H80.6198C80.9352 25.6738 81.1859 25.9326 81.1859 26.2399C81.1859 26.5552 80.9352 26.8059 80.6198 26.8059Z" fill="#7FA0FF"/>
<path d="M94.6575 26.8059H93.0726C92.7573 26.8059 92.5066 26.5471 92.5066 26.2399C92.5066 25.9245 92.7654 25.6738 93.0726 25.6738H94.6494C94.9648 25.6738 95.2155 25.9326 95.2155 26.2399C95.2236 26.5552 94.9729 26.8059 94.6575 26.8059Z" fill="#7FA0FF"/>
<path d="M76.1401 34.3909H71.256C70.9406 34.3909 70.6899 34.1321 70.6899 33.8248C70.6899 33.5095 70.9487 33.2588 71.256 33.2588H76.1401C76.4554 33.2588 76.7061 33.5175 76.7061 33.8248C76.7061 34.1402 76.4474 34.3909 76.1401 34.3909Z" fill="#7FA0FF"/>
<path d="M79.1077 34.3909H78.0079C77.6926 34.3909 77.4419 34.1321 77.4419 33.8248C77.4419 33.5095 77.7007 33.2588 78.0079 33.2588H79.1077C79.423 33.2588 79.6737 33.5175 79.6737 33.8248C79.6818 34.1402 79.423 34.3909 79.1077 34.3909Z" fill="#7FA0FF"/>
<path d="M95.3449 34.1807C95.3449 33.3074 94.6576 33.0891 94.0916 32.8627V31.8276C94.2129 31.86 94.3099 31.9166 94.3908 32.0055C94.5201 32.143 94.7385 32.1753 94.9002 32.0783C95.1347 31.9408 95.1751 31.6255 94.9972 31.4314C94.7546 31.1726 94.4393 31.0271 94.0835 30.9786V30.7036C94.0835 30.55 93.9622 30.4287 93.8085 30.4287C93.6549 30.4287 93.5336 30.55 93.5336 30.7036V30.9867C92.9352 31.0918 92.4339 31.5042 92.4339 32.2239C92.4339 32.9921 92.9918 33.2912 93.5336 33.5096V34.6093C93.38 34.5608 93.2587 34.488 93.1616 34.3748C93.0242 34.2212 92.8058 34.1807 92.628 34.2778L92.5956 34.2939C92.3773 34.4233 92.3126 34.7144 92.4743 34.9166C92.7169 35.2158 93.0808 35.4098 93.5336 35.4664V35.7656C93.5336 35.9193 93.6549 36.0406 93.8085 36.0406C93.9622 36.0406 94.0835 35.9193 94.0835 35.7656V35.4745C94.8112 35.3856 95.3449 34.9328 95.3449 34.1807ZM93.2829 32.2239C93.2829 32.054 93.3719 31.9166 93.5336 31.8438V32.5958C93.3557 32.4826 93.2829 32.3775 93.2829 32.2239ZM94.0916 34.6174V33.7279C94.3422 33.8492 94.4878 33.9705 94.4878 34.1888C94.4878 34.3748 94.3665 34.5608 94.0916 34.6174Z" fill="#7FA0FF"/>
<path d="M95.2237 28.7793H70.6819V29.0866H95.2237V28.7793Z" fill="#7FA0FF"/>
<path d="M95.2237 14.5557H70.6819V14.8629H95.2237V14.5557Z" fill="#7FA0FF"/>
<path d="M88.5444 4.375H77.3612C76.504 4.375 75.8086 5.07042 75.8086 5.92756C75.8086 6.7847 76.504 7.48012 77.3612 7.48012H88.5444C89.4016 7.48012 90.097 6.7847 90.097 5.92756C90.097 5.07042 89.4016 4.375 88.5444 4.375Z" fill="#7FA0FF"/>
<path d="M37.3989 117.186C37.3989 117.186 35.7816 101.127 39.566 92.8545C43.3423 84.5903 47.8301 75.372 49.7223 73.4879C51.6145 71.5957 57.5175 72.3073 63.6549 71.5957C69.7924 70.8841 75.849 68.0539 76.2452 72.3073C76.6415 76.5607 70.973 81.6065 64.8355 82.2696C58.6981 82.9327 57.8975 85.0917 57.8975 85.0917L55.7789 92.1429C55.7789 92.1429 68.8544 109.86 58.4636 123.081L37.3989 117.186Z" fill="#FFB1D0"/>
<path d="M72.0243 70.1074C72.0243 70.1074 72.5014 73.0508 71.1995 73.9565C70.3828 74.5225 68.6685 74.9187 67.4879 75.1371C66.7925 75.2665 66.1132 74.8217 65.9596 74.1263C65.7493 73.1802 65.531 71.9268 65.6604 71.3042L72.0243 70.1074Z" fill="#FFD4E5"/>
<path d="M68.3128 149.951C68.0459 147.323 65.992 133.035 52.4475 129.404C37.5122 125.401 21.9058 129.735 21.9058 129.735L16.6093 132.606C15.9462 132.97 15.3721 133.479 14.9435 134.11L4.17261 149.951H68.3128Z" fill="#FFC31B"/>
<path d="M50.4098 133.277C62.3451 138.016 67.2292 147.816 68.1753 149.951H68.5392L72.55 141.056C72.55 141.056 72.1214 131.474 55.9165 122.053C39.7117 112.633 26.7494 119.951 26.7494 119.951L21.9058 129.743C21.9058 129.735 36.9705 127.94 50.4098 133.277Z" fill="#E6EEFF"/>
<path d="M31.2372 122.434C29.5068 122.038 26.8221 127.359 29.5714 127.763C32.3208 128.159 33.938 123.057 31.2372 122.434Z" fill="#FFC31B"/>
<path d="M128.846 41.4748H118.213C117.073 41.4748 116.143 40.5448 116.143 39.4047V28.7713C116.143 27.6311 117.073 26.7012 118.213 26.7012H128.846C129.986 26.7012 130.916 27.6311 130.916 28.7713V39.4047C130.916 40.5529 129.986 41.4748 128.846 41.4748Z" fill="#FFD769"/>
<path d="M122.167 30.2354C120.792 30.2354 119.668 31.3593 119.668 32.734C119.668 32.9281 119.83 33.0898 120.024 33.0898C120.218 33.0898 120.38 32.9281 120.38 32.734C120.38 31.7475 121.181 30.9469 122.167 30.9469C122.361 30.9469 122.523 30.7852 122.523 30.5911C122.531 30.3971 122.369 30.2354 122.167 30.2354Z" fill="white"/>
<path d="M128.596 37.9412L126.348 35.6932C126.21 35.5557 125.984 35.5557 125.846 35.6932L125.741 35.7983L125.191 35.2485C125.757 34.5692 126.105 33.6878 126.105 32.7336C126.105 30.5665 124.342 28.8037 122.175 28.8037C120.008 28.8037 118.245 30.5665 118.245 32.7336C118.245 34.9007 120.008 36.6635 122.175 36.6635C123.129 36.6635 124.003 36.3239 124.69 35.7498L125.24 36.2997L125.135 36.4048C124.997 36.5423 124.997 36.7687 125.135 36.9061L127.383 39.1541C127.52 39.2916 127.698 39.3644 127.884 39.3644C128.07 39.3644 128.256 39.2916 128.386 39.1541L128.596 38.9439C128.733 38.8064 128.806 38.6285 128.806 38.4425C128.806 38.2565 128.733 38.0786 128.596 37.9412ZM118.957 32.7336C118.957 30.9627 120.396 29.5234 122.167 29.5234C123.938 29.5234 125.377 30.9627 125.377 32.7336C125.377 33.615 125.022 34.4075 124.448 34.9897C124.439 34.9978 124.439 34.9978 124.431 35.0059C124.423 35.014 124.423 35.014 124.415 35.022C123.833 35.5962 123.041 35.952 122.159 35.952C120.396 35.952 118.957 34.5045 118.957 32.7336ZM128.094 38.4506L127.884 38.6609L125.887 36.6635L125.992 36.5584L126.097 36.4533L128.094 38.4506Z" fill="white"/>
<path d="M159.194 83.9269H148.561C147.42 83.9269 146.49 82.997 146.49 81.8568V71.2234C146.49 70.0832 147.42 69.1533 148.561 69.1533H159.194C160.334 69.1533 161.264 70.0832 161.264 71.2234V81.8568C161.264 82.997 160.334 83.9269 159.194 83.9269Z" fill="#FFD769"/>
<path d="M153.873 81.8814C150.93 81.8814 148.528 79.4879 148.528 76.5364C148.528 73.593 150.922 71.1914 153.873 71.1914C156.825 71.1914 159.218 73.5849 159.218 76.5364C159.218 79.4879 156.825 81.8814 153.873 81.8814ZM153.873 71.9111C151.318 71.9111 149.24 73.9892 149.24 76.5445C149.24 79.0998 151.318 81.1779 153.873 81.1779C156.429 81.1779 158.507 79.0998 158.507 76.5445C158.507 73.9892 156.429 71.9111 153.873 71.9111Z" fill="white"/>
<path d="M153.873 75.1133C153.283 75.1133 152.806 74.6362 152.806 74.0459C152.806 73.4556 153.283 72.9785 153.873 72.9785C154.464 72.9785 154.941 73.4556 154.941 74.0459C154.941 74.6362 154.464 75.1133 153.873 75.1133ZM153.873 73.6901C153.679 73.6901 153.518 73.8518 153.518 74.0459C153.518 74.24 153.679 74.4017 153.873 74.4017C154.067 74.4017 154.229 74.24 154.229 74.0459C154.229 73.8518 154.075 73.6901 153.873 73.6901Z" fill="white"/>
<path d="M153.873 80.1029C153.283 80.1029 152.806 79.6258 152.806 79.0355V76.5449C152.806 75.9546 153.283 75.4775 153.873 75.4775C154.464 75.4775 154.941 75.9546 154.941 76.5449V79.0355C154.941 79.6258 154.464 80.1029 153.873 80.1029ZM153.873 76.181C153.679 76.181 153.518 76.3428 153.518 76.5368V79.0274C153.518 79.2215 153.679 79.3832 153.873 79.3832C154.067 79.3832 154.229 79.2215 154.229 79.0274V76.5368C154.229 76.3428 154.075 76.181 153.873 76.181Z" fill="white"/>
<path d="M128.846 61.0678H118.213C117.073 61.0678 116.143 60.1379 116.143 58.9977V48.3562C116.143 47.216 117.073 46.2861 118.213 46.2861H128.846C129.986 46.2861 130.916 47.216 130.916 48.3562V58.9896C130.916 60.1379 129.986 61.0678 128.846 61.0678Z" fill="#ABC2FE"/>
<path d="M128.07 54.7363C128.07 54.4128 127.9 54.1298 127.65 53.9681C127.722 53.8387 127.771 53.6851 127.771 53.5233C127.771 53.022 127.367 52.6177 126.865 52.6177H123.833V50.1918C123.833 49.6904 123.429 49.2861 122.927 49.2861H122.604C122.288 49.2861 122.03 49.5206 121.997 49.836C121.965 50.2241 121.844 50.96 121.456 51.5422C121.1 52.0678 120.849 52.5934 120.695 52.9573C120.631 52.933 120.566 52.9249 120.493 52.9249H119.588C119.256 52.9249 118.981 53.1999 118.981 53.5314V57.4694C118.981 57.801 119.256 58.0759 119.588 58.0759H120.493C120.784 58.0759 121.027 57.8737 121.084 57.5988C121.431 57.8252 121.908 58.0759 122.313 58.0759H126.251C126.752 58.0759 127.156 57.6716 127.156 57.1702C127.156 57.0489 127.132 56.9357 127.092 56.8306C127.48 56.7255 127.763 56.3697 127.763 55.9573C127.763 55.7956 127.722 55.6419 127.642 55.5125C127.9 55.3427 128.07 55.0597 128.07 54.7363ZM120.493 57.4613H119.588V53.5233H120.493V57.4613ZM126.857 56.2565H126.251H125.644C125.474 56.2565 125.345 56.394 125.345 56.5557C125.345 56.7255 125.483 56.8549 125.644 56.8549H126.251C126.421 56.8549 126.55 56.9923 126.55 57.1541C126.55 57.3239 126.412 57.4532 126.251 57.4532H122.313C121.989 57.4532 121.439 57.1136 121.1 56.8549V53.5718C121.164 53.3859 121.456 52.6177 121.957 51.8737C122.418 51.1783 122.555 50.3293 122.596 49.8845H122.919C123.089 49.8845 123.218 50.022 123.218 50.1837V52.9088C123.218 53.0786 123.356 53.208 123.518 53.208H126.849C127.019 53.208 127.148 53.3454 127.148 53.5072C127.148 53.677 127.011 53.8064 126.849 53.8064H125.943H125.644C125.474 53.8064 125.345 53.9438 125.345 54.1055C125.345 54.2753 125.483 54.4047 125.644 54.4047H125.943H126.849H127.148C127.318 54.4047 127.448 54.5422 127.448 54.7039C127.448 54.8656 127.31 55.0031 127.148 55.0031H126.849H125.943H125.644C125.474 55.0031 125.345 55.1406 125.345 55.3023C125.345 55.4721 125.483 55.6015 125.644 55.6015H125.943H126.849C127.019 55.6015 127.148 55.739 127.148 55.9007C127.164 56.119 127.027 56.2565 126.857 56.2565Z" fill="white"/>
<path d="M125.474 19.9894H121.569C121.148 19.9894 120.809 19.6497 120.809 19.2292V15.3236C120.809 14.9031 121.148 14.5635 121.569 14.5635H125.474C125.895 14.5635 126.234 14.9031 126.234 15.3236V19.2292C126.234 19.6497 125.895 19.9894 125.474 19.9894Z" fill="#ABC2FE"/>
<path d="M155.83 95.7569H151.925C151.504 95.7569 151.165 95.4173 151.165 94.9968V91.0912C151.165 90.6707 151.504 90.3311 151.925 90.3311H155.83C156.251 90.3311 156.59 90.6707 156.59 91.0912V94.9968C156.59 95.4173 156.251 95.7569 155.83 95.7569Z" fill="#ABC2FE"/>
<path d="M156 34.3668H151.747C151.286 34.3668 150.922 33.9949 150.922 33.542V29.2887C150.922 28.8277 151.294 28.4639 151.747 28.4639H156C156.461 28.4639 156.825 28.8358 156.825 29.2887V33.542C156.833 34.003 156.461 34.3668 156 34.3668Z" fill="#FFD769"/>
<path d="M126.72 79.4718H120.323C119.636 79.4718 119.078 78.9138 119.078 78.2265V71.8302C119.078 71.1429 119.636 70.585 120.323 70.585H126.72C127.407 70.585 127.965 71.1429 127.965 71.8302V78.2265C127.973 78.9138 127.415 79.4718 126.72 79.4718Z" fill="#FFD769"/>
<path d="M36.7683 7.0831H32.8626C32.4422 7.0831 32.1025 6.74348 32.1025 6.32299V2.41733C32.1025 1.99685 32.4422 1.65723 32.8626 1.65723H36.7683C37.1888 1.65723 37.5284 1.99685 37.5284 2.41733V6.32299C37.5284 6.74348 37.1888 7.0831 36.7683 7.0831Z" fill="#FFD769"/>
<path d="M38.0136 23.377H31.6174C30.93 23.377 30.3721 22.8191 30.3721 22.1317V15.7355C30.3721 15.0482 30.93 14.4902 31.6174 14.4902H38.0136C38.7009 14.4902 39.2589 15.0482 39.2589 15.7355V22.1317C39.2669 22.8191 38.709 23.377 38.0136 23.377Z" fill="#FFD769"/>
<path d="M34.2857 66.5823H33.9299V64.4313H34.2857V66.5823ZM34.2857 62.2723H33.9299V60.1214H34.2857V62.2723ZM34.2857 57.9623H33.9299V55.8114H34.2857V57.9623ZM34.2857 53.6604H33.9299V51.5095H34.2857V53.6604ZM34.2857 49.3505H33.9299V47.1995H34.2857V49.3505ZM34.2857 45.0405H33.9299V42.8896H34.2857V45.0405ZM34.2857 40.7305H33.9299V38.5796H34.2857V40.7305ZM58.9407 37.7386H56.7898V37.3828H58.9407V37.7386ZM54.6307 37.7386H52.4798V37.3828H54.6307V37.7386ZM50.3208 37.7386H48.1698V37.3828H50.3208V37.7386ZM46.0108 37.7386H43.8599V37.3828H46.0108V37.7386ZM41.7008 37.7386H39.5499V37.3828H41.7008V37.7386ZM37.3989 37.7386H35.248V37.3828H37.3989V37.7386Z" fill="#708FFF"/>
<path d="M9.67122 88.1241H9.31543V85.9731H9.67122V88.1241ZM9.67122 83.8141H9.31543V81.6631H9.67122V83.8141ZM9.67122 79.5041H9.31543V77.3532H9.67122V79.5041ZM9.67122 75.2022H9.31543V73.0513H9.67122V75.2022ZM9.67122 70.8923H9.31543V68.7332H9.67122V70.8923ZM9.67122 66.5823H9.31543V64.4313H9.67122V66.5823ZM9.67122 62.2723H9.31543V60.1214H9.67122V62.2723ZM9.67122 57.9623H9.31543V55.8114H9.67122V57.9623ZM9.67122 53.6604H9.31543V51.5095H9.67122V53.6604ZM9.67122 49.3505H9.31543V47.1995H9.67122V49.3505ZM9.67122 45.0405H9.31543V42.8896H9.67122V45.0405ZM9.67122 40.7305H9.31543V38.5796H9.67122V40.7305ZM34.3181 37.7386H32.1672V37.3828H34.3181V37.7386ZM30.0082 37.7386H27.8572V37.3828H30.0082V37.7386ZM25.7063 37.7386H23.5553V37.3828H25.7063V37.7386ZM21.3963 37.7386H19.2453V37.3828H21.3963V37.7386ZM17.0863 37.7386H14.9354V37.3828H17.0863V37.7386ZM12.7763 37.7386H10.6254V37.3828H12.7763V37.7386Z" fill="#708FFF"/>
<path d="M39.4286 70.2287H28.7871C27.647 70.2287 26.717 69.2987 26.717 68.1586V57.5252C26.717 56.385 27.647 55.4551 28.7871 55.4551H39.4205C40.5607 55.4551 41.4906 56.385 41.4906 57.5252V68.1586C41.4987 69.2987 40.5688 70.2287 39.4286 70.2287Z" fill="#ABC2FE"/>
<path d="M34.1081 63.1858C35.6364 63.1858 36.8816 61.9406 36.8816 60.4123C36.8816 58.884 35.6364 57.6387 34.1081 57.6387C32.5798 57.6387 31.3345 58.884 31.3345 60.4123C31.3345 61.9406 32.5798 63.1858 34.1081 63.1858ZM34.1081 58.326C35.2563 58.326 36.1943 59.264 36.1943 60.4123C36.1943 61.5605 35.2563 62.4985 34.1081 62.4985C32.9598 62.4985 32.0218 61.5605 32.0218 60.4123C32.0299 59.264 32.9598 58.326 34.1081 58.326Z" fill="white"/>
<path d="M33.9704 60.7597H34.2454C34.3586 60.7597 34.4556 60.8567 34.4556 60.9699C34.4556 61.0831 34.3586 61.1802 34.2454 61.1802H33.9704C33.8815 61.1802 33.7925 61.1155 33.7683 61.0346C33.7117 60.8486 33.5176 60.7435 33.3397 60.8001C33.1537 60.8567 33.0486 61.0508 33.1052 61.2287C33.1942 61.5441 33.4529 61.7786 33.7683 61.8513C33.7683 61.8594 33.7683 61.8675 33.7683 61.8756C33.7764 61.8999 33.7764 61.916 33.7845 61.9403C33.7925 61.9645 33.8006 61.9807 33.8168 61.9969C33.833 62.0131 33.8411 62.0373 33.8572 62.0454C33.8734 62.0616 33.8896 62.0777 33.9058 62.0858C33.9219 62.102 33.9462 62.1101 33.9624 62.1182C33.9866 62.1263 34.0028 62.1344 34.027 62.1344C34.0513 62.1424 34.0756 62.1424 34.0917 62.1424C34.116 62.1424 34.1403 62.1424 34.1564 62.1344C34.1807 62.1263 34.1969 62.1263 34.2211 62.1182C34.2454 62.1101 34.2616 62.102 34.2777 62.0858C34.2939 62.0697 34.3182 62.0616 34.3343 62.0454C34.3505 62.0292 34.3667 62.0131 34.3748 61.9969C34.3909 61.9807 34.399 61.9565 34.4071 61.9403C34.4152 61.916 34.4233 61.8999 34.4233 61.8756C34.4233 61.8675 34.4233 61.8594 34.4233 61.8513C34.8195 61.7624 35.1187 61.3985 35.1187 60.9699C35.1187 60.4686 34.7144 60.0643 34.213 60.0643H33.9381C33.8249 60.0643 33.7279 59.9672 33.7279 59.854C33.7279 59.7408 33.8249 59.6438 33.9381 59.6438H34.213C34.302 59.6438 34.3828 59.7004 34.4071 59.7893C34.4637 59.9672 34.6659 60.0724 34.8438 60.0077C35.0217 59.9511 35.1268 59.7489 35.0621 59.571C34.9651 59.2718 34.7144 59.0454 34.4071 58.9807C34.4071 58.9726 34.4071 58.9645 34.4071 58.9565C34.399 58.9322 34.399 58.916 34.3909 58.8918C34.3828 58.8675 34.3748 58.8513 34.3586 58.8352C34.3424 58.819 34.3343 58.7947 34.3182 58.7786C34.302 58.7624 34.2858 58.7462 34.2616 58.7381C34.2454 58.722 34.2211 58.7139 34.2049 58.7058C34.1807 58.6977 34.1645 58.6896 34.1403 58.6896C34.0271 58.6654 33.9058 58.7058 33.8249 58.7866C33.8087 58.8028 33.7925 58.819 33.7845 58.8432C33.7683 58.8594 33.7602 58.8837 33.7521 58.8999C33.744 58.9241 33.7359 58.9403 33.7359 58.9645C33.7359 58.9726 33.7359 58.9807 33.7359 58.9888C33.3397 59.0778 33.0405 59.4416 33.0405 59.8702C33.0648 60.3554 33.4691 60.7597 33.9704 60.7597Z" fill="white"/>
<path d="M38.8546 64.4065C38.5635 64.2124 38.1996 64.1801 37.8761 64.3095L35.1349 65.4496C35.143 65.393 35.1511 65.3284 35.1511 65.2717C35.1511 64.6976 34.6821 64.2286 34.1079 64.2286H32.4745C32.1834 64.0426 31.3101 63.5332 30.6389 63.5332C29.8222 63.5332 29.0864 64.2448 29.0055 64.3257C28.9408 64.3903 28.9004 64.4793 28.9004 64.5682V67.6895C28.9004 67.8836 29.054 68.0372 29.2481 68.0372H34.8034C34.868 68.0372 34.9247 68.0211 34.9813 67.9887L39.1457 65.5629C39.2508 65.4982 39.3155 65.385 39.3155 65.2637C39.3155 64.924 39.1376 64.6006 38.8546 64.4065ZM34.7063 67.3499H29.5958V64.7219C29.8222 64.5278 30.2589 64.2205 30.6389 64.2205C31.1241 64.2205 31.9166 64.6814 32.1834 64.8593C32.24 64.8998 32.3047 64.916 32.3775 64.916H34.116C34.3101 64.916 34.4637 65.0696 34.4637 65.2637C34.4637 65.4577 34.3101 65.6114 34.116 65.6114H32.0298C31.8357 65.6114 31.6821 65.765 31.6821 65.9591C31.6821 66.1531 31.8357 66.3068 32.0298 66.3068H34.8034C34.8519 66.3068 34.8923 66.2987 34.9408 66.2825L38.143 64.9483C38.2481 64.8998 38.3694 64.9159 38.4664 64.9806C38.5149 65.013 38.5473 65.0534 38.5796 65.0938L34.7063 67.3499Z" fill="white"/>
<path d="M41.4995 44.0993C45.1879 40.4109 45.1879 34.4309 41.4995 30.7425C37.8111 27.0542 31.8311 27.0542 28.1427 30.7425C24.4544 34.4309 24.4544 40.4109 28.1427 44.0993C31.8311 47.7876 37.8111 47.7876 41.4995 44.0993Z" fill="#FFC31B"/>
<path d="M34.8195 28.8033C39.8977 28.8033 44.0378 32.8141 44.2562 37.8357C44.2642 37.6982 44.2642 37.5607 44.2642 37.4233C44.2642 32.2076 40.0351 27.9785 34.8195 27.9785C29.6039 27.9785 25.3748 32.2076 25.3748 37.4233C25.3748 37.5607 25.3748 37.6982 25.3828 37.8357C25.5931 32.806 29.7413 28.8033 34.8195 28.8033Z" fill="#FFDC7D"/>
<path d="M39.9671 42.5669C42.8091 39.7248 42.8091 35.117 39.9671 32.2749C37.125 29.4328 32.5171 29.4328 29.6751 32.2749C26.833 35.117 26.833 39.7248 29.6751 42.5669C32.5171 45.409 37.125 45.409 39.9671 42.5669Z" fill="#FFAD24"/>
<path d="M37.9812 39.444C37.9812 37.5841 36.5095 37.1071 35.2966 36.63V34.4063C35.5553 34.4709 35.7656 34.6003 35.9435 34.7863C36.2265 35.0855 36.6874 35.1502 37.0432 34.9399C37.5364 34.6488 37.6416 33.9777 37.2453 33.5572C36.7278 33.0073 36.0486 32.692 35.2966 32.5949V32.0046C35.2966 31.6731 35.0297 31.4062 34.6982 31.4062C34.3666 31.4062 34.0998 31.6731 34.0998 32.0046V32.603C32.8302 32.8294 31.7467 33.7189 31.7467 35.2472C31.7467 36.8968 32.9354 37.5275 34.0998 37.9965V40.3496C33.7763 40.2526 33.5095 40.0828 33.2992 39.8483C33.0081 39.5168 32.5391 39.4278 32.1591 39.6461L32.0944 39.6866C31.6254 39.9615 31.496 40.5922 31.8356 41.0127C32.3612 41.6596 33.1375 42.0639 34.0917 42.1933V42.824C34.0917 43.1556 34.3585 43.4224 34.6901 43.4224C35.0216 43.4224 35.2885 43.1556 35.2885 42.824V42.2095C36.841 42.0235 37.9812 41.0532 37.9812 39.444ZM33.5823 35.2715C33.5823 34.9076 33.7682 34.6165 34.116 34.4629V36.0639C33.7197 35.8213 33.5823 35.5868 33.5823 35.2715ZM35.3046 40.3901V38.4817C35.8464 38.7324 36.1537 38.9992 36.1537 39.4602C36.1456 39.8726 35.8949 40.2526 35.3046 40.3901Z" fill="#FFE08A"/>
<path d="M8.9434 98.5879C6.62265 97.7873 4.71429 96.445 3.25877 94.6014C2.12669 93.162 1.27763 91.4235 0.735855 89.4342C-0.161719 86.127 0.113214 83.2321 0.1213 83.1108L0.25068 81.8008H1.67386C3.46901 81.8008 5.11052 81.348 6.54987 80.4504C7.60917 79.7873 8.1833 79.1162 8.23181 79.0596L9.50135 77.79L10.7466 79.0596C10.7952 79.1243 11.3693 79.7954 12.4205 80.4504C13.8598 81.348 15.5014 81.8008 17.2965 81.8008H18.7197L18.8491 83.1108C18.8571 83.2321 19.1321 86.1189 18.2345 89.4342C17.6927 91.4235 16.8518 93.162 15.7116 94.6014C14.2561 96.445 12.3477 97.7793 10.027 98.5879L9.48518 98.7739L8.9434 98.5879Z" fill="#ABC2FE"/>
<path d="M9.49328 79.917C9.49328 79.917 6.8895 83.2566 1.68195 83.2566C1.68195 83.2566 0.606483 94.165 9.49328 97.2377V79.917Z" fill="#708FFF"/>
<path d="M9.49316 79.917C9.49316 79.917 12.0969 83.2566 17.3045 83.2566C17.3045 83.2566 18.38 94.165 9.49316 97.2377V79.917Z" fill="#7FA0FF"/>
<path d="M11.7009 40.544H7.79526C7.37478 40.544 7.03516 40.2044 7.03516 39.7839V35.8783C7.03516 35.4578 7.37478 35.1182 7.79526 35.1182H11.7009C12.1214 35.1182 12.461 35.4578 12.461 35.8783V39.7839C12.461 40.2044 12.1214 40.544 11.7009 40.544Z" fill="#ABC2FE"/>
<path d="M15.0646 70.2287H4.43116C3.291 70.2287 2.36108 69.2987 2.36108 68.1586V57.5252C2.36108 56.385 3.291 55.4551 4.43116 55.4551H15.0646C16.2048 55.4551 17.1347 56.385 17.1347 57.5252V68.1586C17.1347 69.2987 16.2048 70.2287 15.0646 70.2287Z" fill="#FFD769"/>
<path d="M14.6038 58.673H13.2129V57.9776C13.2129 57.7835 13.0593 57.6299 12.8652 57.6299C12.6711 57.6299 12.5175 57.7835 12.5175 57.9776V58.673H6.97034V57.9776C6.97034 57.7835 6.8167 57.6299 6.62263 57.6299C6.42856 57.6299 6.27492 57.7835 6.27492 57.9776V58.673H4.88409C4.69002 58.673 4.53638 58.8266 4.53638 59.0207V67.6973C4.53638 67.8913 4.69002 68.045 4.88409 68.045H14.6038C14.7978 68.045 14.9515 67.8913 14.9515 67.6973V59.0207C14.9515 58.8347 14.7978 58.673 14.6038 58.673ZM6.27492 59.3684V60.0638C6.27492 60.2579 6.42856 60.4116 6.62263 60.4116C6.8167 60.4116 6.97034 60.2579 6.97034 60.0638V59.3684H12.5256V60.0638C12.5256 60.2579 12.6792 60.4116 12.8733 60.4116C13.0674 60.4116 13.221 60.2579 13.221 60.0638V59.3684H14.2641V61.1231H5.23179V59.3684H6.27492ZM5.23179 67.3496V61.8186H14.2561V67.3496H5.23179Z" fill="white"/>
<path d="M9.04845 63.1855H8.70074C8.50667 63.1855 8.35303 63.3392 8.35303 63.5333C8.35303 63.7273 8.50667 63.881 8.70074 63.881H9.04845C9.24252 63.881 9.39615 63.7273 9.39615 63.5333C9.39615 63.3473 9.24252 63.1855 9.04845 63.1855Z" fill="white"/>
<path d="M7.31798 63.1855H6.97027C6.7762 63.1855 6.62256 63.3392 6.62256 63.5333C6.62256 63.7273 6.7762 63.881 6.97027 63.881H7.31798C7.51205 63.881 7.66569 63.7273 7.66569 63.5333C7.66569 63.3473 7.50396 63.1855 7.31798 63.1855Z" fill="white"/>
<path d="M12.5255 63.1855H12.1778C11.9837 63.1855 11.8301 63.3392 11.8301 63.5333C11.8301 63.7273 11.9837 63.881 12.1778 63.881H12.5255C12.7196 63.881 12.8732 63.7273 12.8732 63.5333C12.8651 63.3473 12.7115 63.1855 12.5255 63.1855Z" fill="white"/>
<path d="M10.787 63.1855H10.4393C10.2452 63.1855 10.0916 63.3392 10.0916 63.5333C10.0916 63.7273 10.2452 63.881 10.4393 63.881H10.787C10.981 63.881 11.1347 63.7273 11.1347 63.5333C11.1347 63.3473 10.981 63.1855 10.787 63.1855Z" fill="white"/>
<path d="M9.04845 65.2715H8.70074C8.50667 65.2715 8.35303 65.4251 8.35303 65.6192C8.35303 65.8133 8.50667 65.9669 8.70074 65.9669H9.04845C9.24252 65.9669 9.39615 65.8133 9.39615 65.6192C9.39615 65.4251 9.24252 65.2715 9.04845 65.2715Z" fill="white"/>
<path d="M7.31798 65.2715H6.97027C6.7762 65.2715 6.62256 65.4251 6.62256 65.6192C6.62256 65.8133 6.7762 65.9669 6.97027 65.9669H7.31798C7.51205 65.9669 7.66569 65.8133 7.66569 65.6192C7.66569 65.4251 7.50396 65.2715 7.31798 65.2715Z" fill="white"/>
<path d="M12.5255 65.2715H12.1778C11.9837 65.2715 11.8301 65.4251 11.8301 65.6192C11.8301 65.8133 11.9837 65.9669 12.1778 65.9669H12.5255C12.7196 65.9669 12.8732 65.8133 12.8732 65.6192C12.8651 65.4251 12.7115 65.2715 12.5255 65.2715Z" fill="white"/>
<path d="M10.787 65.2715H10.4393C10.2452 65.2715 10.0916 65.4251 10.0916 65.6192C10.0916 65.8133 10.2452 65.9669 10.4393 65.9669H10.787C10.981 65.9669 11.1347 65.8133 11.1347 65.6192C11.1347 65.4251 10.981 65.2715 10.787 65.2715Z" fill="white"/>
</g>
<defs>
<linearGradient id="paint0_linear_12978_161168" x1="71.6964" y1="115.007" x2="92.8514" y2="10.4758" gradientUnits="userSpaceOnUse">
<stop stop-color="#333366"/>
<stop offset="1" stop-color="#5959B3"/>
</linearGradient>
<clipPath id="clip0_12978_161168">
<rect width="168.437" height="150" fill="white"/>
</clipPath>
</defs>
</svg>
