<svg width="85" height="135" viewBox="0 0 85 135" fill="none" xmlns="http://www.w3.org/2000/svg">
<rect width="85" height="135" rx="8" fill="#E4E4E4"/>
<path d="M61.8435 87.0404C60.3228 87.0404 59.1842 88.291 59.1842 89.832L26.0138 89.9046C26.0138 89.9046 26 89.8823 26 89.832C26 88.291 24.768 87.0404 23.25 87.0404C21.732 87.0404 20.5 88.291 20.5 89.832C20.5 92.9112 22.8843 95.4154 25.8158 95.4154H59.1842C62.1157 95.4154 64.5 92.9112 64.5 89.832C64.5 88.291 63.3615 87.0404 61.8435 87.0404Z" fill="#84878D"/>
<path d="M59.1842 39.582H36.5298C34.3243 39.582 32.2507 40.453 30.6942 42.0359L22.9173 49.9307C21.358 51.5108 20.5 53.6157 20.5 55.8547V59.1237C20.5 60.6647 21.732 61.9154 23.25 61.9154C24.768 61.9154 26 60.6647 26 59.1237H34.25C37.2833 59.1237 39.75 56.6196 39.75 53.5404V45.1654H59V59.1237C59 60.6647 60.232 61.9154 61.75 61.9154C63.268 61.9154 64.5 60.6647 64.5 59.1237V45.1654C64.5 42.0862 62.1157 39.582 59.1842 39.582ZM34.25 53.5404H27.1385L34.25 46.3211V53.5404Z" fill="#84878D"/>
<path d="M23.25 84.2487C24.768 84.2487 26 82.998 26 81.457V78.6654H27.375C31.1645 78.6654 34.25 75.5331 34.25 71.6862C34.25 67.8393 31.1645 64.707 27.375 64.707H23.25C21.732 64.707 20.5 65.9577 20.5 67.4987V81.457C20.5 82.998 21.732 84.2487 23.25 84.2487ZM26 70.2904H27.375C28.134 70.2904 28.75 70.9157 28.75 71.6862C28.75 72.4567 28.134 73.082 27.375 73.082H26V70.2904Z" fill="#84878D"/>
<path d="M43.5312 84.2487C47.5105 84.2487 50.75 80.9601 50.75 76.9206V72.0352C50.75 67.9956 47.5105 64.707 43.5312 64.707H39.75C38.232 64.707 37 65.9577 37 67.4987V81.457C37 82.998 38.232 84.2487 39.75 84.2487H43.5312ZM42.5 70.2904H43.5312C44.48 70.2904 45.25 71.072 45.25 72.0352V76.9206C45.25 77.8837 44.48 78.6654 43.5312 78.6654H42.5V70.2904Z" fill="#84878D"/>
<path d="M61.75 70.2904C63.268 70.2904 64.5 69.0397 64.5 67.4987C64.5 65.9577 63.268 64.707 61.75 64.707H56.25C54.732 64.707 53.5 65.9577 53.5 67.4987V81.457C53.5 82.998 54.732 84.2487 56.25 84.2487C57.768 84.2487 59 82.998 59 81.457V78.6654H61.75C63.268 78.6654 64.5 77.4147 64.5 75.8737C64.5 74.3327 63.268 73.082 61.75 73.082H59V70.2904H61.75Z" fill="#84878D"/>
</svg>
