<svg width="350" height="200" viewBox="0 0 350 200" fill="none" xmlns="http://www.w3.org/2000/svg">
<path d="M317.931 199.022C319.767 195.334 330.768 172.279 321.024 148.597C313.598 130.561 298.459 122.662 291.572 119.201C265.171 105.932 252.016 119.683 226.293 114.55C180.788 105.467 183.522 54.7961 130.713 39.111C123.009 36.826 96.9111 29.4975 70.3476 42.5957C69.3846 43.069 48.9173 53.4741 36.3577 75.0758C16.9676 108.437 23.0066 157.255 49.8802 199.847C139.233 199.577 228.578 199.3 317.931 199.031V199.022Z" fill="#F5F6F7"/>
<path d="M172.803 14.8744V72.1115C172.803 73.4698 171.693 74.5734 170.335 74.5734H73.0348C71.67 74.5734 70.5664 73.4698 70.5664 72.1115V3.7731C70.5664 2.40829 71.67 1.30469 73.0348 1.30469H112.947C113.561 1.30469 114.149 1.53324 114.599 1.94465L117.479 4.55019H165.097C166.456 4.55019 167.566 5.66032 167.566 7.0186V12.406H170.335C171.693 12.406 172.803 13.5096 172.803 14.8744Z" fill="#162B55"/>
<path d="M169.028 11.1013H166.26V5.71391C166.26 4.35563 165.15 3.2455 163.791 3.2455H116.173L113.293 0.639958C112.843 0.228557 112.255 0 111.641 0H71.7287C70.3639 0 69.2603 1.1036 69.2603 2.46841V70.8068C69.2603 72.1651 70.3639 73.2687 71.7287 73.2687H169.028C170.387 73.2687 171.497 72.1651 171.497 70.8068V13.5697C171.497 12.2049 170.387 11.1013 169.028 11.1013ZM163.791 3.89852C164.79 3.89852 165.607 4.7148 165.607 5.71391V11.1013H125.544C125.093 11.1013 124.656 10.9315 124.323 10.6311L116.898 3.89852H163.791ZM170.844 70.8068C170.844 71.8059 170.028 72.6157 169.028 72.6157H71.7287C70.7295 72.6157 69.9133 71.8059 69.9133 70.8068V2.46841C69.9133 1.46929 70.7295 0.653019 71.7287 0.653019H111.641C112.092 0.653019 112.523 0.822804 112.856 1.12319L123.885 11.1144C124.342 11.5258 124.93 11.7543 125.544 11.7543H169.028C170.028 11.7543 170.844 12.5706 170.844 13.5697V70.8068Z" fill="#162B55"/>
<path d="M170.844 13.5691V70.8061C170.844 71.8053 170.028 72.615 169.029 72.615H71.7287C70.7296 72.615 69.9133 71.8053 69.9133 70.8061V2.46774C69.9133 1.46862 70.7296 0.652344 71.7287 0.652344H111.641C112.092 0.652344 112.523 0.822129 112.856 1.12252L123.885 11.1137C124.342 11.5251 124.93 11.7537 125.544 11.7537H169.029C170.028 11.7537 170.844 12.5699 170.844 13.5691Z" fill="white"/>
<path d="M165.607 5.71383V11.1012H125.544C125.094 11.1012 124.656 10.9314 124.323 10.6311L116.898 3.89844H163.791C164.791 3.89844 165.607 4.71471 165.607 5.71383Z" fill="#3696FB"/>
<path d="M96.3083 46.8477H77.7495C77.1076 46.8477 76.5872 47.3681 76.5872 48.01V53.4366C76.5872 54.0786 77.1076 54.599 77.7495 54.599H96.3083C96.9503 54.599 97.4707 54.0786 97.4707 53.4366V48.01C97.4707 47.3681 96.9503 46.8477 96.3083 46.8477Z" fill="#3696FB"/>
<path d="M96.5761 64.6484H77.4818C76.9877 64.6484 76.5872 65.049 76.5872 65.5431V65.5496C76.5872 66.0437 76.9877 66.4442 77.4818 66.4442H96.5761C97.0702 66.4442 97.4707 66.0437 97.4707 65.5496V65.5431C97.4707 65.049 97.0702 64.6484 96.5761 64.6484Z" fill="#162B55"/>
<path d="M96.5761 58.7734H77.4818C76.9877 58.7734 76.5872 59.174 76.5872 59.6681V59.6746C76.5872 60.1687 76.9877 60.5692 77.4818 60.5692H96.5761C97.0702 60.5692 97.4707 60.1687 97.4707 59.6746V59.6681C97.4707 59.174 97.0702 58.7734 96.5761 58.7734Z" fill="#162B55"/>
<path d="M203.038 43.9585V143.25C203.038 143.994 202.43 144.602 201.686 144.602H122.266C121.521 144.602 120.914 143.994 120.914 143.25V43.9585C120.914 43.2141 121.521 42.6133 122.266 42.6133H201.686C202.43 42.6133 203.038 43.2141 203.038 43.9585Z" fill="#162B55"/>
<path d="M199.727 41.3086H120.307C119.562 41.3086 118.955 41.9094 118.955 42.6538V141.945C118.955 142.69 119.562 143.297 120.307 143.297H199.727C200.471 143.297 201.079 142.69 201.079 141.945V42.6538C201.079 41.9094 200.471 41.3086 199.727 41.3086ZM200.426 141.945C200.426 142.331 200.112 142.644 199.727 142.644H120.307C119.922 142.644 119.608 142.331 119.608 141.945V42.6538C119.608 42.2751 119.922 41.9616 120.307 41.9616H199.727C200.112 41.9616 200.426 42.2751 200.426 42.6538V141.945Z" fill="#162B55"/>
<path d="M200.426 42.6531V141.945C200.426 142.33 200.112 142.643 199.727 142.643H120.307C119.922 142.643 119.608 142.33 119.608 141.945V42.6531C119.608 42.2744 119.922 41.9609 120.307 41.9609H199.727C200.112 41.9609 200.426 42.2744 200.426 42.6531Z" fill="white"/>
<path d="M193.242 34.1655V133.457C193.242 134.201 192.635 134.809 191.891 134.809H112.47C111.726 134.809 111.119 134.201 111.119 133.457V34.1655C111.119 33.4211 111.726 32.8203 112.47 32.8203H191.891C192.635 32.8203 193.242 33.4211 193.242 34.1655Z" fill="#162B55"/>
<path d="M189.932 31.5156H110.511C109.767 31.5156 109.16 32.1164 109.16 32.8608V132.152C109.16 132.897 109.767 133.504 110.511 133.504H189.932C190.676 133.504 191.283 132.897 191.283 132.152V32.8608C191.283 32.1164 190.676 31.5156 189.932 31.5156ZM190.63 132.152C190.63 132.538 190.317 132.851 189.932 132.851H110.511C110.126 132.851 109.813 132.538 109.813 132.152V32.8608C109.813 32.4821 110.126 32.1686 110.511 32.1686H189.932C190.317 32.1686 190.63 32.4821 190.63 32.8608V132.152Z" fill="#162B55"/>
<path d="M190.63 32.8602V132.152C190.63 132.537 190.317 132.85 189.932 132.85H110.511C110.126 132.85 109.813 132.537 109.813 132.152V32.8602C109.813 32.4814 110.126 32.168 110.511 32.168H189.932C190.317 32.168 190.63 32.4814 190.63 32.8602Z" fill="white"/>
<path d="M143.62 37.9414H117.238C116.448 37.9414 115.808 38.5817 115.808 39.3715V65.7535C115.808 66.5433 116.448 67.1836 117.238 67.1836H143.62C144.41 67.1836 145.05 66.5433 145.05 65.7535V39.3715C145.05 38.5817 144.41 37.9414 143.62 37.9414Z" fill="#3696FB"/>
<path d="M183.8 109.59H116.493C116.115 109.59 115.808 109.897 115.808 110.276V125.602C115.808 125.981 116.115 126.288 116.493 126.288H183.8C184.179 126.288 184.486 125.981 184.486 125.602V110.276C184.486 109.897 184.179 109.59 183.8 109.59Z" fill="#3696FB"/>
<path d="M169.361 63.4062H151.292C150.474 63.4062 149.81 64.0685 149.81 64.8853C149.81 65.7022 150.474 66.3644 151.292 66.3644H169.361C170.18 66.3644 170.844 65.7022 170.844 64.8853C170.844 64.0685 170.18 63.4062 169.361 63.4062Z" fill="#162B55"/>
<path d="M183.63 54.918H151.292C150.474 54.918 149.81 55.5802 149.81 56.3971C149.81 57.2139 150.474 57.8761 151.292 57.8761H183.63C184.449 57.8761 185.112 57.2139 185.112 56.3971C185.112 55.5802 184.449 54.918 183.63 54.918Z" fill="#162B55"/>
<path d="M183.63 46.4297H151.292C150.474 46.4297 149.81 47.0919 149.81 47.9088C149.81 48.7257 150.474 49.3879 151.292 49.3879H183.63C184.449 49.3879 185.112 48.7257 185.112 47.9088C185.112 47.0919 184.449 46.4297 183.63 46.4297Z" fill="#162B55"/>
<path d="M183.63 37.9414H151.292C150.474 37.9414 149.81 38.6036 149.81 39.4205C149.81 40.2374 150.474 40.8996 151.292 40.8996H183.63C184.449 40.8996 185.112 40.2374 185.112 39.4205C185.112 38.6036 184.449 37.9414 183.63 37.9414Z" fill="#162B55"/>
<path d="M182.84 100.043H117.453C116.544 100.043 115.808 100.78 115.808 101.689V101.695C115.808 102.604 116.544 103.341 117.453 103.341H182.84C183.749 103.341 184.486 102.604 184.486 101.695V101.689C184.486 100.78 183.749 100.043 182.84 100.043Z" fill="#162B55"/>
<path d="M182.84 91.5547H117.453C116.544 91.5547 115.808 92.2915 115.808 93.2003V93.2068C115.808 94.1157 116.544 94.8524 117.453 94.8524H182.84C183.749 94.8524 184.486 94.1157 184.486 93.2068V93.2003C184.486 92.2915 183.749 91.5547 182.84 91.5547Z" fill="#162B55"/>
<path d="M182.84 83.0625H117.453C116.544 83.0625 115.808 83.7993 115.808 84.7081V84.7146C115.808 85.6235 116.544 86.3602 117.453 86.3602H182.84C183.749 86.3602 184.486 85.6235 184.486 84.7146V84.7081C184.486 83.7993 183.749 83.0625 182.84 83.0625Z" fill="#162B55"/>
<path d="M182.84 74.5742H117.453C116.544 74.5742 115.808 75.311 115.808 76.2198V76.2264C115.808 77.1352 116.544 77.872 117.453 77.872H182.84C183.749 77.872 184.486 77.1352 184.486 76.2264V76.2198C184.486 75.311 183.749 74.5742 182.84 74.5742Z" fill="#162B55"/>
<path d="M94.2513 199.674H79.8653C79.2645 199.674 78.7486 199.256 78.6703 198.701L76.3521 183.074H97.7711L95.4528 198.701C95.368 199.263 94.8586 199.674 94.2578 199.674H94.2513Z" fill="white"/>
<path d="M94.2513 199.999H79.8653C79.1078 199.999 78.4548 199.457 78.3438 198.745L75.9668 182.746H98.1433L95.7663 198.745C95.6618 199.457 95.0088 199.999 94.2448 199.999H94.2513ZM76.7243 183.399L78.9903 198.654C79.049 199.052 79.4278 199.352 79.8653 199.352H94.2513C94.6888 199.352 95.0676 199.052 95.1264 198.654L97.3923 183.399H76.7308H76.7243Z" fill="#162B55"/>
<path d="M89.9741 169.929C91.1103 164.738 92.5208 161.538 92.8735 160.643C94.2187 157.176 96.0471 153.721 99.0771 151.56C100.67 150.423 102.519 149.705 104.393 149.15C105.594 148.791 107.07 148.556 107.965 149.437C108.618 150.077 108.709 151.076 108.761 151.984C108.814 152.833 108.99 153.303 108.879 153.924C108.703 154.87 108.18 155.51 107.939 155.798C105.81 158.344 100.71 158.56 100.109 160.793C99.7563 162.119 101.395 162.622 101.03 164.365C100.67 166.089 98.6461 167.637 97.8037 168.283C97.0528 168.858 96.7524 168.956 96.5369 169.439C95.9426 170.758 97.3466 171.953 96.883 173.011C96.4455 174.017 94.7737 173.886 93.5395 174.278C91.8809 174.807 89.8369 176.642 88.4656 182.696C88.5831 177.36 89.3014 173.011 89.9741 169.936V169.929Z" fill="#1570EF"/>
<path d="M81.8505 162.974C78.7226 158.312 73.6094 155.452 68.6857 152.761C68.3004 152.552 67.8759 152.337 67.4515 152.441C67.1184 152.526 66.8638 152.794 66.6679 153.075C65.7406 154.426 65.8255 156.314 66.6352 157.737C67.445 159.161 68.8816 160.153 70.4227 160.715C71.5067 161.107 72.7801 161.414 73.3221 162.426C73.6356 163.007 73.6225 163.706 73.6682 164.365C73.7727 165.809 74.3865 167.422 75.7644 167.872C76.2085 168.016 76.7048 168.029 77.0966 168.29C77.7692 168.734 77.8345 169.701 77.6582 170.491C77.4818 171.274 77.1358 172.051 77.2402 172.855C77.4165 174.206 78.8793 175.023 79.147 175.166C80.5576 175.924 81.1453 175.153 82.3534 175.774C83.5484 176.387 84.0316 177.7 84.8871 180.038C85.3377 181.259 85.5923 182.297 85.736 182.996C85.9189 182.239 85.7034 181.298 85.6968 180.515C85.6903 179.058 85.6968 177.602 85.6185 176.146C85.4552 173.175 85.0242 170.19 84.0251 167.376C83.4766 165.828 82.7582 164.339 81.844 162.981L81.8505 162.974Z" fill="#1570EF"/>
<path d="M87.3098 156.02C87.9237 153.943 88.7791 151.867 89.3668 150.436C90.7186 147.152 91.3716 146.205 91.894 145.552C92.6189 144.644 94.7085 142.026 96.5305 142.528C97.5688 142.816 98.0716 143.991 98.3458 144.631C99.2797 146.812 99.0185 149.914 97.3337 151.978C96.4782 153.029 94.1796 155.125 92.9389 155.824C92.8017 155.902 92.3446 156.15 92.0573 156.666C91.783 157.163 91.7961 157.665 91.8091 157.94C91.8875 159.533 92.0116 160.604 92.0246 160.97C92.1291 163.51 88.2698 164.196 88.2175 166.736C88.1849 168.277 89.4321 168.564 89.4844 170.543C89.5301 172.13 88.7269 172.894 87.9824 174.461C85.9711 178.725 87.1205 183.218 86.9441 183.225C86.7482 183.225 86.5915 180.123 86.5915 180.123C85.8079 172.397 84.9981 163.758 87.2902 156.02H87.3098Z" fill="#1570EF"/>
<path d="M97.7973 159.264C99.4625 156.992 101.343 154.85 103.387 152.884C103.42 152.852 103.42 152.799 103.387 152.767C103.355 152.734 103.302 152.734 103.27 152.767C101.219 154.726 99.3189 156.874 97.6341 159.147C95.9101 161.484 94.4082 163.927 93.1805 166.402C93.0238 166.715 92.867 167.029 92.7234 167.342C92.6842 167.42 92.6515 167.492 92.6189 167.564L92.5993 167.61C91.6067 169.732 90.7513 171.992 90.046 174.323C89.9154 174.76 89.7978 175.165 89.6934 175.57C89.6607 175.688 89.6281 175.805 89.6019 175.923V175.942C89.0273 178.117 88.5963 180.383 88.322 182.668C88.322 182.714 88.3481 182.753 88.3939 182.76L88.5114 182.773C88.5114 182.773 88.5179 182.773 88.5245 182.773C88.544 182.773 88.5636 182.773 88.5767 182.753C88.5963 182.74 88.6028 182.721 88.6093 182.701C88.8836 180.331 89.3277 177.986 89.9284 175.727C90.1505 175.328 90.4378 174.943 90.7774 174.571C91.1888 174.127 91.6459 173.755 92.1422 173.474C92.3903 173.33 92.6646 173.213 92.9389 173.108C93.2001 173.017 93.4874 172.945 93.7878 172.893C94.3494 172.808 94.9436 172.808 95.5444 172.899C95.5901 172.912 95.6293 172.873 95.6358 172.834C95.6424 172.788 95.6162 172.749 95.5705 172.743C94.9567 172.638 94.3429 172.625 93.7551 172.703C93.4417 172.756 93.1413 172.821 92.867 172.912C92.5732 173.01 92.2924 173.134 92.0312 173.278C91.5088 173.565 91.0255 173.938 90.588 174.395C90.4247 174.564 90.2811 174.734 90.1439 174.911C90.1962 174.734 90.2419 174.564 90.2941 174.388C90.9929 172.031 91.8549 169.758 92.8344 167.642C93.2001 167.166 93.6702 166.702 94.2384 166.271C94.48 166.082 94.7543 165.899 95.0938 165.696L95.5444 165.442L96.0146 165.22L96.5435 165.004C96.6807 164.952 96.8309 164.893 96.9745 164.854L97.4708 164.704C97.5884 164.678 97.7059 164.652 97.83 164.625L98.2414 164.541C98.2936 164.528 98.3459 164.521 98.4046 164.514C98.4373 164.514 98.4634 164.508 98.4961 164.501L99.136 164.417L100.05 164.371C100.096 164.371 100.129 164.332 100.129 164.286C100.129 164.24 100.089 164.208 100.05 164.208L99.1295 164.24L98.3981 164.325C98.3393 164.332 98.274 164.338 98.2153 164.351L97.7712 164.443C97.6602 164.462 97.5492 164.488 97.4382 164.514L96.9353 164.658C96.7786 164.697 96.6219 164.756 96.4717 164.815L96.0538 164.972L95.453 165.246L94.9893 165.501C94.6498 165.696 94.3559 165.892 94.1012 166.082C93.7878 166.317 93.507 166.545 93.2588 166.787C93.3046 166.689 93.3503 166.598 93.4025 166.5C94.6171 164.025 96.0995 161.589 97.8104 159.258L97.7973 159.264Z" fill="#162B55"/>
<path d="M88.5898 171.139C88.5637 171.1 88.5114 171.087 88.4788 171.113C88.2045 171.289 87.9498 171.498 87.7213 171.753C87.5123 171.994 87.3164 172.262 87.1466 172.556C87.0029 172.804 86.8723 173.072 86.7548 173.359C86.7809 172.68 86.8136 171.994 86.8593 171.309C86.905 170.649 86.9638 169.977 87.0291 169.298C87.0813 168.749 87.1466 168.194 87.2119 167.652L87.2511 167.293C87.4013 166.072 87.545 164.877 87.7474 163.682C87.8845 163.479 88.0412 163.27 88.2306 163.055C88.4592 162.8 88.7139 162.552 88.9881 162.33C89.1057 162.232 89.2363 162.14 89.3603 162.049L89.4061 162.016C89.4518 161.984 89.504 161.958 89.5497 161.925L89.7391 161.807L89.8632 161.749C90.1701 161.572 90.5162 161.455 90.8362 161.357C90.8819 161.344 90.9015 161.298 90.8884 161.252C90.8754 161.207 90.8296 161.187 90.7905 161.2C90.4574 161.298 90.0983 161.409 89.7783 161.579L89.6542 161.638L89.4518 161.755C89.3995 161.781 89.3538 161.814 89.3016 161.847L89.2167 161.905C89.0926 161.984 88.9685 162.069 88.8575 162.16C88.5702 162.382 88.2959 162.63 88.0543 162.891C87.9825 162.963 87.9172 163.042 87.8519 163.113C87.9564 162.539 88.0804 161.938 88.2306 161.331C88.3873 160.71 88.5637 160.051 88.7857 159.398C89.171 158.209 89.6934 157.001 90.3856 155.708C91.6394 153.377 93.2785 151.235 95.2636 149.341C95.2963 149.309 95.2963 149.256 95.2636 149.224C95.231 149.191 95.1787 149.191 95.1461 149.224C93.1479 151.117 91.4892 153.266 90.2158 155.617C89.5171 156.916 88.9881 158.131 88.5963 159.326C88.3678 159.979 88.1914 160.645 88.0282 161.272C87.8649 161.938 87.7213 162.604 87.6103 163.251C87.5972 163.329 87.5841 163.414 87.5711 163.492C87.558 163.584 87.5384 163.668 87.5254 163.76C87.3295 164.909 87.1858 166.072 87.0356 167.26L86.9899 167.613C86.9246 168.155 86.8528 168.716 86.8005 169.265C86.7352 169.898 86.6764 170.558 86.6242 171.283C86.5524 172.23 86.5067 173.209 86.4805 174.202V174.404C86.4414 175.997 86.5915 179.739 86.6634 181.274C86.6634 181.32 86.7026 181.352 86.7417 181.352C86.7875 181.352 86.8201 181.313 86.8201 181.274V179.426C86.7744 178.564 86.7417 177.689 86.7287 176.827C86.7156 175.984 86.7156 175.129 86.7287 174.3C86.7809 174.058 86.8593 173.81 86.9572 173.536C87.0683 173.235 87.1923 172.941 87.336 172.667C87.4927 172.38 87.669 172.119 87.8584 171.883C88.0674 171.642 88.3025 171.433 88.5571 171.257C88.5963 171.23 88.6028 171.185 88.5833 171.146L88.5898 171.139Z" fill="#162B55"/>
<path d="M84.371 175.688C84.3253 175.551 84.2796 175.407 84.2339 175.27C83.8225 174.049 83.3327 172.814 82.7842 171.606L82.3597 170.718L81.9092 169.85C81.772 169.582 81.6218 169.321 81.4782 169.066L81.1843 168.557L80.9166 168.106C80.8904 168.067 80.8709 168.028 80.8447 167.995C80.786 167.904 80.7337 167.812 80.6749 167.714C79.3689 165.625 77.8474 163.666 76.1495 161.896C75.2484 160.962 74.2819 160.055 73.2697 159.212C72.7604 158.781 72.2249 158.37 71.7221 157.991C71.1343 157.56 70.6119 157.188 70.1156 156.861C70.0765 156.835 70.0242 156.848 70.0046 156.887C69.9785 156.927 69.9916 156.972 70.0242 156.998C70.5401 157.344 71.0625 157.717 71.6176 158.128C72.0877 158.487 72.6363 158.912 73.1522 159.349C74.1578 160.192 75.1178 161.093 76.0059 162.027C77.5666 163.659 78.9771 165.461 80.1982 167.375C80.0676 167.29 79.9305 167.205 79.7934 167.127C79.4016 166.892 78.9771 166.689 78.5461 166.506C78.1412 166.337 77.7037 166.199 77.2139 166.095L76.8744 166.03C76.8025 166.017 76.7242 166.01 76.6458 166.004L76.352 165.971L75.8361 165.951C75.7969 165.951 75.7512 165.984 75.7512 166.03C75.7512 166.075 75.7838 166.115 75.8295 166.115L76.3389 166.141L76.6393 166.18C76.7111 166.186 76.783 166.199 76.8483 166.206L77.1813 166.278C77.658 166.395 78.0759 166.532 78.4677 166.709C78.8857 166.892 79.2905 167.101 79.6758 167.336C80.0089 167.545 80.3158 167.76 80.5835 167.976C80.6423 168.067 80.6945 168.152 80.7468 168.243L81.2953 169.197C81.4324 169.445 81.5761 169.693 81.7067 169.954L82.1573 170.823L82.5752 171.711C83.1042 172.873 83.5678 174.049 83.9531 175.205C83.8029 175.054 83.6397 174.898 83.4568 174.741C83.0193 174.369 82.5556 174.062 82.0789 173.827C81.5304 173.552 81.0276 173.363 80.5378 173.252C80.3288 173.193 80.1133 173.161 79.9044 173.128L79.7346 173.102C79.6366 173.082 79.5387 173.076 79.4407 173.069C79.4016 173.069 79.3624 173.069 79.3167 173.063L78.9118 173.037C78.8726 173.037 78.8334 173.069 78.8334 173.115C78.8334 173.161 78.8661 173.2 78.9053 173.2L79.3101 173.232C79.3493 173.232 79.382 173.232 79.4211 173.239C79.5191 173.245 79.6105 173.252 79.7085 173.272L79.8652 173.298C80.0742 173.33 80.2897 173.37 80.4986 173.435C80.9688 173.552 81.4586 173.742 81.9875 174.016C82.4446 174.251 82.8887 174.558 83.3001 174.924C83.6396 175.224 83.9335 175.531 84.1686 175.844C84.8934 178.163 85.3832 180.559 85.6248 182.989C85.6248 183.028 85.664 183.06 85.7032 183.06C85.7032 183.06 85.7032 183.06 85.7097 183.06L85.8273 183.047C85.8273 183.047 85.8664 183.034 85.8795 183.021C85.8926 183.002 85.8991 182.982 85.8991 182.962C85.6509 180.605 85.1742 178.261 84.4755 176.008C84.4429 175.897 84.4102 175.792 84.371 175.681V175.688Z" fill="#162B55"/>
<path d="M97.4707 180.996H76.6525C75.5453 180.996 74.6477 181.894 74.6477 183.001V183.256C74.6477 184.363 75.5453 185.26 76.6525 185.26H97.4707C98.5779 185.26 99.4755 184.363 99.4755 183.256V183.001C99.4755 181.894 98.5779 180.996 97.4707 180.996Z" fill="#162B55"/>
<path d="M240.815 187.454L240.469 194.983L235.656 194.343L236.362 185.488L240.815 187.454Z" fill="white"/>
<path d="M240.423 195.303L235.617 194.663C235.447 194.637 235.323 194.487 235.336 194.311L236.035 185.456C236.041 185.351 236.1 185.253 236.192 185.201C236.283 185.149 236.394 185.142 236.492 185.181L240.952 187.147C241.076 187.199 241.155 187.323 241.148 187.46L240.795 194.99C240.795 195.081 240.75 195.166 240.678 195.225C240.619 195.277 240.547 195.303 240.469 195.303C240.456 195.303 240.443 195.303 240.423 195.303ZM236.649 185.972L236.009 194.056L240.155 194.605L240.482 187.656L236.649 185.965V185.972Z" fill="#162B55"/>
<path d="M272.075 188.982L272.924 193.652H268.719L267.765 187.898L272.075 188.982Z" fill="white"/>
<path d="M268.398 193.705L267.445 187.952C267.425 187.841 267.465 187.737 267.543 187.658C267.621 187.58 267.732 187.554 267.843 187.58L272.153 188.664C272.277 188.697 272.369 188.795 272.395 188.925L273.244 193.601C273.263 193.699 273.237 193.797 273.172 193.869C273.107 193.941 273.015 193.986 272.924 193.986H268.718C268.555 193.986 268.424 193.869 268.398 193.712V193.705ZM271.794 189.245L268.176 188.338L268.999 193.327H272.538L271.794 189.245Z" fill="#162B55"/>
<path d="M267.412 193.673V198.688H284.142C284.09 198.165 283.698 197.728 283.169 197.597C281.7 197.225 279.983 196.67 278.141 195.821C276.169 194.913 274.563 193.888 273.315 192.98H268.117C267.732 192.98 267.412 193.294 267.412 193.679V193.673Z" fill="#162B55"/>
<path d="M224.241 198.825H241.468C241.422 197.14 241.389 195.455 241.35 193.764C241.35 193.372 241.017 193.059 240.619 193.052C238.712 193.033 236.799 193.007 234.892 192.98C234.702 192.98 234.513 193.046 234.369 193.163C233.331 193.993 232.012 194.907 230.386 195.736C228.479 196.703 226.69 197.29 225.207 197.65C224.646 197.787 224.254 198.27 224.241 198.832V198.825Z" fill="#162B55"/>
<path d="M267.412 198.688V199.615H284.149V198.831C284.149 198.785 284.149 198.733 284.136 198.694H267.406L267.412 198.688Z" fill="#162B55"/>
<path d="M224.241 198.827V199.61C229.994 199.676 235.741 199.741 241.494 199.806C241.494 199.48 241.474 199.147 241.474 198.82H224.247L224.241 198.827Z" fill="#162B55"/>
<path d="M241.468 198.824C241.468 199.151 241.487 199.484 241.487 199.81V198.824H241.468Z" fill="#162B55"/>
<path d="M273.322 189.975L266.948 140.626L262.208 94.1445H236.342L235.094 146.046V189.139C237.36 189.459 239.626 189.786 241.892 190.106C243.329 174.864 244.765 159.616 246.202 144.375C247.293 136.016 248.39 127.664 249.48 119.305C251.622 128.036 253.764 136.761 255.906 145.491C259.4 160.361 262.893 175.236 266.387 190.106C268.699 190.06 271.01 190.021 273.322 189.975Z" fill="#162B55"/>
<path d="M244.713 51.5453C245.177 51.8327 246.111 52.1461 247.972 51.4343C247.724 54.1052 247.482 56.776 247.234 59.4403C249.285 60.1195 251.342 60.8051 253.392 61.4843C254.404 60.6223 255.41 59.7668 256.422 58.9049C256.011 57.1874 255.645 55.1435 255.475 52.8252C255.286 50.2785 255.384 48.019 255.586 46.1318C257.023 45.531 257.937 44.4666 257.859 43.474C257.846 43.3499 257.8 42.6904 257.245 42.2855C256.572 41.7892 255.717 42.0831 255.632 42.1092C255.325 40.8293 255.018 39.5428 254.718 38.2629L249.369 37.8972L244.021 37.4336C243.878 38.7723 243.714 40.6464 243.61 42.8994C243.277 50.076 244.041 51.1143 244.72 51.5323L244.713 51.5453Z" fill="white"/>
<path d="M253.294 61.7996L247.136 59.7556C246.992 59.7099 246.901 59.5662 246.914 59.4161L247.606 51.9129C246.326 52.3177 245.301 52.2916 244.55 51.828C243.721 51.3186 242.944 50.2085 243.283 42.9012C243.368 41.0597 243.512 39.2182 243.701 37.4159C243.721 37.2395 243.878 37.1089 244.054 37.122L249.396 37.5791L254.744 37.9448C254.887 37.9579 255.005 38.0558 255.038 38.1929L255.874 41.7127C256.265 41.6409 256.892 41.6213 257.441 42.0196C258.028 42.4506 258.159 43.0971 258.192 43.4497C258.277 44.5338 257.362 45.6831 255.906 46.3557C255.691 48.491 255.658 50.6591 255.821 52.801C255.971 54.8253 256.285 56.8497 256.762 58.8283C256.788 58.9459 256.749 59.0765 256.657 59.1548L253.627 61.7343C253.568 61.7865 253.49 61.8126 253.418 61.8126C253.386 61.8126 253.346 61.8126 253.314 61.793L253.294 61.7996ZM255.149 52.8597C254.985 50.6199 255.025 48.3474 255.26 46.1075C255.273 45.99 255.351 45.8855 255.456 45.8398C256.762 45.2978 257.591 44.3574 257.526 43.5085C257.506 43.2734 257.421 42.8359 257.042 42.5551C256.507 42.1633 255.815 42.3984 255.736 42.4245C255.651 42.4572 255.554 42.4506 255.469 42.4049C255.39 42.3592 255.332 42.2808 255.305 42.196L254.443 38.5848L249.33 38.2321L244.302 37.8011C244.132 39.4859 244.002 41.2099 243.923 42.9273C243.61 49.5685 244.23 50.868 244.883 51.2664C245.543 51.6778 246.542 51.6321 247.854 51.1292C247.959 51.0901 248.076 51.1031 248.168 51.175C248.259 51.2403 248.305 51.3513 248.299 51.4623L247.587 59.2136L253.327 61.1204L256.063 58.7957C255.606 56.8497 255.299 54.8515 255.149 52.8597Z" fill="#162B55"/>
<path d="M216.496 61.4236C216.424 60.9861 216.255 60.3396 215.726 59.889C215.001 59.2621 214.126 59.4449 213.336 59.2686C212.454 59.0792 211.292 58.3283 210.208 55.7227C210.182 55.6901 209.933 55.3113 210.097 54.9848C210.247 54.6779 210.658 54.6257 210.75 54.6126C211.527 54.5146 211.945 55.4485 212.937 56.0819C214.302 56.9569 216.131 57.2312 216.49 56.7218C216.849 56.2125 215.641 55.0958 215.876 54.8607C216.176 54.5734 218.455 55.9448 219.154 57.5577C219.226 57.721 219.435 58.2499 219.644 58.9029C219.801 59.4058 219.912 59.8367 219.983 60.1437C218.821 60.5681 217.659 60.9926 216.503 61.4171L216.496 61.4236Z" fill="white"/>
<path d="M216.327 61.7027C216.242 61.6504 216.183 61.5655 216.17 61.4741C216.078 60.8799 215.856 60.4293 215.51 60.1354C215.086 59.7697 214.583 59.7306 214.048 59.6848C213.793 59.6653 213.525 59.6457 213.264 59.5869C211.951 59.2996 210.828 58.0523 209.914 55.8777C209.823 55.7341 209.581 55.2835 209.796 54.846C209.947 54.5456 210.267 54.3497 210.704 54.2909C211.344 54.2125 211.769 54.6239 212.219 55.0615C212.467 55.3031 212.755 55.5839 213.107 55.8059C214.498 56.694 216.039 56.7789 216.216 56.5308C216.294 56.4197 215.961 55.8777 215.85 55.7014C215.595 55.29 215.354 54.9047 215.647 54.6239C215.772 54.5064 215.948 54.4672 216.176 54.5129C216.934 54.6631 218.795 55.9169 219.448 57.4319C219.533 57.6213 219.742 58.1568 219.944 58.8033C220.075 59.2212 220.193 59.6457 220.29 60.0701C220.33 60.2334 220.238 60.3966 220.088 60.4489L216.607 61.7223C216.568 61.7353 216.536 61.7419 216.496 61.7419C216.438 61.7419 216.379 61.7288 216.333 61.6961L216.327 61.7027ZM219.324 59.0057C219.115 58.3592 218.913 57.8368 218.847 57.6931C218.338 56.5242 217.006 55.5708 216.34 55.2574C216.359 55.2966 216.385 55.3292 216.405 55.3619C216.705 55.8451 217.078 56.4459 216.751 56.9095C216.216 57.6735 214.126 57.236 212.761 56.361C212.35 56.0998 212.043 55.7994 211.769 55.5316C211.338 55.1137 211.096 54.8982 210.789 54.9374C210.58 54.9635 210.436 55.0353 210.384 55.1268C210.319 55.2574 210.43 55.4729 210.476 55.5316C210.489 55.5512 210.502 55.5708 210.508 55.5904C211.331 57.5756 212.304 58.6988 213.408 58.9404C213.63 58.9861 213.858 59.0057 214.106 59.0253C214.694 59.071 215.36 59.1232 215.948 59.6326C216.333 59.9591 216.601 60.4162 216.745 60.9778L219.598 59.933C219.52 59.6195 219.428 59.3061 219.331 58.9992L219.324 59.0057Z" fill="#162B55"/>
<path d="M216.242 61.0737C218.122 68.8773 219.997 76.6874 221.877 84.491C222.315 86.3129 224.698 86.8483 225.9 85.3856L235.584 73.579C235.983 78.0457 236.257 82.7605 236.342 87.7299C236.342 88.0368 236.348 88.3438 236.355 88.6507C236.355 89.049 236.361 89.4408 236.361 89.8326C236.361 90.6293 236.361 91.413 236.361 92.1966C236.361 92.5949 236.361 92.9867 236.355 93.3785C236.348 94.0969 236.335 94.8086 236.316 95.5204C239.659 96.3237 243.995 97.0485 249.076 97.1203C254.404 97.1987 258.943 96.5391 262.404 95.7816C262.273 94.8413 262.162 93.8291 262.071 92.7582C262.038 92.3402 262.005 91.9092 261.973 91.4717C261.933 90.8187 261.901 90.1461 261.875 89.4539C261.875 89.4147 261.875 89.3755 261.875 89.3363C261.862 88.8727 261.855 88.4221 261.849 87.9781C261.842 86.2476 261.901 84.6999 261.999 83.3743C264.35 84.491 266.701 85.6011 269.051 86.7178C271.644 87.9454 274.563 85.7839 274.08 83.0021C272.996 76.7462 271.912 70.4902 270.821 64.2343C270.468 62.2034 269.208 60.4403 267.38 59.4281C263.56 57.3123 259.739 55.19 255.913 53.0742C255.867 53.4007 255.671 54.5305 254.665 55.4055C253.529 56.3981 252.184 56.3458 251.884 56.3393C249.944 56.3197 248.207 55.0202 247.652 53.1461C243.747 54.6023 239.842 56.0585 235.937 57.5082C235.218 57.789 234.618 58.2918 234.219 58.9449L225.769 72.8476C224.006 68.4789 222.23 64.1168 220.467 59.7481C217.829 60.5643 218.86 60.2444 216.222 61.0672L216.242 61.0737ZM262.626 78.0457C262.88 76.4392 263.226 74.7022 263.697 72.8476C264.428 74.9961 265.159 77.151 265.897 79.2995C264.807 78.8815 263.716 78.4636 262.632 78.0457H262.626Z" fill="#1570EF"/>
<path d="M243.185 39.2452C241.063 37.482 240.684 36.2217 240.821 35.3466C241.043 33.9818 242.735 32.3101 242.715 32.3362C244.85 30.5143 246.548 30.1943 247.698 30.2335C249.539 30.2988 249.755 31.2783 252.608 31.8008C255.005 32.2383 255.971 31.755 257.016 32.6693C257.565 33.1525 257.839 33.8708 258.381 35.314C258.949 36.8159 259.23 37.5669 259.112 38.4158C258.956 39.5129 258.27 40.7014 257.369 41.4785C256.873 41.903 256.272 42.2425 255.88 43.0588C255.697 43.4441 255.632 43.7967 255.599 44.0383C255.318 43.3527 255.018 42.3992 254.92 41.2303C254.881 40.8059 254.881 40.4075 254.894 40.0484C254.907 39.6696 254.646 39.3301 254.267 39.2517C252.576 38.9317 248.88 40.179 244.498 39.5194C243.923 39.4345 243.466 39.317 243.185 39.2452Z" fill="#162B55"/>
<path d="M251.27 44.2285C251.191 44.7313 250.91 45.1035 250.63 45.0643C250.349 45.0251 250.186 44.5876 250.264 44.0848C250.342 43.582 250.623 43.2097 250.904 43.2489C251.185 43.2881 251.348 43.7256 251.27 44.2285Z" fill="#162B55"/>
<path d="M246.503 43.6347C246.424 44.1375 246.143 44.5097 245.863 44.4706C245.582 44.4314 245.419 43.9939 245.497 43.491C245.575 42.9882 245.856 42.616 246.137 42.6552C246.418 42.6944 246.581 43.1319 246.503 43.6347Z" fill="#162B55"/>
<path d="M246.614 48.0742C246.614 48.0742 248.579 48.5379 249.716 48.5117C249.716 48.5117 249.363 49.87 247.796 49.5174C246.607 49.2497 246.607 48.0742 246.607 48.0742H246.614Z" fill="#162B55"/>
<path d="M252.602 43.0404C252.654 43.0404 252.706 43.0274 252.752 42.9947C252.876 42.9098 252.909 42.7466 252.824 42.6225C252.785 42.5637 251.792 41.1401 250.173 41.545C250.029 41.5842 249.938 41.7279 249.977 41.8715C250.016 42.0152 250.16 42.1001 250.31 42.0609C251.538 41.7475 252.334 42.8706 252.367 42.9164C252.419 42.9947 252.504 43.0339 252.595 43.0339L252.602 43.0404Z" fill="#162B55"/>
<path d="M247.58 42.0085C247.652 42.0085 247.73 41.9758 247.782 41.9171C247.88 41.806 247.874 41.6363 247.756 41.5383C246.509 40.4543 244.968 41.2771 244.903 41.3163C244.772 41.3881 244.726 41.5514 244.798 41.682C244.87 41.8126 245.04 41.8583 245.17 41.7865C245.223 41.7603 246.444 41.1138 247.404 41.9432C247.456 41.9889 247.521 42.0085 247.586 42.0085H247.58Z" fill="#162B55"/>
<path d="M248.468 47.1715C248.579 47.1715 248.684 47.0997 248.723 46.9952C248.775 46.8581 248.697 46.7013 248.553 46.6556L247.175 46.1789C248.521 43.9391 248.54 43.8868 248.553 43.8542C248.599 43.717 248.527 43.5603 248.384 43.5146C248.246 43.4689 248.103 43.5342 248.05 43.6583C247.979 43.7954 247.11 45.2386 246.542 46.1855C246.503 46.2573 246.49 46.3357 246.522 46.414C246.549 46.4924 246.614 46.5511 246.686 46.5773L248.377 47.1585C248.377 47.1585 248.436 47.1715 248.468 47.1715Z" fill="#162B55"/>
<path d="M225.789 72.855C226.266 74.7553 226.742 76.649 227.219 78.5493C227.147 75.9895 227.069 73.4296 226.997 70.8633C226.592 71.5294 226.187 72.1889 225.789 72.855Z" fill="#90D1FF"/>
<path d="M262.665 69.3242L263.442 73.6994C263.527 73.4121 263.612 73.1313 263.697 72.8505C263.742 72.955 263.781 73.053 263.827 73.1574L263.729 72.844L262.665 69.3242Z" fill="#90D1FF"/>
<path d="M262.005 83.3771C259.086 81.9927 256.174 80.6149 253.255 79.2305L261.907 85.088C261.927 84.6766 261.947 84.2522 261.973 83.8277C261.979 83.6775 261.992 83.5273 262.005 83.3771Z" fill="#90D1FF"/>
<path d="M262.619 78.0491L262.737 77.3635L255.07 75.1562L262.619 78.0491Z" fill="#90D1FF"/>
<path d="M250.316 64.8905L252.602 80.0666C252.641 80.3344 252.432 80.576 252.151 80.576H240.508C240.286 80.576 240.09 80.4127 240.057 80.1972L237.772 65.0211C237.733 64.7533 237.942 64.5117 238.222 64.5117H249.866C250.088 64.5117 250.284 64.675 250.316 64.8905Z" fill="white"/>
<path d="M239.737 80.2479L237.452 65.0717C237.419 64.8497 237.485 64.6276 237.628 64.4579C237.778 64.2881 237.994 64.1836 238.222 64.1836H249.866C250.258 64.1836 250.578 64.4579 250.636 64.8431L252.922 80.0193C252.955 80.2413 252.889 80.4634 252.746 80.6331C252.595 80.8029 252.38 80.9009 252.151 80.9009H240.508C240.116 80.9009 239.796 80.6266 239.737 80.2413V80.2479ZM249.99 64.9411C249.983 64.8823 249.925 64.8366 249.866 64.8366H238.222C238.17 64.8366 238.138 64.8627 238.124 64.8823C238.111 64.9019 238.092 64.928 238.098 64.9737L240.384 80.1499C240.39 80.2087 240.449 80.2544 240.508 80.2544H252.151C252.204 80.2544 252.236 80.2283 252.249 80.2087C252.262 80.1891 252.282 80.163 252.275 80.1173L249.99 64.9411Z" fill="#162B55"/>
<path d="M244.557 73.7521C245.235 73.7521 245.784 73.2112 245.784 72.544C245.784 71.8768 245.235 71.3359 244.557 71.3359C243.879 71.3359 243.329 71.8768 243.329 72.544C243.329 73.2112 243.879 73.7521 244.557 73.7521Z" fill="white"/>
<path d="M243.002 72.5424C243.002 71.7 243.701 71.0078 244.557 71.0078C245.412 71.0078 246.111 71.6935 246.111 72.5424C246.111 73.3913 245.412 74.077 244.557 74.077C243.701 74.077 243.002 73.3913 243.002 72.5424ZM243.655 72.5424C243.655 73.0256 244.06 73.424 244.557 73.424C245.053 73.424 245.458 73.0322 245.458 72.5424C245.458 72.0592 245.053 71.6608 244.557 71.6608C244.06 71.6608 243.655 72.0526 243.655 72.5424Z" fill="#162B55"/>
<path d="M254.763 75.7684C254.404 75.6966 253.914 75.5529 253.405 75.2591C252.693 74.8477 252.223 74.3253 251.942 73.9204C251.792 73.7049 251.544 73.5678 251.276 73.5482C249.813 73.4241 249.565 73.1172 248.671 72.6666C247.443 72.0528 247.28 71.1451 246.437 71.2104C246.385 71.2104 246.013 71.2495 245.719 71.5108C245.059 72.0985 245.347 73.3 245.471 73.8224C245.81 75.2395 246.698 76.1341 247.071 76.4998C247.835 77.2508 248.657 77.6883 249.297 77.943C249.526 78.0344 249.774 78.0736 250.022 78.0475C250.316 78.0213 250.649 78.0083 251.015 78.0344C252.099 78.1062 252.948 78.4393 253.483 78.707C253.914 77.7275 254.339 76.7414 254.77 75.7619L254.763 75.7684Z" fill="white"/>
<path d="M253.327 79.0066C252.582 78.6344 251.792 78.4189 250.982 78.3666C250.669 78.3471 250.355 78.3471 250.042 78.3797C249.742 78.4058 249.448 78.3666 249.167 78.2491C248.279 77.8965 247.495 77.3871 246.836 76.7341C246.509 76.4141 245.517 75.4346 245.151 73.9C245.014 73.3253 244.694 71.9867 245.497 71.2683C245.856 70.9484 246.287 70.8961 246.405 70.8831C247.018 70.8373 247.365 71.1769 247.724 71.5426C247.998 71.8103 248.305 72.1173 248.808 72.3719C248.991 72.4634 249.154 72.5483 249.298 72.6331C249.84 72.9335 250.199 73.1294 251.296 73.2209C251.668 73.2535 252.001 73.4364 252.203 73.7302C252.569 74.2461 253.026 74.6706 253.562 74.9775C253.954 75.1995 254.378 75.3562 254.822 75.4542C254.92 75.4738 254.998 75.5391 255.044 75.624C255.09 75.7089 255.09 75.8133 255.051 75.9048L253.764 78.8499C253.732 78.9348 253.66 78.9935 253.575 79.0262C253.542 79.0393 253.503 79.0458 253.464 79.0458C253.412 79.0458 253.366 79.0327 253.32 79.0131L253.327 79.0066ZM253.242 75.5456C252.621 75.193 252.092 74.7097 251.674 74.109C251.583 73.9784 251.42 73.8869 251.244 73.8739C250.009 73.7694 249.559 73.5212 248.984 73.2078C248.84 73.1294 248.69 73.0445 248.514 72.9597C247.913 72.6593 247.554 72.3001 247.26 72.0062C246.914 71.6601 246.744 71.51 246.45 71.5361C246.418 71.5361 246.137 71.5622 245.928 71.7581C245.412 72.2152 245.673 73.2927 245.784 73.7498C246.111 75.1016 246.966 75.9505 247.293 76.2705C247.894 76.8582 248.605 77.3218 249.409 77.6418C249.591 77.7136 249.787 77.7463 249.983 77.7267C250.329 77.694 250.682 77.6875 251.021 77.7136C251.812 77.7659 252.576 77.9552 253.307 78.2752L254.306 75.9962C253.934 75.8852 253.575 75.735 253.242 75.5456Z" fill="#162B55"/>
<path d="M256.135 53.1483L256.997 53.5466C257.14 53.6119 257.212 53.7817 257.153 53.9254C256.233 56.224 253.921 57.7063 251.446 57.5888C249.134 57.4778 247.09 55.9889 246.274 53.8274C246.215 53.6707 246.3 53.5009 246.457 53.4421L247.227 53.1744C247.567 53.0568 247.933 53.2136 248.096 53.5401C248.775 54.9114 250.225 55.793 251.792 55.7342C253.268 55.682 254.574 54.8069 255.201 53.514C255.371 53.1548 255.782 52.985 256.141 53.1483H256.135Z" fill="#90D1FF"/>
<path d="M255.09 75.1797C255.815 75.454 256.533 75.7282 257.258 76.009C256.579 77.3869 255.893 78.7648 255.214 80.1492C254.535 79.8357 253.849 79.5157 253.17 79.2023L255.096 75.1797H255.09Z" fill="#90D1FF"/>
<path d="M220.532 59.6914C220.787 60.3836 221.041 61.0758 221.296 61.768L216.797 63.1198L216.196 61.1085C217.639 60.6383 219.089 60.1616 220.532 59.6914Z" fill="#90D1FF"/>
<path d="M236.355 93.3879C237.164 93.3488 237.622 93.0614 238 92.8263C238.346 92.6043 238.601 92.4476 239.176 92.4476C239.75 92.4476 239.999 92.6043 240.351 92.8263C240.75 93.081 241.252 93.3945 242.173 93.3945C243.094 93.3945 243.597 93.081 244.002 92.8263C244.348 92.6043 244.602 92.4476 245.177 92.4476C245.752 92.4476 246 92.6043 246.352 92.8263C246.751 93.081 247.254 93.3945 248.174 93.3945C249.095 93.3945 249.598 93.081 250.003 92.8263C250.349 92.6043 250.604 92.4476 251.178 92.4476C251.753 92.4476 252.001 92.6043 252.354 92.8263C252.752 93.081 253.255 93.3945 254.176 93.3945C255.096 93.3945 255.599 93.081 255.998 92.8263C256.344 92.6043 256.598 92.4476 257.173 92.4476C257.748 92.4476 257.996 92.6043 258.348 92.8263C258.747 93.081 259.25 93.3945 260.17 93.3945C261.091 93.3945 261.594 93.081 261.992 92.8263C262.025 92.8067 262.058 92.7872 262.084 92.7676C262.051 92.3496 262.018 91.9186 261.986 91.4811C261.731 91.5856 261.522 91.7162 261.339 91.8338C260.993 92.0558 260.738 92.2125 260.164 92.2125C259.589 92.2125 259.341 92.0558 258.988 91.8338C258.59 91.5791 258.087 91.2656 257.166 91.2656C256.246 91.2656 255.743 91.5791 255.345 91.8338C254.998 92.0558 254.744 92.2125 254.169 92.2125C253.594 92.2125 253.346 92.0558 252.994 91.8338C252.595 91.5791 252.092 91.2656 251.165 91.2656C250.238 91.2656 249.742 91.5791 249.343 91.8338C248.997 92.0558 248.743 92.2125 248.168 92.2125C247.593 92.2125 247.345 92.0558 246.992 91.8338C246.594 91.5791 246.091 91.2656 245.164 91.2656C244.237 91.2656 243.74 91.5791 243.342 91.8338C242.996 92.0558 242.741 92.2125 242.167 92.2125C241.592 92.2125 241.344 92.0558 240.991 91.8338C240.593 91.5791 240.09 91.2656 239.169 91.2656C238.248 91.2656 237.746 91.5791 237.347 91.8338C237.04 92.0297 236.805 92.1733 236.368 92.206C236.368 92.6043 236.368 92.9961 236.361 93.3879H236.355Z" fill="#90D1FF"/>
<path d="M236.355 88.6539C236.355 89.0522 236.361 89.4441 236.361 89.8359C237.164 89.7967 237.622 89.5094 237.994 89.2743C238.34 89.0523 238.595 88.8955 239.169 88.8955C239.744 88.8955 239.992 89.0523 240.345 89.2743C240.743 89.529 241.246 89.8424 242.167 89.8424C243.087 89.8424 243.59 89.529 243.995 89.2743C244.341 89.0523 244.596 88.8955 245.17 88.8955C245.745 88.8955 245.993 89.0523 246.346 89.2743C246.744 89.529 247.247 89.8424 248.168 89.8424C249.089 89.8424 249.591 89.529 249.996 89.2743C250.342 89.0523 250.597 88.8955 251.172 88.8955C251.746 88.8955 251.994 89.0523 252.347 89.2743C252.745 89.529 253.248 89.8424 254.169 89.8424C255.09 89.8424 255.593 89.529 255.991 89.2743C256.337 89.0523 256.592 88.8955 257.166 88.8955C257.741 88.8955 257.989 89.0523 258.342 89.2743C258.74 89.529 259.243 89.8424 260.164 89.8424C261.013 89.8424 261.502 89.5747 261.888 89.3396C261.875 88.8759 261.868 88.4254 261.862 87.9813C261.659 88.0727 261.489 88.1772 261.333 88.2752C260.987 88.4972 260.732 88.6539 260.157 88.6539C259.583 88.6539 259.334 88.4972 258.982 88.2752C258.583 88.0205 258.081 87.707 257.16 87.707C256.239 87.707 255.736 88.0205 255.338 88.2752C254.992 88.4972 254.737 88.6539 254.162 88.6539C253.588 88.6539 253.34 88.4972 252.987 88.2752C252.589 88.0205 252.086 87.707 251.159 87.707C250.231 87.707 249.735 88.0205 249.337 88.2752C248.991 88.4972 248.736 88.6539 248.161 88.6539C247.587 88.6539 247.338 88.4972 246.986 88.2752C246.587 88.0205 246.085 87.707 245.157 87.707C244.23 87.707 243.734 88.0205 243.335 88.2752C242.989 88.4972 242.735 88.6539 242.16 88.6539C241.585 88.6539 241.337 88.4972 240.985 88.2752C240.586 88.0205 240.083 87.707 239.163 87.707C238.242 87.707 237.739 88.0205 237.341 88.2752C237.034 88.4711 236.799 88.6213 236.348 88.6474L236.355 88.6539Z" fill="#90D1FF"/>
<path d="M324.235 200H25.765C25.3463 200 25 199.325 25 198.5C25 197.675 25.3463 197 25.765 197H324.235C324.662 197 325 197.675 325 198.5C325 199.325 324.654 200 324.235 200Z" fill="#162B55"/>
</svg>
