<svg width="176" height="150" viewBox="0 0 176 150" fill="none" xmlns="http://www.w3.org/2000/svg">
<g clip-path="url(#clip0_12978_161007)">
<path d="M82.1762 81.3816C81.399 82.5905 80.2937 83.3505 78.8947 83.6614C76.4077 84.214 73.9552 82.9532 72.8843 80.6044C71.8999 78.4282 72.6425 75.7166 74.5942 74.2831C75.5786 73.5577 76.7013 73.195 77.9275 73.2468C79.8792 73.3332 81.3127 74.3004 82.418 75.993C82.1071 72.8496 83.3334 70.6044 85.7859 69.6544C88.0484 68.7736 90.6736 69.5508 92.1071 71.5025C92.8325 72.4869 93.1952 73.6095 93.1607 74.8358C93.0916 76.7874 92.159 78.2728 90.4664 79.4299C94.1797 79.0327 96.1486 81.347 96.6495 83.4196C97.2539 85.8893 95.9931 88.4455 93.6097 89.4817C91.1918 90.5525 88.5147 89.6372 87.133 87.6164C86.4249 86.5802 86.1313 85.423 86.2349 84.1795C86.3904 82.4351 87.2712 81.1225 88.6875 80.1035C86.2177 80.3453 84.3178 79.4645 82.9534 77.4092C83.1607 78.86 82.9534 80.1899 82.1762 81.3816ZM86.3386 86.632C85.3196 83.9377 82.3489 82.6251 79.6719 83.6441C76.9949 84.6631 75.665 87.6683 76.7013 90.328C77.7203 92.9705 80.7082 94.3004 83.3507 93.2987C86.0277 92.2969 87.3576 89.309 86.3386 86.632ZM102.47 69.119C101.451 66.4766 98.5493 65.1985 95.8895 66.1657C93.6961 66.9774 91.6926 69.5854 92.9189 72.7978C94.0933 75.8548 97.1503 76.632 99.4992 75.7512C102.176 74.7494 103.489 71.7788 102.47 69.119ZM82.159 59.9308C79.5165 60.9325 78.1866 63.8513 79.1883 66.4938C80.19 69.1536 83.1434 70.5007 85.7859 69.499C88.4284 68.4973 89.7583 65.4921 88.7393 62.8669C87.7375 60.2417 84.7842 58.9291 82.159 59.9308ZM96.7703 82.6769C97.7548 85.2676 100.639 86.5975 103.247 85.6303C105.855 84.6631 107.185 81.6924 106.183 79.1018C105.181 76.5111 102.28 75.2158 99.6892 76.2002C97.0985 77.1847 95.7859 80.069 96.7703 82.6769ZM75.7514 73.195C78.342 72.2106 79.6374 69.309 78.6529 66.7183C77.6684 64.1277 74.7842 62.8151 72.1762 63.7823C69.5683 64.7494 68.2384 67.7201 69.2401 70.3108C70.2591 72.9014 73.1607 74.1795 75.7514 73.195ZM89.3265 62.6769C90.2937 65.2158 93.1089 66.4938 95.6477 65.5439C98.2039 64.5767 99.4992 61.7097 98.5147 59.1709C97.5476 56.6493 94.6633 55.3712 92.159 56.3384C89.6374 57.3056 88.3593 60.138 89.3265 62.6769ZM72.3662 80.5698C71.4163 78.0482 68.6356 76.7702 66.114 77.7028C63.5579 78.6527 62.2626 81.4679 63.2125 84.0068C64.1624 86.5111 66.9776 87.8064 69.4819 86.8911C72.0381 85.9239 73.3161 83.1087 72.3662 80.5698ZM97.0467 99.2572C99.5856 98.29 100.864 95.4748 99.8964 92.936C98.9465 90.4316 96.1141 89.1709 93.6097 90.1035C91.0709 91.0534 89.8101 93.8859 90.7773 96.4247C91.7272 98.9463 94.5078 100.207 97.0467 99.2572ZM69.8619 87.7374C67.3576 88.6873 66.114 91.4679 67.0985 93.9722C68.0484 96.442 70.8291 97.6855 73.2989 96.7356C75.7859 95.7857 77.0467 92.9532 76.0795 90.4835C75.1123 88.0137 72.3317 86.7874 69.8619 87.7374ZM89.8101 96.7874C88.8602 94.2659 86.0968 93.0223 83.5925 93.9895C81.1227 94.9394 79.8619 97.7028 80.7945 100.173C81.7272 102.66 84.5596 103.938 87.0294 102.988C89.4992 102.038 90.7427 99.2745 89.8101 96.7874ZM68.4457 70.6216C67.5303 68.1691 64.8014 66.9256 62.3662 67.841C59.9137 68.7563 58.6702 71.4679 59.5856 73.9204C60.4837 76.3729 63.2125 77.6165 65.665 76.7011C68.1002 75.803 69.3438 73.0569 68.4457 70.6216ZM106.943 95.3367C109.378 94.404 110.605 91.6924 109.689 89.2399C108.757 86.8047 106.028 85.5612 103.592 86.4938C101.157 87.4265 99.931 90.138 100.846 92.5905C101.779 95.0258 104.508 96.252 106.943 95.3367ZM103.333 68.8254C104.249 71.2607 106.926 72.4696 109.361 71.5543C111.814 70.6389 113.04 67.8928 112.09 65.4748C111.157 63.0741 108.428 61.8652 106.028 62.7805C103.627 63.6959 102.418 66.4075 103.333 68.8254ZM81.8135 59.1018C84.2488 58.1864 85.475 55.5266 84.5769 53.0914C83.6615 50.6389 80.95 49.3954 78.5147 50.3107C76.1141 51.2261 74.8705 53.955 75.7859 56.3557C76.684 58.7736 79.3956 59.9999 81.8135 59.1018ZM68.4975 54.1622C66.0968 55.0949 64.9223 57.7546 65.8377 60.1553C66.7531 62.556 69.4474 63.7477 71.8308 62.8323C74.2142 61.917 75.4059 59.2054 74.4906 56.822C73.5925 54.4213 70.8982 53.2468 68.4975 54.1622ZM113.109 81.4506C115.527 80.5353 116.719 77.8928 115.82 75.4748C114.905 73.0741 112.245 71.8479 109.845 72.7633C107.461 73.6614 106.235 76.3729 107.133 78.7563C108.031 81.157 110.708 82.366 113.109 81.4506ZM71.1227 103.903C72.0208 106.235 74.6633 107.409 76.9949 106.511C79.3438 105.613 80.5355 102.919 79.6374 100.587C78.722 98.2209 76.0795 97.0638 73.7134 97.9791C71.3472 98.8945 70.19 101.537 71.1227 103.903ZM99.6719 58.7909C100.57 61.157 103.195 62.3142 105.579 61.4161C107.91 60.518 109.085 57.8928 108.204 55.5612C107.323 53.2123 104.646 52.0033 102.297 52.9014C99.9482 53.7823 98.7738 56.4247 99.6719 58.7909ZM91.7099 55.1985C94.076 54.3177 95.285 51.6924 94.4042 49.3263C93.5234 46.9774 90.8636 45.7684 88.5147 46.6665C86.1831 47.5474 84.9914 50.1726 85.855 52.5042C86.7358 54.8876 89.3438 56.0793 91.7099 55.1985ZM100.674 108.774C102.953 107.91 104.093 105.354 103.247 103.074C102.383 100.76 99.7928 99.6026 97.4957 100.483C95.2332 101.364 94.076 103.92 94.9223 106.2C95.7859 108.497 98.3766 109.654 100.674 108.774ZM53.6443 87.6337C54.5078 89.9308 57.0467 91.088 59.3438 90.2244C61.6581 89.3608 62.8325 86.7702 61.9344 84.4731C61.0536 82.1933 58.4802 81.0534 56.2177 81.917C53.9379 82.7805 52.7807 85.3367 53.6443 87.6337ZM116.839 91.2434C119.136 90.3798 120.276 87.841 119.396 85.5439C118.532 83.2814 116.01 82.1242 113.748 82.9705C111.468 83.8168 110.294 86.3729 111.14 88.67C111.986 90.9671 114.542 92.1069 116.839 91.2434ZM64.3524 60.708C63.4888 58.4109 60.95 57.271 58.6529 58.1346C56.3904 58.9981 55.2332 61.5197 56.0795 63.7823C56.9258 66.0793 59.4819 67.2538 61.7617 66.3902C64.0588 65.5439 65.216 63.0051 64.3524 60.708ZM87.4957 104.335C85.2332 105.198 84.1279 107.72 84.9914 110C85.855 112.262 88.3938 113.402 90.6564 112.539C92.9016 111.675 94.0588 109.119 93.2125 106.874C92.3489 104.594 89.7928 103.454 87.4957 104.335ZM63.1261 100.121C65.4059 99.2572 66.5286 96.7529 65.665 94.4731C64.8014 92.2106 62.2971 91.0534 60.0173 91.8997C57.7548 92.746 56.5804 95.3539 57.4439 97.5992C58.3248 99.8617 60.8636 100.984 63.1261 100.121ZM105.009 102.401C105.855 104.629 108.325 105.751 110.57 104.905C112.798 104.059 113.938 101.589 113.109 99.3608C112.28 97.1329 109.724 95.9757 107.496 96.822C105.268 97.6855 104.162 100.173 105.009 102.401ZM49.9655 77.5992C50.8118 79.8272 53.2816 80.9498 55.5096 80.1035C57.7375 79.2572 58.8602 76.7874 58.0484 74.5595C57.2194 72.3315 54.6633 71.1743 52.4526 72.0379C50.2246 72.8842 49.1192 75.3712 49.9655 77.5992ZM104.111 45.6303C103.264 43.4196 100.829 42.3142 98.6011 43.1605C96.3904 43.9895 95.285 46.4766 96.1141 48.67C96.9431 50.8634 99.4474 51.9861 101.641 51.157C103.852 50.3108 104.957 47.841 104.111 45.6303ZM119.206 67.3228C121.399 66.4938 122.504 64.0586 121.675 61.8652C120.846 59.689 118.377 58.5836 116.2 59.4299C114.042 60.2589 112.953 62.6769 113.765 64.8531C114.594 67.0465 117.012 68.1519 119.206 67.3228ZM74.9396 40.7943C72.7462 41.6061 71.6235 44.0413 72.4526 46.2348C73.2643 48.4109 75.7341 49.5336 77.9102 48.7045C80.0691 47.8928 81.1745 45.4748 80.3628 43.2987C79.551 41.088 77.1503 39.9653 74.9396 40.7943ZM77.6685 108.273C75.4923 109.085 74.3869 111.502 75.216 113.661C76.0277 115.803 78.4284 116.908 80.57 116.114C82.7462 115.302 83.8688 112.919 83.0571 110.725C82.2626 108.566 79.8446 107.461 77.6685 108.273ZM62.4698 49.9826C63.2816 52.1588 65.6823 53.2641 67.8584 52.4524C70.0001 51.6406 71.1054 49.2572 70.3282 47.0983C69.5337 44.9222 67.1158 43.7995 64.9569 44.594C62.7807 45.4057 61.6754 47.8064 62.4698 49.9826ZM61.4336 107.496C62.2453 109.672 64.6633 110.76 66.8222 109.948C68.9983 109.136 70.0864 106.718 69.2574 104.542C68.4457 102.401 66.045 101.312 63.9033 102.107C61.7272 102.901 60.6218 105.319 61.4336 107.496ZM120.035 69.3954C117.858 70.2071 116.753 72.6251 117.582 74.784C118.394 76.9601 120.812 78.0482 122.988 77.2192C125.147 76.4075 126.218 74.0413 125.423 71.8652C124.611 69.7063 122.193 68.6009 120.035 69.3954ZM110.104 54.8358C110.933 56.9774 113.282 58.0137 115.423 57.1847C117.548 56.3557 118.601 53.9895 117.789 51.8652C116.978 49.7581 114.577 48.6873 112.453 49.499C110.328 50.328 109.275 52.7114 110.104 54.8358ZM84.8705 37.1329C82.7289 37.9619 81.6926 40.3108 82.5216 42.4524C83.3334 44.5767 85.7168 45.6303 87.8412 44.8185C89.9482 44.0068 91.0191 41.6061 90.2073 39.4817C89.3956 37.3747 87.0121 36.3211 84.8705 37.1329ZM122.815 95.6303C122.021 93.5405 119.706 92.4869 117.599 93.2987C115.51 94.0931 114.456 96.4247 115.233 98.5146C116.028 100.622 118.394 101.692 120.501 100.881C122.591 100.069 123.627 97.7201 122.815 95.6303ZM53.9897 64.6113C53.1952 62.5042 50.8809 61.4679 48.7738 62.2624C46.684 63.0569 45.6132 65.3712 46.3904 67.461C47.1849 69.5681 49.551 70.6389 51.6581 69.8272C53.7479 69.0327 54.7842 66.7011 53.9897 64.6113ZM123.869 79.6026C121.779 80.3971 120.76 82.6769 121.554 84.7494C122.349 86.822 124.663 87.8582 126.719 87.0638C128.757 86.2866 129.793 83.9722 129.016 81.9342C128.256 79.8617 125.941 78.8254 123.869 79.6026ZM55.0432 48.5664C52.9534 49.3436 51.9172 51.6234 52.7116 53.7132C53.4888 55.7857 55.8032 56.822 57.8757 56.0448C59.9137 55.2676 60.95 52.9705 60.19 50.9152C59.4301 48.8427 57.133 47.7892 55.0432 48.5664ZM51.4681 88.48C50.7082 86.4247 48.4629 85.4057 46.4249 86.1829C44.3869 86.9429 43.3507 89.2054 44.1106 91.2434C44.8705 93.2641 47.1503 94.3004 49.171 93.5577C51.1918 92.7805 52.228 90.518 51.4681 88.48ZM99.2056 116.01C99.9655 118.048 102.228 119.085 104.249 118.342C106.269 117.599 107.323 115.302 106.563 113.281C105.803 111.243 103.541 110.207 101.503 110.967C99.4647 111.727 98.4457 113.972 99.2056 116.01ZM94.2315 122.072C96.2522 121.33 97.2712 119.102 96.5113 117.081C95.7686 115.06 93.5234 114.041 91.5199 114.784C89.5165 115.527 88.4802 117.772 89.2401 119.793C89.9828 121.813 92.2108 122.832 94.2315 122.072ZM47.9448 101.209C48.722 103.212 50.9672 104.214 52.9707 103.437C54.9742 102.677 55.9586 100.414 55.1987 98.4109C54.4215 96.4075 52.1762 95.423 50.1728 96.1829C48.152 96.9602 47.1503 99.2054 47.9448 101.209ZM95.0087 33.575C92.988 34.3349 91.9862 36.5629 92.7634 38.5836C93.5234 40.5698 95.7514 41.5716 97.7375 40.8116C99.741 40.0517 100.76 37.7719 99.9828 35.7857C99.2056 33.8168 96.9949 32.8151 95.0087 33.575ZM106.529 44.7149C107.288 46.7356 109.516 47.7374 111.537 46.9601C113.523 46.2002 114.525 43.9722 113.765 41.9861C113.005 39.9826 110.725 38.9636 108.739 39.7408C106.753 40.5007 105.769 42.7287 106.529 44.7149ZM65.5268 117.34C66.2868 119.344 68.4802 120.328 70.4837 119.568C72.4698 118.808 73.4716 116.58 72.7289 114.594C71.9862 112.625 69.7237 111.606 67.7548 112.349C65.7686 113.126 64.7669 115.354 65.5268 117.34ZM109.257 112.262C110.017 114.249 112.263 115.216 114.249 114.439C116.2 113.679 117.168 111.451 116.39 109.482C115.613 107.513 113.437 106.546 111.451 107.288C109.482 108.048 108.48 110.276 109.257 112.262ZM40.4318 81.2261C41.1918 83.2123 43.437 84.1795 45.4232 83.4023C47.3748 82.6424 48.342 80.4144 47.5821 78.4627C46.8222 76.4938 44.6287 75.5094 42.6598 76.2693C40.6391 77.012 39.6546 79.2399 40.4318 81.2261ZM56.7358 113.264C58.6356 112.487 59.551 110.363 58.7911 108.463C58.0139 106.528 55.855 105.613 53.9379 106.407C52.0553 107.167 51.1572 109.344 51.9172 111.243C52.6771 113.109 54.836 114.024 56.7358 113.264ZM86.3558 120.812C85.5786 118.912 83.4543 117.996 81.5545 118.756C79.6374 119.534 78.722 121.692 79.4992 123.61C80.2591 125.492 82.4353 126.39 84.3351 125.63C86.2177 124.888 87.133 122.711 86.3558 120.812ZM73.9379 38.1691C75.8377 37.4437 76.8049 35.2849 76.0622 33.385C75.3196 31.5197 73.1952 30.5698 71.3127 31.2779C69.4128 31.9861 68.4457 34.1277 69.171 36.0448C69.9137 37.9791 72.0208 38.9118 73.9379 38.1691ZM124.231 60.9152C124.957 62.8323 127.116 63.7823 128.998 63.0396C130.898 62.2969 131.848 60.138 131.105 58.2382C130.363 56.3557 128.256 55.423 126.356 56.1484C124.439 56.8911 123.506 58.9981 124.231 60.9152ZM47.7548 59.5163C49.6546 58.7909 50.5873 56.6838 49.8619 54.784C49.1365 52.9014 47.0294 51.9342 45.1469 52.6424C43.247 53.3505 42.2799 55.5439 43.0052 57.4265C43.7652 59.309 45.8722 60.2417 47.7548 59.5163ZM132.47 91.9688C131.744 90.069 129.637 89.1363 127.738 89.8617C125.855 90.5871 124.888 92.6942 125.596 94.5767C126.304 96.4765 128.497 97.4437 130.38 96.7011C132.28 95.9757 133.195 93.8686 132.47 91.9688ZM128.014 70.8289C128.722 72.7287 130.829 73.6786 132.729 72.9705C134.629 72.2624 135.579 70.1553 134.853 68.2555C134.145 66.3729 132.073 65.4403 130.19 66.1311C128.273 66.822 127.306 68.9291 128.014 70.8289ZM61.3299 35.1121C59.4301 35.8203 58.4802 37.9273 59.2056 39.8272C59.931 41.7097 62.0381 42.6596 63.9379 41.9342C65.8032 41.2089 66.7358 39.1363 66.045 37.2538C65.3196 35.3539 63.2298 34.404 61.3299 35.1121ZM122.591 46.2348C120.725 46.9429 119.81 49.0154 120.518 50.8634C121.226 52.7114 123.299 53.6441 125.147 52.936C126.995 52.2279 127.928 50.1553 127.219 48.29C126.529 46.4593 124.456 45.5266 122.591 46.2348ZM38.9292 66.4766C37.064 67.1847 36.1313 69.2572 36.8394 71.1052C37.5476 72.9532 39.6201 73.9032 41.4681 73.195C43.3161 72.4869 44.2488 70.4144 43.5579 68.5664C42.8498 66.7011 40.7945 65.7684 38.9292 66.4766ZM119.465 108.342C120.156 110.207 122.228 111.14 124.093 110.449C125.959 109.758 126.891 107.686 126.2 105.82C125.51 103.955 123.454 103.022 121.589 103.713C119.724 104.421 118.774 106.494 119.465 108.342ZM79.1883 32.2106C79.8792 34.0759 81.9344 35.0258 83.7997 34.3349C85.665 33.6441 86.6149 31.5888 85.9241 29.7235C85.2332 27.8583 83.1607 26.9083 81.3127 27.5992C79.4474 28.29 78.5147 30.3626 79.1883 32.2106ZM103.126 34.6804C103.817 36.4593 105.838 37.3574 107.617 36.6838C109.413 35.993 110.328 33.9032 109.62 32.1415C108.895 30.328 106.874 29.4645 105.061 30.1899C103.282 30.8634 102.418 32.8669 103.126 34.6804ZM138.48 78.3073C137.789 76.5111 135.786 75.6303 133.99 76.3038C132.193 76.9774 131.295 78.9981 131.969 80.7771C132.66 82.5905 134.715 83.5059 136.494 82.7978C138.29 82.1069 139.171 80.1035 138.48 78.3073ZM51.4163 39.05C49.6201 39.7408 48.722 41.727 49.3956 43.5232C50.0691 45.3194 52.0726 46.2348 53.8688 45.5612C55.6823 44.8876 56.5976 42.8323 55.9068 41.0361C55.216 39.2572 53.2125 38.3591 51.4163 39.05ZM55.9586 121.002C56.6495 122.763 58.5838 123.61 60.3455 122.936C62.0899 122.262 62.9707 120.293 62.2799 118.532C61.6063 116.787 59.6028 115.924 57.8757 116.597C56.1313 117.288 55.2678 119.24 55.9586 121.002ZM69.741 127.202C70.4146 128.964 72.3489 129.827 74.1279 129.154C75.8895 128.48 76.7704 126.528 76.0968 124.767C75.4232 123.022 73.437 122.141 71.6926 122.815C69.9482 123.489 69.0674 125.44 69.741 127.202ZM91.3817 24.0241C89.6374 24.6804 88.7738 26.6147 89.4301 28.3418C90.0864 30.1035 92.0726 31.0016 93.7997 30.3108C95.5268 29.6372 96.3904 27.6683 95.7341 25.9584C95.0605 24.2486 93.1089 23.3678 91.3817 24.0241ZM121.278 42.7287C123.023 42.0724 123.903 40.1553 123.247 38.4109C122.591 36.6493 120.622 35.7512 118.877 36.442C117.15 37.1156 116.287 39.0672 116.943 40.7943C117.599 42.5215 119.534 43.385 121.278 42.7287ZM36.6322 90.5007C34.8878 91.1743 34.0415 93.0914 34.7324 94.8358C35.4059 96.5456 37.323 97.3919 39.0329 96.7356C40.76 96.0793 41.6235 94.1104 40.95 92.3833C40.2937 90.6907 38.3593 89.8444 36.6322 90.5007ZM103.575 125.907C104.266 127.634 106.235 128.445 107.962 127.737C109.655 127.046 110.466 125.078 109.776 123.385C109.085 121.658 107.116 120.846 105.389 121.572C103.679 122.28 102.884 124.197 103.575 125.907ZM95.5096 125.354C93.817 125.993 92.9362 127.876 93.5579 129.568C94.197 131.295 96.0968 132.176 97.8239 131.537C99.5337 130.898 100.415 128.946 99.7583 127.254C99.0847 125.561 97.2021 124.715 95.5096 125.354ZM38.5147 104.749C39.1538 106.442 41.0536 107.306 42.7462 106.684C44.4733 106.045 45.3541 104.128 44.6978 102.418C44.0588 100.708 42.1071 99.8272 40.4146 100.501C38.722 101.157 37.8757 103.04 38.5147 104.749ZM117.789 123.92C119.465 123.281 120.294 121.364 119.637 119.706C118.981 118.048 117.064 117.202 115.423 117.858C113.748 118.515 112.936 120.397 113.575 122.072C114.249 123.748 116.114 124.559 117.789 123.92ZM35.2159 86.6493C36.8912 86.0102 37.7203 84.145 37.0812 82.4524C36.4422 80.7771 34.5424 79.9308 32.8843 80.5871C31.2263 81.2261 30.38 83.1432 31.0191 84.8013C31.6581 86.4593 33.5406 87.2883 35.2159 86.6493ZM135.855 102.141C135.216 100.449 133.351 99.6372 131.675 100.293C130.017 100.95 129.206 102.798 129.845 104.439C130.484 106.114 132.383 106.943 134.042 106.287C135.665 105.665 136.477 103.8 135.855 102.141ZM37.5476 62.9014C39.2401 62.2797 40.0864 60.4317 39.4474 58.7391C38.8083 57.081 36.9776 56.2348 35.3196 56.8565C33.6443 57.4783 32.7807 59.3608 33.4197 61.0361C34.0415 62.6942 35.8895 63.5232 37.5476 62.9014ZM140.138 92.4697C141.779 91.8306 142.591 90.0171 141.952 88.3764C141.313 86.7356 139.482 85.9239 137.858 86.5629C136.235 87.1847 135.406 89.0327 136.045 90.6734C136.667 92.2969 138.497 93.1087 140.138 92.4697ZM39.6892 47.1847C40.2937 48.8254 42.1244 49.6717 43.7652 49.0672C45.4059 48.4627 46.2522 46.632 45.6477 44.9912C45.0432 43.3505 43.2298 42.5042 41.5717 43.126C39.8964 43.7304 39.0674 45.5266 39.6892 47.1847ZM44.3006 110.656C42.6771 111.261 41.8481 113.074 42.4526 114.698C43.0571 116.304 44.8878 117.15 46.494 116.546C48.1175 115.941 48.9292 114.128 48.3248 112.504C47.7203 110.863 45.9241 110.034 44.3006 110.656ZM83.7824 133.299C84.3869 134.922 86.1831 135.751 87.8066 135.129C89.4301 134.525 90.2419 132.694 89.6374 131.088C89.0329 129.499 87.2539 128.687 85.6305 129.257C84.0242 129.862 83.178 131.675 83.7824 133.299ZM134.819 56.9083C135.423 58.48 137.185 59.2745 138.774 58.6527C140.363 58.0482 141.14 56.2866 140.518 54.6976C139.896 53.1087 138.152 52.3315 136.563 52.936C135.009 53.5577 134.214 55.3367 134.819 56.9083ZM65.9759 25.8548C66.5804 27.4437 68.3248 28.2382 69.9137 27.6337C71.5026 27.0465 72.2971 25.2848 71.6926 23.6959C71.0881 22.107 69.3438 21.3125 67.7548 21.917C66.1831 22.5215 65.3887 24.2831 65.9759 25.8548ZM59.9137 31.3988C61.4854 30.7943 62.2626 29.0672 61.6581 27.4956C61.0709 25.9412 59.3092 25.1467 57.7548 25.7339C56.2004 26.3211 55.4232 28.1 56.0104 29.6545C56.5976 31.2089 58.3593 31.9861 59.9137 31.3988ZM140.363 62.9532C138.808 63.5577 138.014 65.3021 138.618 66.8565C139.223 68.4109 141.002 69.1881 142.539 68.6009C144.093 67.9964 144.871 66.252 144.266 64.6804C143.662 63.1087 141.934 62.3487 140.363 62.9532ZM31.3127 76.442C32.8843 75.8548 33.6788 74.1277 33.0916 72.556C32.5044 70.9843 30.7773 70.1899 29.2056 70.7598C27.6512 71.3298 26.8394 73.0914 27.4267 74.6631C27.9966 76.2175 29.741 77.012 31.3127 76.442ZM123.817 118.169C124.421 119.741 126.149 120.501 127.72 119.896C129.257 119.309 130.035 117.582 129.465 116.045C128.895 114.49 127.133 113.679 125.579 114.266C124.007 114.853 123.23 116.615 123.817 118.169ZM119.119 28.5318C118.515 26.9774 116.77 26.2175 115.199 26.8393C113.679 27.4437 112.919 29.1881 113.506 30.708C114.111 32.2624 115.872 33.0396 117.409 32.4351C118.964 31.8306 119.724 30.0862 119.119 28.5318ZM99.7755 24.4731C100.363 26.0102 102.09 26.7874 103.627 26.2002C105.181 25.613 105.976 23.8513 105.371 22.2969C104.767 20.7598 103.057 19.9826 101.52 20.5698C99.9482 21.1743 99.171 22.9014 99.7755 24.4731ZM131.123 46.8738C131.71 48.3937 133.402 49.1536 134.922 48.5836C136.442 48.0137 137.237 46.2348 136.649 44.7322C136.045 43.195 134.335 42.4524 132.781 43.0569C131.278 43.6441 130.535 45.3367 131.123 46.8738ZM65.665 128.705C65.0778 127.185 63.3852 126.442 61.8653 127.012C60.3282 127.599 59.551 129.344 60.1382 130.863C60.7255 132.366 62.4526 133.126 63.9552 132.556C65.4923 131.986 66.2522 130.259 65.665 128.705ZM77.7548 18.2555C76.2177 18.8427 75.4405 20.5871 76.045 22.107C76.6322 23.6095 78.3593 24.3695 79.8619 23.7995C81.399 23.2123 82.159 21.4852 81.5545 19.9481C80.9672 18.4109 79.2747 17.6683 77.7548 18.2555ZM51.5199 31.2952C50.95 29.8444 49.3265 29.1363 47.8412 29.7063C46.3904 30.2762 45.665 31.9342 46.2177 33.3678C46.7876 34.8185 48.4457 35.5612 49.8964 35.0085C51.3817 34.4386 52.1071 32.7805 51.5199 31.2952ZM142.608 76.822C143.178 78.2728 144.801 78.9981 146.269 78.4282C147.72 77.8582 148.463 76.2175 147.893 74.7667C147.34 73.3159 145.665 72.5733 144.231 73.1259C142.746 73.6614 142.021 75.3367 142.608 76.822ZM48.152 120.898C46.684 121.451 45.9586 123.091 46.5286 124.559C47.0812 126.028 48.7393 126.753 50.19 126.2C51.6408 125.648 52.3835 123.972 51.8308 122.539C51.2609 121.071 49.6201 120.345 48.152 120.898ZM79.3438 134.991C78.7911 133.523 77.1676 132.798 75.6995 133.35C74.2315 133.903 73.5061 135.544 74.0588 137.012C74.6115 138.463 76.2695 139.205 77.7203 138.653C79.171 138.1 79.9137 136.459 79.3438 134.991ZM140.259 100.535C140.812 101.934 142.383 102.625 143.782 102.09C145.199 101.537 145.907 99.9135 145.354 98.5146C144.784 97.0983 143.195 96.4247 141.762 96.9947C140.363 97.5646 139.706 99.119 140.259 100.535ZM87.8412 14.6804C86.4422 15.2158 85.7168 16.7702 86.2349 18.1864C86.7531 19.6026 88.3766 20.3453 89.7928 19.8099C91.209 19.2745 91.9172 17.6683 91.3645 16.252C90.7945 14.8185 89.2574 14.1277 87.8412 14.6804ZM33.6097 52.4178C35.026 51.8824 35.7168 50.328 35.1814 48.9118C34.646 47.4956 33.0916 46.7874 31.6754 47.3056C30.2591 47.8237 29.5165 49.4645 30.0691 50.8634C30.6391 52.2624 32.2108 52.9532 33.6097 52.4178ZM127.548 36.7702C128.083 38.1864 129.637 38.8945 131.054 38.3764C132.453 37.8582 133.178 36.2693 132.66 34.8703C132.142 33.4368 130.535 32.7287 129.102 33.2814C127.703 33.7995 127.012 35.3367 127.548 36.7702ZM25.5441 61.1743C24.1797 61.6924 23.4888 63.2123 23.9724 64.5767C24.4733 65.9411 26.0622 66.6665 27.4267 66.1484C28.8083 65.6303 29.4819 64.0759 28.9465 62.6769C28.4284 61.3125 26.9085 60.6562 25.5441 61.1743ZM134.145 114.231C134.663 115.613 136.166 116.304 137.53 115.803C138.929 115.285 139.637 113.748 139.102 112.366C138.584 111.002 137.047 110.311 135.682 110.829C134.335 111.33 133.644 112.867 134.145 114.231ZM111.451 137.029C112.798 136.477 113.437 134.922 112.884 133.575C112.332 132.262 110.795 131.623 109.482 132.141C108.135 132.677 107.478 134.214 108.031 135.578C108.567 136.96 110.069 137.599 111.451 137.029ZM26.874 94.974C25.5096 95.5094 24.836 97.012 25.3887 98.3937C25.9241 99.7408 27.4094 100.397 28.7565 99.8962C30.121 99.3781 30.8118 97.841 30.2937 96.4938C29.7755 95.1121 28.2557 94.4386 26.874 94.974ZM97.9966 139.292C98.4975 140.656 99.9828 141.33 101.347 140.829C102.694 140.328 103.385 138.808 102.867 137.478C102.366 136.166 100.881 135.475 99.551 135.958C98.2039 136.425 97.4957 137.945 97.9966 139.292ZM32.5216 109.775C33.8688 109.257 34.5251 107.755 34.007 106.407C33.4888 105.078 32.0035 104.439 30.6909 104.939C29.3438 105.458 28.6875 106.96 29.2056 108.307C29.7065 109.637 31.1918 110.293 32.5216 109.775ZM118.031 131.744C118.532 133.04 120 133.696 121.295 133.195C122.591 132.694 123.247 131.226 122.746 129.931C122.245 128.635 120.777 127.979 119.482 128.48C118.169 128.981 117.53 130.449 118.031 131.744ZM36.5286 37.0465C37.0294 38.3418 38.4975 38.9981 39.7928 38.4973C41.0881 37.9964 41.7444 36.5284 41.2436 35.233C40.7427 33.9377 39.2747 33.2814 37.9793 33.7823C36.6667 34.2831 36.0277 35.7339 36.5286 37.0465ZM146.667 86.632C147.168 87.9446 148.636 88.5836 149.931 88.0655C151.226 87.5646 151.865 86.0793 151.347 84.784C150.846 83.5059 149.396 82.8842 148.117 83.3678C146.805 83.8686 146.149 85.3194 146.667 86.632ZM23.0743 85.0776C21.779 85.613 21.1745 87.081 21.7099 88.3764C22.2626 89.6717 23.7306 90.2762 25.026 89.7235C26.304 89.1881 26.9085 87.6855 26.3558 86.3902C25.8204 85.1467 24.3524 84.5422 23.0743 85.0776ZM110.207 20.5007C110.708 21.7961 112.107 22.4351 113.42 21.9342C114.715 21.4507 115.354 19.9999 114.871 18.7218C114.387 17.4437 112.919 16.7874 111.641 17.271C110.363 17.7719 109.706 19.2054 110.207 20.5007ZM89.6201 139.931C88.3766 140.414 87.7548 141.813 88.2557 143.057C88.7393 144.283 90.1037 144.888 91.3299 144.421C92.5907 143.955 93.2125 142.556 92.7289 141.312C92.2626 140.069 90.8636 139.447 89.6201 139.931ZM36.3213 119.603C37.5648 119.084 38.1348 117.686 37.6166 116.442C37.1158 115.216 35.6823 114.646 34.456 115.164C33.2643 115.665 32.6771 117.081 33.178 118.29C33.6788 119.534 35.0778 120.121 36.3213 119.603ZM52.1071 131.347C50.8809 131.831 50.2937 133.178 50.7773 134.421C51.2436 135.613 52.608 136.217 53.817 135.768C55.026 135.319 55.665 133.903 55.1987 132.694C54.6978 131.485 53.3334 130.881 52.1071 131.347ZM68.8947 138.964C68.4457 137.755 67.0985 137.133 65.8895 137.582C64.646 138.031 64.0242 139.43 64.5078 140.639C64.9742 141.848 66.3386 142.452 67.5476 141.986C68.7393 141.537 69.361 140.173 68.8947 138.964ZM124.128 26.6838C124.594 27.8928 125.941 28.4973 127.15 28.0482C128.377 27.5819 128.998 26.2002 128.497 24.9912C128.014 23.7823 126.667 23.195 125.458 23.6786C124.266 24.1277 123.679 25.4748 124.128 26.6838ZM96.6149 14.2659C97.064 15.4748 98.4111 16.0966 99.6201 15.6475C100.829 15.1985 101.451 13.8513 101.019 12.6424C100.57 11.3988 99.2056 10.7771 97.9793 11.2434C96.7703 11.7097 96.1659 13.0569 96.6149 14.2659ZM18.1175 78.2209C18.5838 79.4127 19.9137 79.9826 21.1054 79.499C22.2626 79.0327 22.8325 77.7201 22.3662 76.5456C21.9172 75.3885 20.6045 74.8013 19.4301 75.2503C18.2557 75.7166 17.6512 77.0292 18.1175 78.2209ZM129.551 124.922C128.377 125.388 127.789 126.736 128.273 127.91C128.739 129.067 130.052 129.637 131.226 129.171C132.418 128.705 132.988 127.375 132.504 126.183C132.038 125.026 130.725 124.473 129.551 124.922ZM62.9534 15.5785C63.4025 16.7529 64.7151 17.3401 65.8723 16.8911C67.0294 16.442 67.6166 15.0949 67.1676 13.955C66.7185 12.8151 65.4232 12.2451 64.2833 12.6769C63.0916 13.1087 62.5044 14.3867 62.9534 15.5785ZM149.724 51.2434C149.275 50.069 147.997 49.499 146.805 49.9481C145.665 50.3971 145.078 51.6752 145.492 52.8151C145.907 53.9722 147.254 54.594 148.411 54.1622C149.586 53.7304 150.173 52.4178 149.724 51.2434ZM52.9707 19.3781C53.4198 20.5353 54.7151 21.088 55.855 20.6389C56.9949 20.1899 57.5476 18.9463 57.1158 17.8064C56.684 16.6493 55.4059 16.0621 54.2488 16.5111C53.1089 16.9256 52.5389 18.2209 52.9707 19.3781ZM149.309 62.7633C149.741 63.9204 151.019 64.5249 152.159 64.0931C153.316 63.6614 153.903 62.366 153.472 61.2261C153.04 60.0862 151.796 59.5163 150.656 59.9308C149.482 60.328 148.895 61.5888 149.309 62.7633ZM144.611 44.0586C145.717 43.6441 146.269 42.4006 145.855 41.2952C145.423 40.1553 144.18 39.6026 143.04 40.0517C141.934 40.4835 141.382 41.727 141.814 42.8323C142.245 43.9204 143.506 44.4731 144.611 44.0586ZM74.266 8.98088C73.1434 9.39539 72.5735 10.6216 72.988 11.727C73.4025 12.8496 74.6805 13.4368 75.8032 13.0051C76.9085 12.5733 77.4612 11.347 77.0294 10.2244C76.5976 9.11905 75.3887 8.56637 74.266 8.98088ZM147.34 111.485C148.428 111.071 148.947 109.896 148.549 108.808C148.135 107.703 146.926 107.15 145.838 107.582C144.767 107.996 144.231 109.205 144.629 110.276C145.026 111.364 146.235 111.917 147.34 111.485ZM24.646 52.9014C24.2315 51.8133 23.0571 51.2779 21.969 51.6752C20.8636 52.0897 20.3109 53.2987 20.7254 54.3867C21.14 55.4748 22.3835 56.0102 23.4716 55.5957C24.5424 55.1812 25.0605 53.9722 24.646 52.9014ZM39.8964 129.24C40.9672 128.825 41.4854 127.634 41.0536 126.563C40.6391 125.527 39.4474 125.008 38.4111 125.406C37.3748 125.82 36.8394 126.995 37.2194 128.048C37.6166 129.119 38.8256 129.654 39.8964 129.24ZM78.5493 146.684C78.9465 147.737 80.121 148.273 81.1745 147.893C82.2453 147.496 82.798 146.287 82.3835 145.216C81.969 144.145 80.76 143.627 79.6892 144.041C78.6702 144.456 78.152 145.63 78.5493 146.684ZM30.76 39.2054C30.3455 38.1346 29.2056 37.6337 28.1348 38.0482C27.0985 38.4455 26.5804 39.5854 26.9603 40.6216C27.3403 41.6579 28.5493 42.2106 29.5856 41.8306C30.6391 41.4334 31.1745 40.2589 30.76 39.2054ZM150.915 96.442C151.313 97.5128 152.487 98.031 153.523 97.6337C154.56 97.2365 155.095 96.0275 154.698 94.9912C154.301 93.9722 153.143 93.4541 152.107 93.8341C151.036 94.2313 150.501 95.3712 150.915 96.442ZM155.872 73.9032C156.943 73.5059 157.461 72.366 157.064 71.2952C156.667 70.2589 155.527 69.7408 154.491 70.1035C153.454 70.4835 152.902 71.6924 153.299 72.7287C153.679 73.765 154.836 74.2831 155.872 73.9032ZM46.9776 21.6406C46.5976 20.5871 45.4577 20.069 44.4215 20.4489C43.3507 20.8289 42.8153 22.0206 43.2125 23.0569C43.6097 24.0759 44.7842 24.6113 45.8032 24.214C46.8394 23.8341 47.3576 22.6769 46.9776 21.6406ZM86.7531 6.5111C86.3731 5.54392 85.2678 5.0776 84.3006 5.47483C83.3679 5.8548 82.9016 6.92561 83.2643 7.87552C83.6443 8.84271 84.7496 9.3263 85.6995 8.94633C86.6667 8.56637 87.133 7.47829 86.7531 6.5111ZM141.796 31.3643C141.416 30.3971 140.345 29.9135 139.361 30.2935C138.394 30.6734 137.91 31.7788 138.307 32.7287C138.687 33.6786 139.758 34.145 140.708 33.7995C141.675 33.4196 142.176 32.3315 141.796 31.3643ZM18.2039 66.822C17.8412 65.8548 16.8222 65.3712 15.855 65.7166C14.8878 66.0793 14.4042 67.1156 14.7496 68.0828C15.0951 69.0154 16.1831 69.5336 17.1158 69.1881C18.0657 68.8427 18.5493 67.7719 18.2039 66.822ZM138.687 123.903C139.05 124.87 140.104 125.354 141.054 124.991C141.986 124.646 142.487 123.54 142.142 122.608C141.779 121.658 140.725 121.174 139.758 121.537C138.791 121.9 138.325 122.936 138.687 123.903ZM108.135 8.03096C107.237 8.37639 106.788 9.37811 107.116 10.2762C107.461 11.1916 108.48 11.6406 109.396 11.2779C110.294 10.9152 110.725 9.93079 110.363 9.03269C110.035 8.13459 109.033 7.68554 108.135 8.03096ZM124.128 15.1985C123.765 14.3004 122.798 13.8859 121.883 14.2486C121.019 14.594 120.587 15.5785 120.915 16.4593C121.244 17.3401 122.28 17.8064 123.161 17.461C124.059 17.0983 124.491 16.0966 124.128 15.1985ZM16.3386 101.744C16.6322 102.573 17.5648 103.022 18.4111 102.746C19.2747 102.452 19.741 101.485 19.4128 100.639C19.102 99.7926 18.1866 99.3608 17.3403 99.6372C16.4767 99.9308 16.0277 100.881 16.3386 101.744ZM113.662 143.074C112.833 143.385 112.383 144.318 112.694 145.164C113.005 146.027 113.955 146.477 114.819 146.166C115.682 145.838 116.114 144.888 115.786 144.024C115.44 143.195 114.491 142.763 113.662 143.074ZM157.461 82.5387C157.789 83.385 158.705 83.7823 159.551 83.4541C160.38 83.126 160.795 82.1933 160.484 81.3643C160.156 80.5353 159.206 80.1208 158.377 80.4489C157.53 80.7771 157.133 81.7097 157.461 82.5387ZM33.6097 26.7011C33.9379 27.5301 34.836 27.9273 35.665 27.5992C36.4767 27.2883 36.9085 26.3729 36.5976 25.5439C36.2868 24.7149 35.3023 24.2831 34.4906 24.6113C33.6788 24.974 33.2989 25.8893 33.6097 26.7011ZM20.1728 111.71C20.4837 112.521 21.399 112.953 22.2108 112.66C23.0398 112.349 23.4716 111.364 23.1434 110.553C22.8153 109.741 21.8999 109.344 21.0709 109.672C20.2419 109.983 19.8446 110.863 20.1728 111.71ZM105.7 147.824C105.371 147.012 104.473 146.615 103.644 146.943C102.833 147.271 102.418 148.204 102.746 148.998C103.074 149.81 104.024 150.207 104.819 149.896C105.63 149.568 106.01 148.635 105.7 147.824ZM12.6944 91.7097C13.0052 92.5042 13.8515 92.8669 14.6287 92.5733C15.4059 92.2797 15.7859 91.3988 15.4923 90.6389C15.1987 89.8617 14.3178 89.4817 13.5406 89.7753C12.7807 90.069 12.4008 90.9325 12.6944 91.7097ZM123.679 139.447C122.884 139.741 122.487 140.57 122.781 141.364C123.074 142.159 123.921 142.556 124.698 142.28C125.475 142.003 125.89 141.122 125.596 140.345C125.32 139.551 124.456 139.154 123.679 139.447ZM136.788 23.3678C137.513 23.0914 137.858 22.2797 137.582 21.5543C137.306 20.8289 136.494 20.4835 135.769 20.7598C135.061 21.0361 134.698 21.8652 134.974 22.5733C135.25 23.2987 136.062 23.6614 136.788 23.3678ZM94.5424 2.10696C93.817 2.36602 93.437 3.1605 93.6961 3.88589C93.9552 4.61127 94.7669 4.99124 95.4923 4.73217C96.2177 4.47311 96.5976 3.66136 96.3386 2.95324C96.0795 2.22786 95.2678 1.84789 94.5424 2.10696ZM158.014 49.309C158.601 49.0845 158.912 48.4455 158.705 47.8755C158.497 47.3056 157.824 46.9947 157.254 47.2019C156.684 47.4092 156.373 48.0655 156.598 48.6527C156.805 49.2399 157.427 49.5163 158.014 49.309ZM61.6581 5.80298C62.2453 5.57846 62.5389 4.9567 62.2971 4.35221C62.0726 3.76499 61.4163 3.47138 60.8463 3.6959C60.2764 3.92043 59.9828 4.594 60.19 5.16395C60.4318 5.75117 61.0709 6.02751 61.6581 5.80298ZM160.397 58.5664C160.587 59.1018 161.192 59.3954 161.744 59.2054C162.297 59.0154 162.591 58.4282 162.401 57.8755C162.211 57.3056 161.572 56.9947 161.019 57.2019C160.501 57.4092 160.207 58.031 160.397 58.5664ZM51.6235 9.5681C52.1417 9.37811 52.4526 8.73908 52.2626 8.20368C52.0726 7.66827 51.4681 7.37466 50.9154 7.54737C50.3282 7.73735 50.0519 8.34184 50.2591 8.92906C50.4837 9.46447 51.0881 9.75808 51.6235 9.5681ZM70.8809 0.0516896C70.38 0.224401 70.1037 0.794349 70.2764 1.31248C70.4491 1.83062 71.0018 2.10696 71.5199 1.93425C72.0553 1.76153 72.3489 1.17431 72.159 0.638909C71.969 0.155317 71.3818 -0.121022 70.8809 0.0516896ZM152.919 38.5836C153.109 39.1018 153.662 39.3608 154.18 39.1709C154.715 38.9809 154.991 38.3764 154.784 37.8582C154.577 37.3747 153.99 37.1156 153.489 37.3056C152.988 37.5128 152.729 38.0828 152.919 38.5836Z" fill="#F2F0FF"/>
<path d="M91.0017 73.0914C91.0017 71.8133 92.038 70.7598 93.3333 70.7598C94.6287 70.7598 95.6649 71.796 95.6649 73.0914C95.6649 74.3867 94.6287 75.423 93.3333 75.423C92.038 75.423 91.0017 74.3694 91.0017 73.0914ZM91.468 73.0914C91.468 74.1104 92.297 74.9394 93.316 74.9394C94.335 74.9394 95.1641 74.1104 95.1641 73.0914C95.1641 72.0724 94.335 71.2434 93.316 71.2434C92.297 71.2261 91.468 72.0551 91.468 73.0914Z" fill="#3F327A"/>
<path d="M144.68 95.9234C144.68 94.6453 145.717 93.5918 147.012 93.5918C148.29 93.5918 149.344 94.6281 149.344 95.9234C149.344 97.2015 148.307 98.255 147.012 98.255C145.717 98.255 144.68 97.2015 144.68 95.9234ZM145.147 95.9234C145.147 96.9424 145.976 97.7714 146.995 97.7714C148.014 97.7714 148.843 96.9424 148.843 95.9234C148.843 94.9044 148.014 94.0754 146.995 94.0754C145.976 94.0754 145.147 94.9044 145.147 95.9234Z" fill="#3F327A"/>
<path d="M13.0916 86.649C13.0916 85.3709 14.1278 84.3174 15.4232 84.3174C16.7185 84.3174 17.7548 85.3537 17.7548 86.649C17.7548 87.9271 16.7185 88.9806 15.4232 88.9806C14.1278 88.9806 13.0916 87.9271 13.0916 86.649ZM13.5751 86.649C13.5751 87.668 14.4042 88.497 15.4232 88.497C16.4422 88.497 17.2712 87.668 17.2712 86.649C17.2712 85.63 16.4422 84.801 15.4232 84.801C14.4042 84.801 13.5751 85.63 13.5751 86.649Z" fill="#3F327A"/>
<path d="M1.6062 72.5899C1.6062 71.8646 2.19342 71.2773 2.91881 71.2773C3.6442 71.2773 4.23142 71.8646 4.23142 72.5899C4.23142 73.3153 3.6442 73.9026 2.91881 73.9026C2.21069 73.9026 1.6062 73.3153 1.6062 72.5899ZM2.08979 72.5899C2.08979 73.0563 2.46976 73.4362 2.93608 73.4362C3.4024 73.4362 3.78237 73.0563 3.78237 72.5899C3.78237 72.1236 3.4024 71.7437 2.93608 71.7437C2.46976 71.7437 2.08979 72.1236 2.08979 72.5899Z" fill="#3F327A"/>
<path d="M156.425 107.358C156.425 106.632 157.012 106.045 157.737 106.045C158.463 106.045 159.05 106.632 159.05 107.358C159.05 108.083 158.463 108.67 157.737 108.67C157.029 108.67 156.425 108.083 156.425 107.358ZM156.908 107.358C156.908 107.824 157.288 108.204 157.755 108.204C158.221 108.204 158.601 107.824 158.601 107.358C158.601 106.891 158.221 106.511 157.755 106.511C157.288 106.511 156.908 106.891 156.908 107.358Z" fill="#3F327A"/>
<path d="M66.4767 21.7267C66.4767 21.0013 67.0639 20.4141 67.7893 20.4141C68.5147 20.4141 69.1019 21.0013 69.1019 21.7267C69.1019 22.4521 68.5147 23.0393 67.7893 23.0393C67.0639 23.0393 66.4767 22.4521 66.4767 21.7267ZM66.9603 21.7267C66.9603 22.193 67.3402 22.573 67.8066 22.573C68.2729 22.573 68.6529 22.193 68.6529 21.7267C68.6529 21.2604 68.2729 20.8804 67.8066 20.8804C67.3402 20.8804 66.9603 21.2604 66.9603 21.7267Z" fill="#3F327A"/>
<path d="M99.4301 34.957C97.8412 34.957 96.5286 36.2524 96.5286 37.8586V52.5736C96.5286 54.1626 97.8239 55.4752 99.4301 55.4752H103.454C103.61 55.4752 103.765 55.5442 103.852 55.6651L108.446 61.5546L113.04 55.6651C113.143 55.5442 113.282 55.4752 113.437 55.4752H133.8C135.389 55.4752 136.701 54.1798 136.701 52.5736V37.8586C136.701 36.2696 135.406 34.957 133.8 34.957H99.4301Z" fill="#FF819F"/>
<path d="M116.218 41.9695H104.145C103.869 41.9695 103.644 41.745 103.644 41.4686C103.644 41.1923 103.869 40.9678 104.145 40.9678H116.218C116.494 40.9678 116.719 41.1923 116.719 41.4686C116.719 41.745 116.494 41.9695 116.218 41.9695Z" fill="white"/>
<path d="M129.067 41.9695H120.915C120.639 41.9695 120.415 41.745 120.415 41.4686C120.415 41.1923 120.639 40.9678 120.915 40.9678H129.067C129.344 40.9678 129.568 41.1923 129.568 41.4686C129.568 41.745 129.344 41.9695 129.067 41.9695Z" fill="white"/>
<path d="M108.584 46.0798H104.162C103.886 46.0798 103.662 45.8553 103.662 45.579C103.662 45.3026 103.886 45.0781 104.162 45.0781H108.584C108.86 45.0781 109.085 45.3026 109.085 45.579C109.085 45.8553 108.86 46.0798 108.584 46.0798Z" fill="white"/>
<path d="M129.067 46.0798H113.282C113.005 46.0798 112.781 45.8553 112.781 45.579C112.781 45.3026 113.005 45.0781 113.282 45.0781H129.067C129.344 45.0781 129.568 45.3026 129.568 45.579C129.568 45.8553 129.344 46.0798 129.067 46.0798Z" fill="white"/>
<path d="M121.503 50.1902H104.162C103.886 50.1902 103.662 49.9657 103.662 49.6893C103.662 49.413 103.886 49.1885 104.162 49.1885H121.52C121.796 49.1885 122.021 49.413 122.021 49.6893C122.004 49.9657 121.779 50.1902 121.503 50.1902Z" fill="white"/>
<path d="M28.3937 44.8701H21.5371C21.4162 44.8701 21.3298 44.9737 21.3298 45.0774V46.7699C21.3298 47.3917 21.8307 47.8926 22.4525 47.8926H22.6252V48.5143C22.6252 49.1534 23.1433 49.6715 23.7823 49.6715H26.1485C26.7875 49.6715 27.3057 49.1534 27.3057 48.5143V47.8926H27.4784C28.1001 47.8926 28.601 47.3917 28.601 46.7699V45.0774C28.601 44.9737 28.4974 44.8701 28.3937 44.8701ZM28.1692 46.7872C28.1692 47.1672 27.8583 47.4781 27.4784 47.4781H27.0811H24.2832H24.2659C24.145 47.4781 24.0587 47.5817 24.0587 47.6853C24.0587 47.7889 24.1623 47.8926 24.2659 47.8926H24.2832H26.8566V48.5143C26.8566 48.9116 26.5285 49.2397 26.1312 49.2397H23.7651C23.3678 49.2397 23.0397 48.9116 23.0397 48.5143V47.668C23.0397 47.5471 22.9361 47.4608 22.8324 47.4608C22.8152 47.4608 22.7806 47.4608 22.7633 47.4781C22.7461 47.4781 22.7115 47.4608 22.6943 47.4608H22.4352C22.0552 47.4608 21.7443 47.1499 21.7443 46.7699V45.3019H28.1692V46.7872Z" fill="#3F327A"/>
<path d="M24.9568 42.504C25.0777 42.504 25.164 42.4004 25.164 42.2968V38.0481C25.993 38.0135 26.8048 37.6854 27.4438 37.0464C27.5302 36.96 27.5302 36.8218 27.4438 36.7355C27.3575 36.6491 27.2193 36.6491 27.1329 36.7355C25.9585 37.9099 24.0587 37.9099 22.8842 36.7355L22.7633 36.6146C22.677 36.5282 22.5388 36.5282 22.4525 36.6146C22.3661 36.7009 22.3661 36.8391 22.4525 36.9255L22.5734 37.0464C23.1779 37.6508 23.9378 37.979 24.7323 38.0308V42.2968C24.7495 42.4004 24.8359 42.504 24.9568 42.504Z" fill="#3F327A"/>
<path d="M31.4853 34.6977C31.3644 34.6977 31.2781 34.8013 31.2781 34.905C31.2781 36.3557 30.7599 37.7892 29.8446 38.9119C28.7738 40.2245 28.1865 41.7098 28.1865 43.2469V43.3506H21.7617V43.2469C21.7617 41.7098 21.1917 40.2072 20.1036 38.8946C19.1883 37.7892 18.6874 36.3903 18.6701 34.9568C18.6529 31.6062 21.4508 28.7046 24.7841 28.6183C27.3403 28.5492 29.6719 30.0172 30.7254 32.3488C30.7772 32.4525 30.8981 32.5043 31.019 32.4524C31.1226 32.4006 31.1745 32.2797 31.1226 32.1588C30 29.6545 27.513 28.1001 24.7841 28.1692C21.1572 28.2728 18.2211 31.3126 18.2384 34.9568C18.2556 36.4939 18.791 37.9965 19.7755 39.1709C20.7945 40.4145 21.3299 41.8307 21.3299 43.2469V43.5751C21.3299 43.696 21.4335 43.7823 21.5371 43.7823H28.3938C28.5147 43.7823 28.6011 43.6787 28.6011 43.5751V43.2469C28.6011 41.8134 29.1365 40.3972 30.1555 39.1709C31.1572 37.9619 31.6926 36.4594 31.6926 34.8877C31.6926 34.8013 31.589 34.6977 31.4853 34.6977Z" fill="#3F327A"/>
<path d="M121.433 134.819H119.085V133.351H121.433C122.314 133.351 123.04 132.626 123.04 131.745C123.04 130.864 122.314 130.139 121.433 130.139H119.085V128.671H121.433C123.126 128.671 124.508 130.053 124.508 131.745C124.508 133.438 123.126 134.819 121.433 134.819Z" fill="#8B77E8"/>
<path d="M121.641 133.334C121.572 133.351 121.503 133.351 121.433 133.351H119.085V134.819H121.433C121.572 134.819 121.71 134.802 121.848 134.785L121.641 133.334Z" fill="#3F327A"/>
<path d="M119.085 130.139H121.192L120.984 128.671H119.085V130.139Z" fill="#3F327A"/>
<path d="M116.839 137.306H113.42C111.537 137.306 110 135.769 110 133.887V126.184H120.259V133.887C120.259 135.769 118.722 137.306 116.839 137.306Z" fill="#8B77E8"/>
<path d="M118.497 126.184V133.299C118.497 135.182 116.96 136.719 115.078 136.719H111.503C112.055 137.082 112.712 137.306 113.42 137.306H117.133C119.016 137.306 120.553 135.769 120.553 133.887V126.184H118.497Z" fill="#3F327A"/>
<path d="M111.762 132.919C111.433 132.919 111.174 132.66 111.174 132.332V128.809C111.174 128.481 111.433 128.222 111.762 128.222C112.09 128.222 112.349 128.481 112.349 128.809V132.332C112.349 132.66 112.073 132.919 111.762 132.919Z" fill="white"/>
<path d="M116.736 121.711C116.615 121.711 116.511 121.642 116.459 121.521C115.285 118.256 114.732 113.472 118.877 109.327C120.553 107.652 121.347 105.545 121.123 103.386C120.933 101.469 119.931 99.6899 118.532 98.7572C118.394 98.6709 118.359 98.4809 118.446 98.36C118.532 98.2218 118.722 98.1873 118.843 98.2736C120.397 99.3099 121.485 101.244 121.693 103.334C121.934 105.683 121.071 107.963 119.275 109.759C115.354 113.68 115.872 118.222 116.995 121.331C117.047 121.486 116.977 121.642 116.822 121.711C116.805 121.711 116.77 121.711 116.736 121.711Z" fill="#CCC2FF"/>
<path d="M111.399 108.843C111.261 108.843 111.123 108.739 111.105 108.584C111.088 108.428 111.192 108.273 111.364 108.256C111.779 108.204 112.504 107.979 112.694 106.995C112.729 106.839 112.884 106.736 113.04 106.77C113.195 106.805 113.299 106.96 113.264 107.116C113.057 108.083 112.401 108.705 111.434 108.826C111.416 108.843 111.416 108.843 111.399 108.843Z" fill="#CCC2FF"/>
<path d="M114.56 111.33C114.508 111.33 114.456 111.313 114.421 111.296C114.283 111.209 114.231 111.037 114.318 110.898C114.577 110.449 114.836 110.018 115.095 109.62L115.13 109.569C115.941 108.256 116.149 106.442 115.63 105.043C115.371 104.335 114.819 103.403 113.627 103.005C112.021 102.487 110.501 102.885 109.534 104.076C108.756 105.043 108.584 106.304 109.102 107.202C109.206 107.375 109.344 107.548 109.516 107.686C109.637 107.79 109.655 107.98 109.551 108.1C109.447 108.221 109.257 108.239 109.136 108.135C108.912 107.945 108.739 107.738 108.601 107.513C107.945 106.408 108.135 104.888 109.067 103.731C110.19 102.332 111.952 101.866 113.8 102.47C114.922 102.833 115.734 103.662 116.183 104.853C116.753 106.442 116.546 108.411 115.63 109.879L115.596 109.931C115.337 110.346 115.078 110.76 114.836 111.192C114.767 111.278 114.663 111.33 114.56 111.33Z" fill="#CCC2FF"/>
<path d="M113.627 117.997C113.506 117.997 113.385 117.911 113.351 117.79C112.85 116.218 112.832 114.698 113.316 113.161C113.368 113.006 113.523 112.919 113.679 112.971C113.834 113.023 113.921 113.178 113.869 113.334C113.437 114.75 113.437 116.149 113.903 117.617C113.955 117.773 113.869 117.928 113.713 117.98C113.679 117.997 113.644 117.997 113.627 117.997Z" fill="#CCC2FF"/>
<path d="M119.896 87.9279C119.862 87.9279 119.81 87.9106 119.775 87.8934C119.637 87.8243 119.568 87.6516 119.637 87.5134C120.794 85.0263 120.104 83.4029 120.086 83.3856C120.017 83.2474 120.086 83.0747 120.225 83.0056C120.363 82.9365 120.535 83.0056 120.605 83.1438C120.639 83.2129 121.434 85.0091 120.138 87.7552C120.104 87.8761 120 87.9279 119.896 87.9279Z" fill="#CCC2FF"/>
<path d="M117.392 102.211C117.288 102.211 117.202 102.159 117.15 102.073C115.078 98.6706 113.731 94.8709 117.824 90.2422C117.927 90.1213 118.117 90.1041 118.238 90.2077C118.359 90.3113 118.377 90.5013 118.273 90.6222C114.646 94.7327 115.406 98.0488 117.668 101.779C117.755 101.918 117.703 102.09 117.565 102.177C117.496 102.194 117.444 102.211 117.392 102.211Z" fill="#CCC2FF"/>
<path d="M161.917 137.306H141.883V131.865H161.917C162.453 131.865 162.902 132.297 162.902 132.85V136.321C162.902 136.874 162.47 137.306 161.917 137.306Z" fill="#C5E1F9"/>
<path d="M161.917 137.306H141.883V131.865H161.917C162.453 131.865 162.902 132.297 162.902 132.85V136.321C162.902 136.874 162.47 137.306 161.917 137.306Z" fill="#8B77E8"/>
<path d="M162.902 132.85C162.902 132.314 162.47 131.865 161.917 131.865H145.855C146.39 131.865 146.839 132.297 146.839 132.85V136.252C146.839 136.494 146.667 136.684 146.425 136.718H141.883V137.306H161.917C161.986 137.306 162.038 137.306 162.09 137.288C162.107 137.288 162.124 137.288 162.142 137.271C162.176 137.254 162.228 137.254 162.263 137.237C162.28 137.237 162.297 137.219 162.314 137.219C162.366 137.202 162.418 137.167 162.47 137.133C162.47 137.133 162.487 137.133 162.487 137.116C162.522 137.081 162.573 137.047 162.608 137.012C162.625 136.995 162.642 136.977 162.642 136.977C162.677 136.943 162.694 136.926 162.712 136.891C162.729 136.874 162.729 136.857 162.746 136.839C162.781 136.788 162.798 136.753 162.832 136.701C162.884 136.58 162.919 136.442 162.919 136.304V132.85H162.902Z" fill="#3F327A"/>
<path d="M129.033 136.805V132.349H142.608C142.884 132.349 143.091 132.573 143.091 132.832V136.304C143.091 136.58 142.867 136.787 142.608 136.787H129.033V136.805Z" fill="white"/>
<path d="M143.091 133.091V136.321C143.091 136.597 142.867 136.805 142.608 136.805H128.791C128.67 136.805 128.549 136.891 128.532 137.012C128.515 137.167 128.618 137.306 128.774 137.306H142.608C143.143 137.306 143.592 136.874 143.592 136.321V133.091C143.592 132.953 143.489 132.85 143.351 132.85C143.212 132.85 143.091 132.953 143.091 133.091Z" fill="#CCC2FF"/>
<path d="M142.608 131.865H128.774C128.635 131.865 128.532 131.969 128.532 132.107C128.532 132.245 128.635 132.349 128.774 132.349H142.608C142.884 132.349 143.091 132.573 143.091 132.832V133.022C143.091 133.161 143.195 133.264 143.333 133.264C143.471 133.264 143.575 133.161 143.575 133.022V132.832C143.592 132.297 143.143 131.865 142.608 131.865Z" fill="#CCC2FF"/>
<path d="M164.042 131.865H144.007V126.425H164.042C164.577 126.425 165.026 126.857 165.026 127.409V130.881C165.026 131.433 164.577 131.865 164.042 131.865Z" fill="#FF819F"/>
<path d="M144.007 131.278V131.866H164.042C164.439 131.866 164.784 131.624 164.94 131.278H144.007Z" fill="#F26184"/>
<path d="M131.157 131.364V126.908H144.732C145.009 126.908 145.216 127.133 145.216 127.392V130.863C145.216 131.14 144.991 131.347 144.732 131.347H131.157V131.364Z" fill="white"/>
<path d="M145.216 127.651V130.881C145.216 131.157 144.991 131.364 144.732 131.364H130.915C130.794 131.364 130.674 131.451 130.656 131.572C130.639 131.727 130.743 131.865 130.898 131.865H144.732C145.268 131.865 145.717 131.433 145.717 130.881V127.651C145.717 127.513 145.613 127.409 145.475 127.409C145.337 127.409 145.216 127.513 145.216 127.651Z" fill="#FF819F"/>
<path d="M148.48 127.6H147.375V130.708H148.48V127.6Z" fill="white"/>
<path d="M149.586 127.6H149.033V130.708H149.586V127.6Z" fill="white"/>
<path d="M163.834 127.6H163.281V130.708H163.834V127.6Z" fill="white"/>
<path d="M153.368 128.912H151.779C151.693 128.912 151.641 128.843 151.641 128.774C151.641 128.688 151.71 128.636 151.779 128.636H153.368C153.454 128.636 153.506 128.705 153.506 128.774C153.506 128.843 153.437 128.912 153.368 128.912Z" fill="white"/>
<path d="M157.254 128.912H154.49C154.404 128.912 154.352 128.843 154.352 128.774C154.352 128.688 154.421 128.636 154.49 128.636H157.254C157.34 128.636 157.392 128.705 157.392 128.774C157.409 128.843 157.34 128.912 157.254 128.912Z" fill="white"/>
<path d="M154.819 129.638H151.779C151.693 129.638 151.641 129.569 151.641 129.499C151.641 129.413 151.71 129.361 151.779 129.361H154.819C154.905 129.361 154.957 129.43 154.957 129.499C154.957 129.569 154.888 129.638 154.819 129.638Z" fill="white"/>
<path d="M144.732 126.425H130.915C130.794 126.425 130.674 126.511 130.656 126.632C130.639 126.788 130.743 126.926 130.898 126.926H144.732C145.009 126.926 145.216 127.15 145.216 127.409V128.376C145.216 128.515 145.32 128.618 145.458 128.618C145.596 128.618 145.699 128.515 145.699 128.376V127.409C145.717 126.857 145.268 126.425 144.732 126.425Z" fill="#FF819F"/>
<path d="M133.178 126.425H151.036V122.573H133.178C132.642 122.573 132.193 123.005 132.193 123.558V125.458C132.193 125.993 132.625 126.425 133.178 126.425Z" fill="#F9C699"/>
<path d="M151.036 125.838V126.425H133.178C132.781 126.425 132.435 126.183 132.28 125.838H151.036Z" fill="#E3A36B"/>
<path d="M160.121 125.924V123.057H150.311C150.034 123.057 149.827 123.281 149.827 123.54V125.44C149.827 125.716 150.052 125.924 150.311 125.924H160.121Z" fill="white"/>
<path d="M149.81 123.799V125.44C149.81 125.717 150.034 125.924 150.294 125.924H160.345C160.466 125.924 160.587 126.01 160.604 126.131C160.622 126.286 160.518 126.425 160.363 126.425H150.294C149.758 126.425 149.309 125.993 149.309 125.44V123.799C149.309 123.661 149.413 123.558 149.551 123.558C149.706 123.558 149.81 123.661 149.81 123.799Z" fill="#E3A36B"/>
<path d="M143.092 124.111H145.734C145.872 124.111 145.976 124.007 145.976 123.869C145.976 123.731 145.872 123.627 145.734 123.627H143.092C142.953 123.627 142.85 123.731 142.85 123.869C142.85 124.007 142.953 124.111 143.092 124.111Z" fill="white"/>
<path d="M135.302 124.111H141.192C141.33 124.111 141.433 124.007 141.433 123.869C141.433 123.731 141.33 123.627 141.192 123.627H135.302C135.164 123.627 135.06 123.731 135.06 123.869C135.078 124.007 135.181 124.111 135.302 124.111Z" fill="white"/>
<path d="M136.079 125.32H145.734C145.872 125.32 145.976 125.216 145.976 125.078C145.976 124.94 145.872 124.836 145.734 124.836H136.079C135.941 124.836 135.838 124.94 135.838 125.078C135.838 125.216 135.959 125.32 136.079 125.32Z" fill="white"/>
<path d="M150.311 122.573H160.363C160.484 122.573 160.604 122.66 160.622 122.78C160.639 122.936 160.535 123.074 160.38 123.074H150.311C150.034 123.074 149.827 123.299 149.827 123.558V123.73C149.827 123.869 149.724 123.972 149.585 123.972C149.447 123.972 149.344 123.869 149.344 123.73V123.558C149.326 123.005 149.758 122.573 150.311 122.573Z" fill="#E3A36B"/>
<path d="M68.532 86.0268L65.6131 76.2168H55.9413L53.0225 86.0268C53.0225 86.0268 49.5337 97.0804 60.7772 97.0804C72.0207 97.0804 68.532 86.0268 68.532 86.0268Z" fill="#FF95A9"/>
<path d="M54.5424 80.932C59.3437 87.7541 67.9448 84.0236 67.9448 84.0236L66.8222 80.2584L60.7772 77.5469L54.7323 80.2584L54.5424 80.932Z" fill="#F27290"/>
<path d="M51.4853 52.8838C48.2556 56.3035 48.4283 64.9045 49.4991 70.9321C50.8981 78.8251 57.392 83.0392 60.7772 83.0392C64.1623 83.0392 70.6563 78.8423 72.0552 70.9321C73.126 64.8872 73.2988 56.3035 70.0691 52.8838H51.4853Z" fill="#FF95A9"/>
<path d="M47.0466 47.7892C50.8636 56.8911 59.62 62.0379 71.6408 53.316C65.6822 45.3367 54.4732 44.4041 47.0466 47.7892Z" fill="#3F327A"/>
<path d="M53.5061 44.2829C55.4577 50.086 62.9016 54.611 66.9258 56.1136C71.6408 56.6835 72.7462 63.1257 72.7462 63.1257C76.2522 57.8062 74.6633 45.9236 70.2937 47.0117C66.7704 41.744 56.9085 42.383 53.5061 44.2829Z" fill="#3F327A"/>
<path d="M53.7996 55.7166C50.0345 57.1328 48.791 63.1259 48.791 63.1259C47.6166 58.6699 49.2055 53.454 50.5699 52.0551C51.9516 50.6561 53.7996 55.7166 53.7996 55.7166Z" fill="#3F327A"/>
<path d="M49.2573 63.3158C47.513 62.3487 45.5268 63.7822 46.7185 67.9618C47.7547 71.606 49.6028 71.3987 49.8791 70.7597C50.1554 70.0516 49.2573 63.3158 49.2573 63.3158Z" fill="#FF95A9"/>
<path d="M72.3143 63.3158C74.0587 62.3487 76.0449 63.7822 74.8532 67.9618C73.8169 71.606 71.9689 71.3987 71.6926 70.7597C71.4162 70.0516 72.3143 63.3158 72.3143 63.3158Z" fill="#FF95A9"/>
<path d="M50.19 55.958C47.6511 59.9995 47.7547 63.2637 47.7547 63.2637L48.342 63.3846C48.3592 63.3846 48.5319 58.8941 50.19 55.958Z" fill="#8B77E8"/>
<path d="M72.1934 70.8633L71.9343 73.0913C71.917 73.2812 71.8825 73.454 71.8652 73.6267L71.848 73.7648L71.8134 73.8857L71.7443 74.1448C71.6925 74.3175 71.6407 74.473 71.5716 74.6457C71.5025 74.8011 71.4334 74.9738 71.3471 75.1293C71.0189 75.751 70.5872 76.321 70.0518 76.8046C69.5163 77.2709 68.8773 77.6336 68.2037 77.8581C68.031 77.9272 67.8583 77.9617 67.6856 78.0135C67.5129 78.0654 67.3402 78.0826 67.1502 78.1172L66.0448 78.2553L63.8169 78.5317L59.3782 79.1016L59.4127 79.447L63.8687 78.9635L66.0967 78.7217L67.2193 78.6008C67.4093 78.5662 67.5992 78.5489 67.7892 78.4971C67.9792 78.4453 68.1692 78.4108 68.3592 78.3417C69.1018 78.0999 69.81 77.7199 70.3972 77.2191C71.0017 76.7182 71.5025 76.0964 71.8652 75.4056C71.9689 75.2329 72.0379 75.0429 72.1243 74.8702C72.1934 74.6802 72.2625 74.5075 72.3143 74.3175L72.3834 74.0239L72.4179 73.8857L72.4524 73.7476C72.487 73.5576 72.5215 73.3503 72.5388 73.1776L72.8497 70.9496L72.1934 70.8633Z" fill="#3F327A"/>
<path d="M59.6373 79.6892C60.7254 79.7929 61.8135 79.7929 62.9015 79.6892C63.3851 79.6374 63.7133 79.2402 63.6442 78.8084C63.5751 78.3766 63.1779 78.1003 62.7461 78.1348C61.7616 78.2385 60.7772 78.2385 59.81 78.1348C59.3782 78.083 58.981 78.3766 58.9119 78.8084C58.8428 79.2229 59.171 79.6374 59.6373 79.6892Z" fill="#3F327A"/>
<path d="M63.0051 50.6387C64.6631 50.7941 66.3211 51.1395 67.841 51.8822C68.6009 52.2622 69.3091 52.7285 69.9308 53.2812C70.5526 53.8511 71.088 54.5074 71.537 55.1983C72.4351 56.6145 72.9705 58.2034 73.3332 59.8097C73.6787 61.4159 73.8341 63.0566 73.9205 64.6801L73.2123 64.6974C73.1778 63.0912 73.0396 61.485 72.7287 59.9133C72.4179 58.3589 71.917 56.8045 71.088 55.4573C70.6735 54.7837 70.1726 54.162 69.6027 53.6093C69.0154 53.0739 68.3591 52.6076 67.651 52.2449C66.2175 51.5195 64.6113 51.1395 62.9878 50.9668L61.9861 50.8805L63.0051 50.6387Z" fill="#8B77E8"/>
<path d="M72.4005 70.5869C72.2278 70.5351 72.0724 70.4833 71.8997 70.4142C72.6423 68.2035 72.9359 65.8719 72.7287 63.5402C72.9014 63.523 73.0741 63.5057 73.2468 63.4884C75.0776 63.2466 76.8219 65.0601 76.5283 67.4781C76.2347 69.9133 74.1276 71.2605 72.4005 70.5869Z" fill="#3F327A"/>
<path d="M72.366 71.692C71.727 71.4157 71.4161 70.673 71.6406 69.9995C72.2797 68.0306 72.5215 65.9407 72.3833 63.8855C72.3315 63.1946 72.8151 62.5383 73.5059 62.4174C74.1968 62.3138 74.8704 62.8837 74.9222 63.7128C75.0776 66.0962 74.8013 68.4969 74.0586 70.7767C73.7823 71.5711 73.0051 71.9684 72.366 71.692Z" fill="#3F327A"/>
<path d="M49.2054 71.692C49.8445 71.4157 50.1554 70.673 49.9308 69.9995C49.2918 68.0306 49.05 65.9407 49.1882 63.8855C49.24 63.1946 48.7564 62.5383 48.0655 62.4174C47.3747 62.3138 46.7011 62.8837 46.6493 63.7128C46.4939 66.0962 46.7702 68.4969 47.5129 70.7767C47.7892 71.5711 48.5664 71.9684 49.2054 71.692Z" fill="#3F327A"/>
<path d="M49.1709 70.5869C49.3436 70.5351 49.4991 70.4833 49.6718 70.4142C48.9291 68.2035 48.6355 65.8719 48.8428 63.5402C48.6701 63.523 48.4973 63.5057 48.3246 63.4884C46.4939 63.2466 44.7495 65.0601 45.0431 67.4781C45.3195 69.9133 47.4438 71.2605 49.1709 70.5869Z" fill="#3F327A"/>
<path d="M43.0397 129.55C37.7893 128.48 32.7979 126.632 28.0656 123.955C26.5112 123.074 25.7513 121.243 26.2349 119.516C28.791 110.328 31.9171 101.64 35.8376 93.6954C36.7357 91.8647 38.2901 90.4485 40.19 89.7058C42.8843 88.635 47.323 87.1151 53.057 86.0098C51.8825 91.2257 58.3938 95.4916 60.8117 95.4916C63.2297 95.4916 69.7236 91.2775 68.5665 86.0098C74.3005 87.1151 78.7219 88.635 81.4335 89.7058C83.3333 90.4657 84.8877 91.8647 85.7858 93.6954C89.7064 101.64 92.8325 110.31 95.3886 119.516C95.8722 121.243 95.1123 123.074 93.5578 123.955C88.8255 126.632 83.8169 128.462 78.5837 129.55H43.0397Z" fill="#FFC359"/>
<path d="M28.0656 123.955C32.3661 126.373 36.8912 128.117 41.6062 129.223C42.0207 127.513 42.9015 122.504 39.81 119.153C39.1019 115.302 27.8584 114.749 26.2176 119.516C25.7513 121.243 26.4939 123.074 28.0656 123.955Z" fill="#FF95A9"/>
<path d="M93.5405 123.955C89.24 126.373 84.715 128.117 79.9999 129.223C79.5854 127.513 78.7046 122.504 81.7961 119.153C82.5043 115.302 93.7478 114.749 95.3885 119.516C95.8549 121.243 95.0949 123.074 93.5405 123.955Z" fill="#FF95A9"/>
<path d="M45.6994 104.61L45.993 108.876H44.2141L45.6994 104.61Z" fill="#3F327A"/>
<path d="M75.8722 104.61L75.5786 108.876H77.3575L75.8722 104.61Z" fill="#3F327A"/>
<path d="M60.7772 94.4557C58.3592 94.4557 53.5061 91.3814 53.0225 86.0273C52.2971 86.1655 51.6062 86.3037 50.9154 86.4591C50.8118 87.4436 50.8636 88.5489 51.209 89.7234C52.8325 94.6802 57.5648 97.7199 60.7599 97.7199C63.9724 97.7199 68.6874 94.6802 70.3109 89.7234C70.6563 88.5489 70.7081 87.4436 70.6045 86.4591C69.9309 86.3037 69.2228 86.1655 68.4974 86.0273C68.0656 91.3814 63.1952 94.4557 60.7772 94.4557Z" fill="white"/>
<path d="M78.1864 137.306H43.3851C43.1087 137.306 42.8669 137.116 42.7978 136.857L42.6079 136.2C42.5388 135.959 42.7288 135.717 42.9706 135.717H78.5837C78.8427 135.717 79.0155 135.959 78.9464 136.2L78.7564 136.857C78.7046 137.116 78.4628 137.306 78.1864 137.306Z" fill="#3F327A"/>
<path d="M82.418 108.618H39.1537C38.6529 108.618 38.2038 108.877 37.9447 109.309L37.1848 110.604H84.3696L83.6097 109.309C83.3679 108.877 82.9016 108.618 82.418 108.618Z" fill="white"/>
<path d="M77.9102 136.079H43.6615C42.9188 136.079 42.2798 135.561 42.1071 134.836L37.0466 111.658C36.8221 110.656 37.582 109.706 38.6183 109.706H82.9361C83.9551 109.706 84.715 110.656 84.5077 111.658L79.4473 134.818C79.2919 135.561 78.6528 136.079 77.9102 136.079Z" fill="#CCC2FF"/>
<path d="M78.5147 134.628L82.3834 116.856C76.114 126.822 57.9793 135.941 42.0553 130.086L43.0398 134.628C43.1088 134.922 43.3506 135.112 43.6442 135.112H77.8757C78.1866 135.112 78.4456 134.905 78.5147 134.628Z" fill="#DDD6FF"/>
<path d="M63.8341 124.749H57.7201C56.7011 124.749 55.8549 123.92 55.8549 122.884C55.8549 121.865 56.6839 121.019 57.7201 121.019H63.8341C64.8531 121.019 65.6994 121.848 65.6994 122.884C65.6994 123.92 64.8704 124.749 63.8341 124.749Z" fill="white"/>
<path d="M23.9206 137.306H175.492C175.699 137.306 175.855 137.461 175.855 137.668C175.855 137.876 175.699 138.031 175.492 138.031H23.9206C23.7133 138.031 23.5579 137.876 23.5579 137.668C23.5579 137.461 23.7133 137.306 23.9206 137.306Z" fill="#3F327A"/>
<path d="M6.83938 137.306H18.5147C18.7219 137.306 18.8774 137.461 18.8774 137.668C18.8774 137.876 18.7219 138.031 18.5147 138.031H6.83938C6.63212 138.031 6.47668 137.876 6.47668 137.668C6.47668 137.461 6.63212 137.306 6.83938 137.306Z" fill="#3F327A"/>
<path d="M0.362694 137.306H1.6753C1.88256 137.306 2.038 137.461 2.038 137.668C2.038 137.876 1.88256 138.031 1.6753 138.031H0.362694C0.15544 138.031 0 137.876 0 137.668C0 137.461 0.15544 137.306 0.362694 137.306Z" fill="#3F327A"/>
</g>
<defs>
<clipPath id="clip0_12978_161007">
<rect width="175.838" height="150" fill="white"/>
</clipPath>
</defs>
</svg>
