<svg width="8" height="8" viewBox="0 0 8 8" fill="none" xmlns="http://www.w3.org/2000/svg">
<path d="M7.02333 1.74332C6.48667 1.68999 5.95 1.64999 5.41 1.61999V1.61666L5.33667 1.18332C5.28667 0.876657 5.21333 0.416656 4.43333 0.416656H3.56C2.78333 0.416656 2.71 0.856657 2.65667 1.17999L2.58667 1.60666C2.27667 1.62666 1.96667 1.64666 1.65667 1.67666L0.976668 1.74332C0.836668 1.75666 0.736668 1.87999 0.750002 2.01666C0.763335 2.15332 0.883335 2.25332 1.02333 2.23999L1.70333 2.17332C3.45 1.99999 5.21 2.06666 6.97667 2.24332C6.98667 2.24332 6.99333 2.24332 7.00333 2.24332C7.13 2.24332 7.24 2.14666 7.25333 2.01666C7.26333 1.87999 7.16333 1.75666 7.02333 1.74332Z" fill="#84878D"/>
<path d="M6.40999 2.71334C6.32999 2.63001 6.21999 2.58334 6.10665 2.58334H1.89332C1.77999 2.58334 1.66665 2.63001 1.58999 2.71334C1.51332 2.79668 1.46999 2.91001 1.47665 3.02668L1.68332 6.44668C1.71999 6.95334 1.76665 7.58668 2.92999 7.58668H5.06999C6.23332 7.58668 6.27999 6.95668 6.31665 6.44668L6.52332 3.03001C6.52999 2.91001 6.48665 2.79668 6.40999 2.71334ZM4.55332 5.91668H3.44332C3.30665 5.91668 3.19332 5.80334 3.19332 5.66668C3.19332 5.53001 3.30665 5.41668 3.44332 5.41668H4.55332C4.68999 5.41668 4.80332 5.53001 4.80332 5.66668C4.80332 5.80334 4.68999 5.91668 4.55332 5.91668ZM4.83332 4.58334H3.16665C3.02999 4.58334 2.91665 4.47001 2.91665 4.33334C2.91665 4.19668 3.02999 4.08334 3.16665 4.08334H4.83332C4.96999 4.08334 5.08332 4.19668 5.08332 4.33334C5.08332 4.47001 4.96999 4.58334 4.83332 4.58334Z" fill="#84878D"/>
</svg>
