<svg width="200" height="113" viewBox="0 0 200 113" fill="none" xmlns="http://www.w3.org/2000/svg">
<g clip-path="url(#clip0_12975_179168)">
<path d="M29.0568 10.3975C56.3653 0.262794 84.1208 9.22763 102.938 28.7478C121.761 48.2681 161.262 15.2743 182.215 34.7616C196.51 48.0643 189.964 82.2543 170.358 97.0686C143.713 117.2 62.6749 106.986 45.1462 103.562C24.949 99.6121 10.1872 87.6371 4.18657 73.1054C-10.2663 38.0807 16.9897 14.8799 29.0568 10.3975Z" fill="#E7F3FE"/>
<path d="M122.392 24.4824C122.484 23.6543 122.537 22.8196 122.537 21.9652C122.537 21.5182 122.524 21.0713 122.497 20.631L118.337 19.2836C118.081 17.5288 117.581 15.8593 116.865 14.3017L119.625 10.9103C118.988 9.78639 118.258 8.72823 117.443 7.73579L113.283 9.08971C112.073 7.85409 110.687 6.78278 109.168 5.92179L109.405 1.5511C108.242 1.0253 107.032 0.591522 105.777 0.262898L103.194 3.81203C102.195 3.64114 101.163 3.5557 100.118 3.5557C99.4017 3.5557 98.6985 3.59514 98.0018 3.67401L95.6225 0C94.3475 0.256326 93.1119 0.624384 91.9288 1.09103L91.9354 5.46829C90.3712 6.24384 88.9318 7.24285 87.6567 8.41275L83.5752 6.83536C82.7077 7.78179 81.919 8.8071 81.2223 9.89155L83.7987 13.4275C83.0034 14.9458 82.4119 16.5889 82.0636 18.324L77.8375 19.4479C77.7455 20.276 77.6929 21.1107 77.6929 21.9652C77.6929 22.4121 77.706 22.859 77.7323 23.2994L81.8927 24.6467C82.149 26.4016 82.6485 28.071 83.3649 29.6287L80.6045 33.02C81.242 34.1439 81.9715 35.2021 82.7865 36.1945L86.9469 34.8406C88.1562 36.0762 89.543 37.1475 91.0613 38.0085L90.8247 42.3792C91.988 42.905 93.1973 43.3388 94.4526 43.6674L97.0225 40.1249C98.0215 40.2958 99.0534 40.3812 100.098 40.3812C100.815 40.3812 101.518 40.3418 102.215 40.2629L104.594 43.9369C105.869 43.6806 107.105 43.3125 108.288 42.8459L108.281 38.4686C109.845 37.6931 111.285 36.694 112.56 35.5242L116.641 37.1015C117.509 36.1551 118.298 35.1298 118.994 34.0453L116.418 30.5094C117.213 28.9911 117.805 27.348 118.153 25.6129L122.392 24.4824ZM100.118 30.7591C95.2611 30.7591 91.3242 26.8222 91.3242 21.9652C91.3242 17.1081 95.2611 13.1712 100.118 13.1712C104.975 13.1712 108.912 17.1081 108.912 21.9652C108.912 26.8222 104.975 30.7591 100.118 30.7591Z" fill="#9EC8FF"/>
<path d="M112.113 31.9949C112.041 31.9949 111.962 31.9687 111.903 31.9161C111.764 31.7978 111.745 31.594 111.863 31.456C114.071 28.8007 115.287 25.4291 115.287 21.9654C115.287 20.3091 115.018 18.6791 114.479 17.128C114.42 16.9572 114.512 16.7665 114.683 16.7074C114.854 16.6482 115.044 16.7403 115.103 16.9111C115.662 18.5345 115.945 20.2302 115.945 21.9654C115.945 25.5802 114.676 29.0965 112.369 31.8766C112.297 31.9555 112.205 31.9949 112.113 31.9949Z" fill="white"/>
<path d="M110.838 11.239C110.759 11.239 110.674 11.2062 110.614 11.147C109.129 9.74708 107.407 8.68891 105.501 7.99881C105.33 7.93965 105.245 7.74905 105.304 7.57817C105.363 7.40728 105.554 7.32184 105.724 7.38099C107.716 8.10397 109.51 9.20814 111.061 10.6672C111.193 10.7921 111.199 11.0024 111.074 11.1339C111.009 11.2062 110.923 11.239 110.838 11.239Z" fill="white"/>
<path d="M96.7069 7.57799C96.5623 7.57799 96.4243 7.47941 96.3914 7.32824C96.3454 7.15078 96.4506 6.97333 96.628 6.92732C97.8636 6.61184 99.1453 6.4541 100.433 6.4541C100.618 6.4541 100.762 6.5987 100.762 6.78272C100.762 6.96675 100.618 7.11135 100.433 7.11135C99.1979 7.11135 97.9754 7.26251 96.7858 7.56485C96.7595 7.57142 96.7332 7.57799 96.7069 7.57799Z" fill="white"/>
<path d="M51.7251 80.151C51.7908 79.5792 51.8237 78.9943 51.8237 78.4093C51.8237 78.1004 51.8106 77.7915 51.7974 77.4826L48.9187 76.5493C48.7412 75.3334 48.3929 74.1767 47.8999 73.0988L49.8125 70.7458C49.3722 69.9703 48.8661 69.2342 48.3009 68.5441L45.4221 69.4839C44.5808 68.6229 43.6213 67.8868 42.5697 67.2887L42.734 64.2588C41.9321 63.8908 41.0909 63.595 40.2167 63.365L38.4356 65.8231C37.7455 65.7048 37.0291 65.6456 36.3061 65.6456C35.8132 65.6456 35.3202 65.6719 34.8405 65.731L33.1908 63.1875C32.3101 63.365 31.4556 63.6213 30.6341 63.9433L30.6407 66.9732C29.5562 67.5122 28.5572 68.2023 27.6765 69.0107L24.8503 67.9197C24.2522 68.5769 23.7067 69.2867 23.2203 70.036L25.0015 72.4875C24.4494 73.5391 24.0419 74.6827 23.7987 75.8789L20.874 76.6545C20.8083 77.2263 20.7754 77.8112 20.7754 78.3962C20.7754 78.7051 20.7885 79.014 20.8017 79.3229L23.6804 80.2562C23.8579 81.4721 24.2062 82.6288 24.6991 83.7067L22.7866 86.0597C23.2269 86.8352 23.733 87.5713 24.2982 88.2614L27.177 87.3216C28.0182 88.1826 28.9778 88.9187 30.0294 89.5168L29.8651 92.5467C30.6669 92.9147 31.5082 93.2105 32.3824 93.4405L34.1635 90.9824C34.8602 91.1007 35.57 91.1599 36.293 91.1599C36.7859 91.1599 37.2788 91.1336 37.7586 91.0744L39.4083 93.618C40.289 93.4405 41.1434 93.1842 41.965 92.8622L41.9584 89.8323C43.0429 89.2933 44.0419 88.6032 44.9226 87.7948L47.7488 88.8858C48.3469 88.2286 48.8924 87.5187 49.3787 86.7695L47.5976 84.318C48.1497 83.2664 48.5572 82.1228 48.8004 80.9266L51.7251 80.151ZM36.2995 84.502C32.9344 84.502 30.2069 81.7744 30.2069 78.4093C30.2069 75.0442 32.9344 72.3167 36.2995 72.3167C39.6646 72.3167 42.3922 75.0442 42.3922 78.4093C42.3922 81.7744 39.6581 84.502 36.2995 84.502Z" fill="#9EC8FF"/>
<path d="M44.6006 85.4547C44.5283 85.4547 44.4495 85.4284 44.3903 85.3759C44.2523 85.2575 44.2326 85.0538 44.3509 84.9158C45.8691 83.0952 46.7038 80.7817 46.7038 78.409C46.7038 77.272 46.5198 76.1547 46.1517 75.0899C46.0926 74.9191 46.1846 74.7285 46.3555 74.6693C46.5264 74.6102 46.717 74.7022 46.7761 74.8731C47.1639 76.0101 47.3676 77.1931 47.3676 78.4025C47.3676 80.9329 46.4804 83.391 44.8635 85.3298C44.7912 85.4153 44.6992 85.4547 44.6006 85.4547Z" fill="white"/>
<path d="M43.7198 71.0813C43.6409 71.0813 43.5555 71.0484 43.4963 70.9893C42.4776 70.0297 41.3011 69.3067 39.9932 68.8269C39.8223 68.7678 39.7369 68.5772 39.796 68.4063C39.8552 68.2354 40.0458 68.15 40.2167 68.2091C41.61 68.7152 42.8654 69.4907 43.9498 70.5095C44.0813 70.6344 44.0879 70.8447 43.963 70.9761C43.8973 71.0484 43.8118 71.0813 43.7198 71.0813Z" fill="white"/>
<path d="M33.9335 68.5438C33.7889 68.5438 33.6508 68.4452 33.618 68.294C33.572 68.1165 33.6771 67.9391 33.8546 67.8931C34.7221 67.6762 35.616 67.5645 36.5164 67.5645C36.7005 67.5645 36.8451 67.709 36.8451 67.8931C36.8451 68.0771 36.7005 68.2217 36.5164 68.2217C35.6686 68.2217 34.8273 68.3269 34.0189 68.5306C33.986 68.5437 33.9597 68.5438 33.9335 68.5438Z" fill="white"/>
<path d="M135.82 41.229C135.82 41.0581 135.813 40.8872 135.807 40.7229L137.962 38.9877C137.791 38.1202 137.529 37.2921 137.18 36.5099L134.393 36.2996C133.763 35.3006 132.941 34.433 131.981 33.7429L131.975 30.9628C131.199 30.5553 130.371 30.2332 129.504 30.0098L127.598 32.0604C127.269 32.0275 126.934 32.0078 126.599 32.0078C125.757 32.0078 124.949 32.1195 124.173 32.3298L121.991 30.6013C121.17 30.9562 120.394 31.4097 119.684 31.9421L120.098 34.6959C119.283 35.5043 118.62 36.4705 118.153 37.5352L115.439 38.1662C115.208 39.0075 115.07 39.8816 115.038 40.782L117.43 42.1688C117.555 43.3781 117.91 44.5218 118.455 45.5536L117.259 48.0643C117.772 48.7676 118.363 49.4117 119.021 49.9769L121.584 48.9713C122.589 49.6286 123.74 50.0952 124.969 50.3121L126.178 52.8031C126.323 52.8096 126.467 52.8096 126.612 52.8096C127.335 52.8096 128.044 52.7439 128.735 52.6125L129.55 49.9769C130.739 49.576 131.817 48.945 132.731 48.13L135.425 48.7347C135.977 48.084 136.464 47.3742 136.865 46.6118L135.301 44.318C135.629 43.3453 135.82 42.3068 135.82 41.229ZM126.493 45.2907C124.351 45.2907 122.609 43.549 122.609 41.4064C122.609 39.2638 124.351 37.5221 126.493 37.5221C128.636 37.5221 130.378 39.2638 130.378 41.4064C130.378 43.549 128.636 45.2907 126.493 45.2907Z" fill="#9EC8FF"/>
<g opacity="0.8">
<path d="M171.732 18.8495H168.393C167.105 18.8495 166.053 17.7979 166.053 16.5097V13.1709C166.053 11.8826 167.105 10.8311 168.393 10.8311H171.732C173.02 10.8311 174.072 11.8826 174.072 13.1709V16.5097C174.065 17.7979 173.02 18.8495 171.732 18.8495ZM168.393 11.7512C167.611 11.7512 166.973 12.3887 166.973 13.1709V16.5097C166.973 17.2918 167.611 17.9293 168.393 17.9293H171.732C172.514 17.9293 173.151 17.2918 173.151 16.5097V13.1709C173.151 12.3887 172.514 11.7512 171.732 11.7512H168.393Z" fill="#9EC8FF"/>
</g>
<g opacity="0.8">
<path d="M156.017 18.8495H152.678C151.39 18.8495 150.338 17.7979 150.338 16.5097V13.1709C150.338 11.8826 151.39 10.8311 152.678 10.8311H156.017C157.305 10.8311 158.357 11.8826 158.357 13.1709V16.5097C158.357 17.7979 157.305 18.8495 156.017 18.8495ZM152.678 11.7512C151.896 11.7512 151.259 12.3887 151.259 13.1709V16.5097C151.259 17.2918 151.896 17.9293 152.678 17.9293H156.017C156.799 17.9293 157.437 17.2918 157.437 16.5097V13.1709C157.437 12.3887 156.799 11.7512 156.017 11.7512H152.678Z" fill="#9EC8FF"/>
</g>
<path d="M154.558 16.9042C154.551 16.9042 154.545 16.9042 154.538 16.9042C154.42 16.8977 154.315 16.8451 154.243 16.7531L151.844 13.6246C151.712 13.4537 151.745 13.204 151.916 13.0725C152.087 12.9411 152.337 12.9739 152.468 13.1448L154.584 15.9052L160.112 9.98345C160.263 9.82571 160.513 9.81256 160.67 9.96373C160.828 10.1149 160.841 10.3647 160.69 10.5224L154.847 16.7859C154.768 16.8582 154.663 16.9042 154.558 16.9042Z" fill="#F37168"/>
<path d="M182.767 105.074C169.096 104.404 122.596 105.541 108.459 105.981C94.3147 106.422 77.9033 105.396 69.3722 103.891C60.8478 102.386 11.5543 104.016 13.7955 108.065C16.0302 112.113 35.7541 109.872 58.1202 111.502C80.4863 113.132 130.792 111.298 142.136 111.502C153.48 111.706 163.891 111.095 178.508 110.28C193.125 109.465 190.687 105.462 182.767 105.074Z" fill="#CCE2FF"/>
<path d="M43.0495 20.4404H14.479V67.2758H43.0495V20.4404Z" fill="#99BBEB"/>
<path d="M42.1162 21.4004H15.9775V65.495H42.1162V21.4004Z" fill="white"/>
<path d="M23.7922 39.0804C24.7781 36.9641 26.4409 36.2871 29.1751 36.2871C32.4284 36.2871 34.1241 37.4636 34.5974 39.1856C28.7676 39.2644 23.7922 39.0804 23.7922 39.0804Z" fill="#9BD6E8"/>
<path d="M28.038 25.9944C26.6578 26.3821 26.7235 27.1577 26.2634 27.8741C25.8033 28.5905 24.8043 29.0703 24.686 29.5501C24.5677 30.0299 24.9949 31.0289 24.4889 31.5875C23.9828 32.1462 23.8119 32.4288 24.0091 32.9875C24.2062 33.5461 24.6466 34.4268 24.686 34.5451C24.7255 34.6634 25.2841 35.5047 25.9611 35.623C26.638 35.7413 27.9197 35.9451 28.5572 36.2211C29.1947 36.5037 31.2519 35.8662 32.389 35.9056C33.526 35.9451 34.3081 35.1038 34.2227 34.5451C34.1438 33.9865 35.0639 32.8692 35.0639 31.9096C35.0639 30.8777 33.8678 30.1153 33.5457 29.4318C33.2237 28.7548 33.5851 27.552 32.389 26.8422C31.6331 26.3953 31.1139 26.4347 30.5092 26.231C29.9177 26.0338 28.9187 25.7446 28.038 25.9944Z" fill="#3A384D"/>
<path d="M29.714 37.9764C29.4051 38.4364 29.1751 38.4561 28.8333 37.9764C28.5639 37.5952 28.0315 36.7276 28.0315 36.2872V31.9034C28.0315 31.463 28.393 31.1016 28.8333 31.1016H29.714C30.1544 31.1016 30.5159 31.463 30.5159 31.9034V36.2872C30.5159 36.7276 29.9967 37.5623 29.714 37.9764Z" fill="#F09959"/>
<path d="M29.714 31.1074H28.8333C28.393 31.1074 28.0315 31.4689 28.0315 31.9093V35.8199C29.0174 36.1354 29.9178 35.511 30.5093 34.8077V31.9093C30.5159 31.4623 30.1544 31.1074 29.714 31.1074Z" fill="#E38540"/>
<path d="M29.2737 34.7682C30.7401 34.7682 31.929 33.1469 31.929 31.1468C31.929 29.1468 30.7401 27.5254 29.2737 27.5254C27.8072 27.5254 26.6184 29.1468 26.6184 31.1468C26.6184 33.1469 27.8072 34.7682 29.2737 34.7682Z" fill="#F09959"/>
<path d="M30.5159 28.2682C28.8399 31.1009 26.3621 30.8248 26.3621 30.8248C26.3621 30.8248 26.4212 27.072 28.3864 26.8748C30.3515 26.6776 31.5083 27.4663 31.9092 28.7677C32.3101 30.069 31.9092 30.93 31.9092 30.93C31.9092 30.93 31.2717 30.4305 30.9496 29.6352C30.6342 28.8268 30.5159 28.2682 30.5159 28.2682Z" fill="#3A384D"/>
<path d="M26.7122 32.34C27.0598 32.175 27.1408 31.6185 26.8932 31.0972C26.6456 30.5759 26.1632 30.287 25.8156 30.4521C25.468 30.6172 25.387 31.1736 25.6346 31.6949C25.8822 32.2163 26.3647 32.5051 26.7122 32.34Z" fill="#F09959"/>
<path d="M31.5413 31.0946C31.2915 31.6204 31.3769 32.1725 31.7253 32.3434C32.0736 32.5077 32.56 32.2185 32.8032 31.6993C33.0529 31.1735 32.9675 30.6214 32.6191 30.4505C32.2708 30.2796 31.791 30.5688 31.5413 31.0946Z" fill="#F09959"/>
<path d="M30.2727 33.1123C30.2727 33.1123 29.8258 33.6907 29.2737 33.6907C28.7216 33.6907 28.2747 33.1123 28.2747 33.1123H30.2727Z" fill="white"/>
<path d="M32.435 44.8172H25.7311C25.3039 44.8172 24.949 44.4688 24.949 44.0351C24.949 43.6078 25.2973 43.2529 25.7311 43.2529H32.435C32.8622 43.2529 33.2171 43.6013 33.2171 44.0351C33.2171 44.4688 32.8688 44.8172 32.435 44.8172Z" fill="#99BBEB"/>
<path d="M33.6641 47.2166H24.5021C24.0749 47.2166 23.72 46.8683 23.72 46.4345C23.72 46.0073 24.0683 45.6523 24.5021 45.6523H33.6641C34.0913 45.6523 34.4462 46.0007 34.4462 46.4345C34.4462 46.8617 34.0913 47.2166 33.6641 47.2166Z" fill="#99BBEB"/>
<path d="M40.23 55.8328H17.9428C17.693 55.8328 17.4893 55.629 17.4893 55.3793C17.4893 55.1295 17.693 54.9258 17.9428 54.9258H40.23C40.4797 54.9258 40.6835 55.1295 40.6835 55.3793C40.6835 55.629 40.4732 55.8328 40.23 55.8328Z" fill="#99BBEB"/>
<path d="M40.23 57.9363H17.9428C17.693 57.9363 17.4893 57.7325 17.4893 57.4828C17.4893 57.233 17.693 57.0293 17.9428 57.0293H40.23C40.4797 57.0293 40.6835 57.233 40.6835 57.4828C40.6769 57.7325 40.4732 57.9363 40.23 57.9363Z" fill="#99BBEB"/>
<path d="M40.23 60.0388H17.9428C17.693 60.0388 17.4893 59.8351 17.4893 59.5853C17.4893 59.3356 17.693 59.1318 17.9428 59.1318H40.23C40.4797 59.1318 40.6835 59.3356 40.6835 59.5853C40.6769 59.8351 40.4732 60.0388 40.23 60.0388Z" fill="#99BBEB"/>
<path d="M37.1081 39.5989H21.0582C20.6112 39.5989 20.2498 39.2375 20.2498 38.7905V23.9959C20.2498 23.549 20.6112 23.1875 21.0582 23.1875H37.1081C37.555 23.1875 37.9165 23.549 37.9165 23.9959V38.7905C37.9165 39.2375 37.555 39.5989 37.1081 39.5989ZM21.0582 23.8447C20.9793 23.8447 20.907 23.9105 20.907 23.9959V38.7905C20.907 38.8694 20.9727 38.9417 21.0582 38.9417H37.1081C37.187 38.9417 37.2593 38.876 37.2593 38.7905V23.9959C37.2593 23.917 37.1936 23.8447 37.1081 23.8447H21.0582Z" fill="#99BBEB"/>
<path d="M23.3716 49.2471L23.8382 50.1869L24.8767 50.3381L24.1274 51.0742L24.3049 52.1061L23.3716 51.6197L22.4449 52.1061L22.6223 51.0742L21.873 50.3381L22.9115 50.1869L23.3716 49.2471Z" fill="#99BBEB"/>
<path d="M27.1836 49.2471L27.6436 50.1869L28.6821 50.3381L27.9328 51.0742L28.1103 52.1061L27.1836 51.6197L26.2503 52.1061L26.4277 51.0742L25.6785 50.3381L26.7169 50.1869L27.1836 49.2471Z" fill="#99BBEB"/>
<path d="M30.989 49.2471L31.4491 50.1869L32.4941 50.3381L31.7382 51.0742L31.9157 52.1061L30.989 51.6197L30.0557 52.1061L30.2331 51.0742L29.4839 50.3381L30.5223 50.1869L30.989 49.2471Z" fill="#99BBEB"/>
<path d="M34.7944 49.2471L35.261 50.1869L36.2995 50.3381L35.5437 51.0742L35.7211 52.1061L34.7944 51.6197L33.8611 52.1061L34.0451 51.0742L33.2893 50.3381L34.3278 50.1869L34.7944 49.2471Z" fill="#99BBEB"/>
<path d="M106.75 20.4404H78.1794V67.2758H106.75V20.4404Z" fill="#99BBEB"/>
<path d="M105.817 21.4004H79.678V65.495H105.817V21.4004Z" fill="white"/>
<path d="M88.7349 30.9102C88.7349 33.0068 89.9968 36.3916 92.9741 36.2864C95.9514 36.1747 96.6152 32.9542 96.727 32.0406C96.8453 31.127 88.7349 30.9102 88.7349 30.9102Z" fill="#7A4E34"/>
<path d="M87.4927 39.0794C88.4785 36.9631 90.1414 36.2861 92.8755 36.2861C96.1289 36.2861 97.8246 37.4626 98.2978 39.1846C92.4746 39.2635 87.4927 39.0794 87.4927 39.0794Z" fill="#D54A41"/>
<path d="M93.4145 37.9754C93.1056 38.4355 92.8755 38.4552 92.5338 37.9754C92.2643 37.5942 91.7319 36.7266 91.7319 36.2863V31.9024C91.7319 31.4621 92.0934 31.1006 92.5338 31.1006H93.4145C93.8548 31.1006 94.2163 31.4621 94.2163 31.9024V36.2863C94.2163 36.7266 93.6971 37.5613 93.4145 37.9754Z" fill="#F09959"/>
<path d="M93.4145 31.1074H92.5404C92.1 31.1074 91.7385 31.4689 91.7385 31.9093V35.8199C92.7244 36.1354 93.6248 35.511 94.2163 34.8077V31.9093C94.2163 31.4623 93.8549 31.1074 93.4145 31.1074Z" fill="#E38540"/>
<path d="M92.9807 34.7682C94.4472 34.7682 95.636 33.1469 95.636 31.1468C95.636 29.1468 94.4472 27.5254 92.9807 27.5254C91.5142 27.5254 90.3254 29.1468 90.3254 31.1468C90.3254 33.1469 91.5142 34.7682 92.9807 34.7682Z" fill="#F09959"/>
<path d="M94.4399 28.3995C94.1244 29.5102 93.4343 29.4971 92.4681 29.8651C91.502 30.2332 91.0419 30.6013 90.7264 31.3111C90.3255 32.2181 90.9104 34.8668 90.9104 34.8668C90.9104 34.8668 88.4721 33.0396 88.7481 30.1675C89.0307 27.2953 90.7264 26.1846 92.3169 26.1846C93.9141 26.1846 94.5187 27.1573 94.5187 27.1573C94.5187 27.1573 95.3666 27.1639 96.1684 28.1103C97.2463 29.3919 96.9177 32.4941 96.1684 33.6049C95.4191 34.7156 94.9196 35.064 94.9394 35.018C94.9591 34.9654 95.636 32.4153 95.2746 30.8313C94.9131 29.2473 94.4399 28.3995 94.4399 28.3995Z" fill="#7A4E34"/>
<path d="M93.9731 33.1123C93.9731 33.1123 93.5262 33.6907 92.9741 33.6907C92.422 33.6907 91.9751 33.1123 91.9751 33.1123H93.9731Z" fill="white"/>
<path d="M96.1354 44.8172H89.4315C89.0043 44.8172 88.6494 44.4688 88.6494 44.0351C88.6494 43.6078 88.9977 43.2529 89.4315 43.2529H96.1354C96.5627 43.2529 96.9176 43.6013 96.9176 44.0351C96.9176 44.4688 96.5692 44.8172 96.1354 44.8172Z" fill="#99BBEB"/>
<path d="M97.3645 47.2166H88.2025C87.7753 47.2166 87.4204 46.8683 87.4204 46.4345C87.4204 46.0073 87.7688 45.6523 88.2025 45.6523H97.3645C97.7918 45.6523 98.1467 46.0007 98.1467 46.4345C98.1467 46.8617 97.7983 47.2166 97.3645 47.2166Z" fill="#99BBEB"/>
<path d="M103.93 55.8328H81.6432C81.3934 55.8328 81.1897 55.629 81.1897 55.3793C81.1897 55.1295 81.3934 54.9258 81.6432 54.9258H103.93C104.18 54.9258 104.384 55.1295 104.384 55.3793C104.384 55.629 104.18 55.8328 103.93 55.8328Z" fill="#99BBEB"/>
<path d="M103.93 57.9363H81.6432C81.3934 57.9363 81.1897 57.7325 81.1897 57.4828C81.1897 57.233 81.3934 57.0293 81.6432 57.0293H103.93C104.18 57.0293 104.384 57.233 104.384 57.4828C104.384 57.7325 104.18 57.9363 103.93 57.9363Z" fill="#99BBEB"/>
<path d="M103.93 60.0388H81.6432C81.3934 60.0388 81.1897 59.8351 81.1897 59.5853C81.1897 59.3356 81.3934 59.1318 81.6432 59.1318H103.93C104.18 59.1318 104.384 59.3356 104.384 59.5853C104.384 59.8351 104.18 60.0388 103.93 60.0388Z" fill="#99BBEB"/>
<path d="M100.809 39.5989H84.7586C84.3117 39.5989 83.9502 39.2375 83.9502 38.7905V23.9959C83.9502 23.549 84.3117 23.1875 84.7586 23.1875H100.809C101.255 23.1875 101.617 23.549 101.617 23.9959V38.7905C101.617 39.2375 101.255 39.5989 100.809 39.5989ZM84.7586 23.8447C84.6797 23.8447 84.6074 23.9105 84.6074 23.9959V38.7905C84.6074 38.8694 84.6732 38.9417 84.7586 38.9417H100.809C100.887 38.9417 100.96 38.876 100.96 38.7905V23.9959C100.96 23.917 100.894 23.8447 100.809 23.8447H84.7586Z" fill="#99BBEB"/>
<path d="M87.0786 49.2471L87.5387 50.1869L88.5771 50.3381L87.8278 51.0742L88.0053 52.1061L87.0786 51.6197L86.1453 52.1061L86.3227 51.0742L85.5735 50.3381L86.6119 50.1869L87.0786 49.2471Z" fill="#99BBEB"/>
<path d="M90.884 49.2471L91.3441 50.1869L92.3891 50.3381L91.6333 51.0742L91.8107 52.1061L90.884 51.6197L89.9507 52.1061L90.1282 51.0742L89.3789 50.3381L90.4174 50.1869L90.884 49.2471Z" fill="#99BBEB"/>
<path d="M94.6894 49.2471L95.1561 50.1869L96.1945 50.3381L95.4387 51.0742L95.6161 52.1061L94.6894 51.6197L93.7561 52.1061L93.9336 51.0742L93.1843 50.3381L94.2228 50.1869L94.6894 49.2471Z" fill="#99BBEB"/>
<path d="M98.4948 49.2471L98.9615 50.1869L99.9999 50.3381L99.2441 51.0742L99.4216 52.1061L98.4948 51.6197L97.5681 52.1061L97.7456 51.0742L96.9897 50.3381L98.0282 50.1869L98.4948 49.2471Z" fill="#99BBEB"/>
<path opacity="0.2" d="M81.3932 66.8094H36.2996L39.4872 20.6182H83.0166L81.3932 66.8094Z" fill="#99BBEB"/>
<path d="M80.059 11.876H41.0317V75.8457H80.059V11.876Z" fill="#99BBEB"/>
<path d="M78.7773 13.1777H43.0757V73.4012H78.7773V13.1777Z" fill="white"/>
<path d="M57.6009 25.8295C57.5746 25.7573 56.9502 22.1687 56.8779 20.7753C56.8056 19.382 59.1191 19.1782 59.1191 19.1782C59.1191 19.1782 61.012 18.1595 62.3856 18.6787C63.7527 19.2045 64.686 20.0852 65.3103 21.1762C65.9347 22.2738 64.7648 25.6915 64.7648 25.6915L57.6009 25.8295Z" fill="#2E2D3D"/>
<path d="M53.309 37.3573C53.3025 37.2982 53.4668 35.8851 53.4733 35.8325C53.7888 32.8618 57.4563 32.0205 61.1105 32.0205C65.4089 32.0205 68.3205 32.8092 68.7872 35.8983C68.8003 35.9903 69.0501 37.4034 69.0369 37.5019C61.0711 37.6005 53.309 37.3573 53.309 37.3573Z" fill="#D5E1E8"/>
<path d="M61.8467 34.3281C61.4195 34.9591 61.1106 34.9854 60.644 34.3281C60.2759 33.8089 59.0469 32.6193 59.0469 32.0212L59.553 26.0402C59.553 25.4422 60.0459 24.9492 60.644 24.9492H61.8467C62.4448 24.9492 62.9378 25.4422 62.9378 26.0402L63.1744 32.0212C63.1744 32.6193 62.2279 33.7629 61.8467 34.3281Z" fill="#F09959"/>
<path d="M61.8467 24.9424H60.6439C60.0458 24.9424 59.5529 25.4353 59.5529 26.0334L59.1125 31.344C60.4599 31.7712 62.2805 30.9036 63.0823 29.9375L62.9311 26.0334C62.9377 25.4353 62.4448 24.9424 61.8467 24.9424Z" fill="#E38540"/>
<path d="M57.1277 32.4545L59.0534 36.0102C59.0534 36.0102 60.0853 35.1624 60.1839 35.3267C60.2825 35.491 59.9999 37.5876 59.9999 37.5876C59.9999 37.5876 62.2936 37.6205 62.3922 37.5219C62.4908 37.4233 61.9256 35.2478 62.1622 35.2478C62.3922 35.2478 63.0955 35.8788 63.0955 35.8788L65.2447 32.4545L64.7715 32.3428L61.2552 34.2356L57.4892 32.3822L57.1277 32.4545Z" fill="#BDCCD4"/>
<path d="M59.3293 34.0912L60.7556 35.0508L60.3152 37.5943L62.2409 37.4892L61.7612 35.1757L62.9442 34.0912L62.3855 33.5654H59.888L59.3293 34.0912Z" fill="#D54A41"/>
<path d="M59.152 30.7131L57.384 32.3957C57.384 32.3957 59.1849 35.5965 59.2835 35.5965C59.3821 35.5965 60.8083 33.8285 60.8083 33.8285L61.7219 33.8153L63.1678 35.3336L64.8438 32.3628L63.1349 30.5488C63.1349 30.5488 61.6759 33.375 61.4064 33.4407C61.1435 33.5064 61.1369 33.5393 60.9266 33.375C60.7163 33.2107 59.152 30.7131 59.152 30.7131Z" fill="#D5E1E8"/>
<path d="M61.2486 29.9504C63.2523 29.9504 64.8766 27.7376 64.8766 25.0079C64.8766 22.2783 63.2523 20.0654 61.2486 20.0654C59.2449 20.0654 57.6206 22.2783 57.6206 25.0079C57.6206 27.7376 59.2449 29.9504 61.2486 29.9504Z" fill="#F09959"/>
<path d="M57.9886 24.9287C58.3303 25.6451 58.2186 26.4075 57.7388 26.631C57.2656 26.8545 56.6018 26.4601 56.26 25.7503C55.9183 25.0339 56.03 24.2715 56.5098 24.048C56.9896 23.818 57.6534 24.2123 57.9886 24.9287Z" fill="#F09959"/>
<path d="M64.3377 24.9287C63.9959 25.6451 64.1076 26.4075 64.5874 26.631C65.0606 26.8545 65.7244 26.4601 66.0662 25.7503C66.408 25.0339 66.2962 24.2715 65.8165 24.048C65.3367 23.818 64.6794 24.2123 64.3377 24.9287Z" fill="#F09959"/>
<path d="M62.8589 27.0322C62.8589 27.0322 62.136 28.2021 61.2487 28.2021C60.3614 28.2021 59.6384 27.0322 59.6384 27.0322H62.8589Z" fill="white"/>
<path d="M59.119 21.6426C60.611 20.5976 61.288 20.7685 62.4053 22.4905C63.5292 24.2125 64.87 24.2388 64.87 24.2388L65.0474 22.4576C65.0474 22.4576 63.378 19.224 61.1368 19.6512C58.8956 20.0718 57.6205 22.0896 57.6205 22.0896C57.6205 22.0896 57.5088 25.8687 57.8243 26.0002C58.1398 26.1316 58.1726 24.7777 58.3961 24.5082C58.6195 24.2322 58.1726 22.9374 58.4684 22.3393C58.7707 21.7412 59.119 21.6426 59.119 21.6426Z" fill="#2E2D3D"/>
<path d="M63.9302 23.5879C64.4494 24.1597 64.2522 26.4272 64.5283 26.4009C64.8043 26.3746 64.9029 24.232 64.824 24.0085C64.7517 23.7851 63.9302 23.5879 63.9302 23.5879Z" fill="#2E2D3D"/>
<path d="M69.3128 45.1724H52.6516C52.0667 45.1724 51.5869 44.6927 51.5869 44.1077C51.5869 43.5228 52.0667 43.043 52.6516 43.043H69.3128C69.8978 43.043 70.3776 43.5228 70.3776 44.1077C70.3776 44.6927 69.8978 45.1724 69.3128 45.1724Z" fill="#99BBEB"/>
<path d="M67.2425 48.4381H54.7286C54.1436 48.4381 53.6638 47.9583 53.6638 47.3733C53.6638 46.7884 54.1436 46.3086 54.7286 46.3086H67.2425C67.8275 46.3086 68.3073 46.7884 68.3073 47.3733C68.3073 47.9649 67.8275 48.4381 67.2425 48.4381Z" fill="#99BBEB"/>
<path d="M76.2009 60.2102H45.7638C45.422 60.2102 45.146 59.9342 45.146 59.5924C45.146 59.2507 45.422 58.9746 45.7638 58.9746H76.2009C76.5426 58.9746 76.8187 59.2507 76.8187 59.5924C76.8187 59.9342 76.5426 60.2102 76.2009 60.2102Z" fill="#99BBEB"/>
<path d="M76.2009 63.0823H45.7638C45.422 63.0823 45.146 62.8063 45.146 62.4645C45.146 62.1227 45.422 61.8467 45.7638 61.8467H76.2009C76.5426 61.8467 76.8187 62.1227 76.8187 62.4645C76.8187 62.8063 76.5426 63.0823 76.2009 63.0823Z" fill="#99BBEB"/>
<path d="M76.2009 65.9544H45.7638C45.422 65.9544 45.146 65.6783 45.146 65.3366C45.146 64.9948 45.422 64.7188 45.7638 64.7188H76.2009C76.5426 64.7188 76.8187 64.9948 76.8187 65.3366C76.8187 65.6783 76.5426 65.9544 76.2009 65.9544Z" fill="#99BBEB"/>
<path d="M71.9485 37.9226H50.0227C49.4838 37.9226 49.0369 37.4822 49.0369 36.9367V16.7329C49.0369 16.194 49.4772 15.7471 50.0227 15.7471H71.9485C72.4874 15.7471 72.9343 16.1874 72.9343 16.7329V36.9367C72.9278 37.4756 72.4874 37.9226 71.9485 37.9226ZM50.0227 16.4043C49.8453 16.4043 49.6941 16.5489 49.6941 16.7329V36.9367C49.6941 37.1141 49.8387 37.2653 50.0227 37.2653H71.9485C72.1259 37.2653 72.2771 37.1207 72.2771 36.9367V16.7329C72.2771 16.5555 72.1325 16.4043 71.9485 16.4043H50.0227Z" fill="#99BBEB"/>
<path d="M50.5486 51.2188L51.1796 52.507L52.5992 52.7107L51.5739 53.7163L51.8171 55.1294L50.5486 54.459L49.2736 55.1294L49.5168 53.7163L48.4915 52.7107L49.9111 52.507L50.5486 51.2188Z" fill="#99BBEB"/>
<path d="M55.7474 51.2188L56.3783 52.507L57.798 52.7107L56.7727 53.7163L57.0158 55.1294L55.7474 54.459L54.4723 55.1294L54.7155 53.7163L53.6902 52.7107L55.1098 52.507L55.7474 51.2188Z" fill="#99BBEB"/>
<path d="M60.9463 51.2188L61.5773 52.507L62.9969 52.7107L61.9716 53.7163L62.2148 55.1294L60.9463 54.459L59.6713 55.1294L59.9145 53.7163L58.8892 52.7107L60.3088 52.507L60.9463 51.2188Z" fill="#99BBEB"/>
<path d="M66.1451 51.2188L66.776 52.507L68.1957 52.7107L67.1704 53.7163L67.4136 55.1294L66.1451 54.459L64.87 55.1294L65.1132 53.7163L64.0879 52.7107L65.5075 52.507L66.1451 51.2188Z" fill="#99BBEB"/>
<path d="M71.4227 51.2188L72.0602 52.507L73.4799 52.7107L72.448 53.7163L72.6912 55.1294L71.4227 54.459L70.1542 55.1294L70.3974 53.7163L69.3721 52.7107L70.7917 52.507L71.4227 51.2188Z" fill="#99BBEB"/>
<path d="M142.741 73.7888H92.6586C92.3562 73.7888 92.113 73.5457 92.113 73.2433V72.4283C92.113 72.126 92.3562 71.8828 92.6586 71.8828H142.741C143.043 71.8828 143.286 72.126 143.286 72.4283V73.2433C143.286 73.5457 143.043 73.7888 142.741 73.7888Z" fill="#2E5B9A"/>
<path d="M155.636 46.3227C156.313 48.7151 154.657 51.1797 152.829 51.6989C151.002 52.2182 149.701 50.5882 149.024 48.1958C148.347 45.8035 149.274 43.4439 151.101 42.9247C152.928 42.4121 154.959 43.9303 155.636 46.3227Z" fill="#F09959"/>
<path d="M145.402 92.6777C145.402 92.6777 150.082 99.9469 150.713 100.262C151.344 100.578 152.928 100.657 152.33 101.84C151.738 103.023 151.502 107.683 150.95 107.919C150.398 108.156 145.659 108.708 146.369 107.919C147.078 107.131 147.519 107.525 147.874 106.105C148.235 104.686 148.735 101.997 148.064 101.445C147.394 100.893 143.286 95.918 143.286 95.918L145.402 92.6777Z" fill="#F09959"/>
<path d="M121.853 95.7998C121.853 95.7998 116.168 105.172 115.11 106.013C114.058 106.855 110.582 108.123 113.428 108.333C116.273 108.544 117.64 107.387 119.428 106.861C121.216 106.335 123.431 106.02 122.59 104.646C121.748 103.279 122.097 100.289 123.911 98.3894C125.725 96.4965 121.853 95.7998 121.853 95.7998Z" fill="#F09959"/>
<path d="M150.877 74.0647C150.877 74.0647 136.799 73.6966 131.212 78.2776C127.946 83.2267 120.046 97.8307 119.435 99.4409C119.855 99.8616 122.228 100.624 123.279 100.519C126.388 96.812 130.496 93.6112 132.126 90.7061C134.137 87.1241 134.762 85.3364 138.021 85.021C141.288 84.7055 148.662 83.6539 150.871 83.6539C153.079 83.6539 150.877 74.0647 150.877 74.0647Z" fill="#6791C9"/>
<path d="M163.155 108.36H162.412L157.121 86.2832H158.744L163.155 108.36Z" fill="#2E5B9A"/>
<path d="M141.045 108.36H141.781L147.854 85.501H146.231L141.045 108.36Z" fill="#2E5B9A"/>
<path d="M158.896 73.0986L150.713 74.5117C150.713 74.5117 139.836 74.6103 134.86 75.537C130.338 76.3783 129.668 81.518 134.86 88.5965C137.811 92.6188 140.302 95.8262 145.402 99.4411C146.697 98.4881 147.197 98.1266 147.552 95.8393C147.184 95.3333 146.231 92.1653 145.928 91.5475C143.109 85.652 139.343 83.5094 139.29 82.931C139.921 81.9057 156.03 88.281 159.231 84.5281C162.294 80.9462 158.896 73.0986 158.896 73.0986Z" fill="#75A1DE"/>
<path d="M159.238 54.5708C157.082 54.2684 154.887 54.6759 152.829 56.1679C151.035 57.995 149.004 61.0118 149.129 65.9871C149.287 72.3033 148.15 72.7108 149.333 74.4525C154.275 76.4899 162.728 85.2642 160.736 75.859C159.297 69.0499 163.897 63.9825 160.184 56.4308C159.888 55.813 159.507 55.2149 159.238 54.5708Z" fill="#F37168"/>
<path d="M149.129 68.3603C149.031 71.6531 148.57 72.6258 148.925 73.6577C150.943 73.8614 154.624 74.6698 155.544 75.958C156.595 77.4303 157.654 77.6406 157.161 76.5561C156.668 75.4651 155.373 73.9206 157.371 68.6232C159.369 63.3192 160.322 59.7438 158.357 56.0566L149.129 68.3603Z" fill="#D54A41"/>
<path d="M159.237 54.5705C157.91 51.4288 157.581 47.8994 157.581 47.8994L154.104 48.9247C154.104 48.9247 156.076 53.348 154.183 54.9254C153.782 55.2606 153.316 55.6681 152.829 56.161C154.887 54.6756 157.082 54.2681 159.237 54.5705Z" fill="#F09959"/>
<path d="M157.686 48.7347C157.483 48.5506 157.22 48.3206 156.95 48.084L154.118 48.9187C154.118 48.9253 154.111 48.9318 154.111 48.9318C154.177 49.0896 154.9 50.7721 154.998 52.3955C155.846 51.8829 156.766 51.0482 157.825 49.5891C157.765 49.267 157.719 48.9778 157.686 48.7347Z" fill="#E38540"/>
<path d="M156.793 55.5567C153.211 56.8055 153.611 60.5781 150.319 66.1384C148.616 69.0171 147.032 68.9711 147.032 68.9711C147.032 68.9711 143.036 69.004 138.199 68.4124C135.169 68.0444 134.979 68.9448 137.082 69.6941C141.328 71.2123 145.738 72.8488 149.293 72.4545C152.849 72.0601 158.929 62.9901 159.244 60.6306C159.671 57.3707 158.593 54.9257 156.793 55.5567Z" fill="#F09959"/>
<path d="M154.946 87.2034C154.722 87.2034 154.492 87.2034 154.262 87.1969C151.344 87.1246 149.359 86.7237 147.762 86.395C145.902 86.0138 144.87 85.8101 143.68 86.3753C143.22 86.5922 142.675 86.4016 142.451 85.9415C142.228 85.4815 142.425 84.9359 142.885 84.7125C144.633 83.8778 146.099 84.1735 148.13 84.5876C149.655 84.8965 151.554 85.2843 154.308 85.35C157.391 85.4289 159.27 84.9688 160.223 83.9106C161.071 82.9708 161.321 81.3868 161.005 78.9287C160.9 78.0874 160.789 77.3908 160.697 76.7729C160.427 75.0312 160.25 73.8811 160.473 72.1065C160.677 70.4568 161.222 68.2616 162.491 63.9961C162.635 63.5097 163.148 63.2337 163.634 63.3783C164.121 63.5229 164.397 64.0355 164.252 64.5219C161.893 72.4614 162.011 73.237 162.517 76.4903C162.616 77.1147 162.721 77.8311 162.833 78.6921C163.22 81.722 162.826 83.766 161.59 85.1397C160.322 86.5593 158.258 87.2034 154.946 87.2034Z" fill="#2E5B9A"/>
<path d="M122.235 103.7C118.462 105.547 116.431 106.605 115.222 106.5C114.939 106.474 114.702 106.447 114.499 106.415C113.151 107.21 111.002 108.15 113.421 108.327C116.267 108.538 117.634 107.381 119.422 106.855C121.209 106.329 123.424 106.014 122.583 104.64C122.425 104.39 122.307 104.062 122.235 103.7Z" fill="#D54A41"/>
<path d="M151.121 100.42C151.029 103.41 150.614 106.368 148.787 106.927C148.301 107.078 147.861 107.098 147.473 107.045C147.184 107.4 146.835 107.406 146.362 107.926C145.652 108.714 150.391 108.162 150.943 107.926C151.495 107.689 151.732 103.029 152.323 101.846C152.816 100.873 151.837 100.643 151.121 100.42Z" fill="#D54A41"/>
<path d="M136.582 72.1395H124.594C124.239 72.1395 123.911 71.9291 123.759 71.6071L118.916 61.1766C118.699 60.7165 118.902 60.171 119.362 59.9541C119.823 59.7372 120.368 59.941 120.585 60.401L125.186 70.2926H136.589C137.095 70.2926 137.509 70.7067 137.509 71.2127C137.509 71.7188 137.095 72.1395 136.582 72.1395Z" fill="#75A1DE"/>
<path d="M139.093 68.5238C136.668 68.4909 134.269 67.045 133.073 67.2553C131.876 67.4656 127.979 70.1669 128.472 70.272C128.965 70.3772 132.054 68.7735 132.159 68.7538C132.264 68.7275 132.935 69.8645 134.584 70.2786C136.234 70.6927 134.597 69.043 139.711 70.5875C143.036 71.5931 139.093 68.5238 139.093 68.5238Z" fill="#F09959"/>
<path d="M158.883 51.6992L159.238 54.5648C159.238 54.5648 156.102 54.7488 154.545 55.6296C152.987 56.5103 150.68 59.0407 150.68 59.0407L152.56 55.8004L152.829 53.7301L158.883 51.6992Z" fill="#F2E5DE"/>
<path d="M157.548 55.2082C155.222 54.7744 154.144 56.8579 152.632 60.2624C151.12 63.667 148.544 67.8011 148.031 68.34C147.519 68.8724 139.395 68.34 139.395 68.34C139.395 68.34 139.152 70.6929 139.395 70.9756C139.638 71.2582 141.045 71.2187 141.045 71.2187C141.045 71.2187 141.604 71.6657 142.136 72.0206C142.662 72.3755 147.124 73.0459 149.195 72.9341C151.265 72.8224 153.165 72.6515 153.441 72.3361C153.723 72.0206 159.375 63.3121 159.724 60.1901C160.072 57.0748 158.731 55.4317 157.548 55.2082Z" fill="#F2E5DE"/>
<path d="M150.68 40.887C146.277 41.0974 146.967 47.7224 146.967 47.7224C146.967 47.7224 148.11 48.0773 150.509 47.683C150.325 46.9731 150.404 45.1526 150.404 45.1526C150.404 45.1526 150.68 46.6248 151.035 47.5252C151.541 47.7553 152.113 47.5515 153.086 47.3149C153.585 49.4181 154.998 50.3119 155.964 50.6143C157.036 50.9495 158.166 51.3504 159.428 50.7194C160.69 50.0885 160 43.6278 159.323 42.3264C158.317 40.3744 156.641 38.6327 153.743 39.5528C152.304 40.0129 150.68 40.887 150.68 40.887Z" fill="#303C60"/>
<path d="M158.337 48.7542L160.138 51.3832C160.138 51.3832 158.14 56.3717 163.943 58.626C168.492 60.394 167.953 63.5094 165.902 66.6444C163.851 69.7795 167.131 72.5137 167.131 72.5137C167.131 72.5137 167.631 69.0434 172.047 68.3861C178.068 67.4923 179.777 59.4082 175.274 55.3661C171.554 52.0207 170.424 54.7943 167.9 51.7907C165.383 48.7871 160.624 50.818 160.624 50.818L158.883 48.2744L158.337 48.7542Z" fill="#303C60"/>
<path d="M177.345 63.5159C177.318 63.5159 177.292 63.5093 177.266 63.4961C177.187 63.4567 177.161 63.3581 177.2 63.2792C178.712 60.5122 177.476 57.1603 176.858 56.2533C176.792 56.1547 176.727 56.0627 176.661 55.9575C176.05 55.0045 175.294 53.8215 171.239 53.0919C170.259 52.9145 169.471 52.3361 168.636 51.7183C166.907 50.4498 164.949 49.0104 160.69 50.969C160.611 51.0085 160.512 50.969 160.48 50.8902C160.44 50.8113 160.48 50.7127 160.558 50.6798C164.988 48.6424 167.026 50.1409 168.827 51.462C169.635 52.0535 170.397 52.6121 171.298 52.7765C175.491 53.5323 176.293 54.7811 176.937 55.7866C177.003 55.8852 177.062 55.9838 177.128 56.0758C177.778 57.0288 179.073 60.5385 177.489 63.437C177.456 63.4896 177.404 63.5159 177.345 63.5159Z" fill="#303C60"/>
<path d="M157.378 51.4494C157.088 51.4494 156.779 51.4231 156.444 51.3771C154.906 51.147 152.836 50.2729 152.672 45.3567C152.672 45.2713 152.737 45.1924 152.829 45.1924C152.921 45.1924 152.994 45.2581 152.994 45.3501C153.059 47.3744 153.46 48.873 154.19 49.8063C154.742 50.5161 155.472 50.9104 156.49 51.0682C157.916 51.2785 158.863 51.0156 159.297 50.286C159.343 50.2072 159.441 50.1875 159.514 50.2335C159.592 50.2795 159.612 50.3781 159.566 50.4504C159.172 51.1142 158.436 51.4494 157.378 51.4494Z" fill="#303C60"/>
<path d="M97.4827 108.36H98.6657L103.266 73.1777H100.664L97.4827 108.36Z" fill="#2E5B9A"/>
<path d="M137.634 108.36H136.451L131.844 73.1777H134.446L137.634 108.36Z" fill="#2E5B9A"/>
<path d="M184.029 78.665C186.073 80.5316 185.186 82.4048 183.674 85.875C182.162 89.3453 181.893 102.162 181.893 102.162L183.142 101.984C183.142 101.984 182.964 88.8129 184.653 85.2506C186.342 81.6884 187.059 79.9138 188.57 81.0706C190.082 82.2273 184.029 78.665 184.029 78.665Z" fill="#74B570"/>
<path d="M182.905 76.2402C183.155 75.1295 184.627 73.9333 186.605 72.9146C186.309 74.5511 185.37 77.2195 186.342 77.765C187.657 78.5011 186.467 74.7746 186.98 72.724C188.833 71.817 191.061 71.0808 193.119 70.7128C193.119 70.7194 193.112 70.7259 193.112 70.7325C191.955 73.6704 190.444 74.8271 191.068 75.2741C191.535 75.6093 193.066 72.2179 195.077 70.4762C196.589 70.3973 197.87 70.6011 198.626 71.1991C199.796 72.1259 200.585 72.9474 199.408 75.767C198.738 76.2468 197.864 76.5951 196.852 76.6937C194.183 76.9632 192.934 77.0486 194.808 77.9425C195.721 78.3763 197.259 77.9162 198.501 77.6402C198.1 78.3828 197.601 79.2241 196.996 80.1837C196.615 80.7884 196.194 81.3207 195.748 81.7742C194.887 81.9385 194.137 81.9385 193.736 81.7677C192.488 81.2353 189.287 79.5396 188.485 80.256C187.703 80.9527 194.42 81.393 193.953 83.1676C190.7 85.0408 186.973 84.1535 186.309 82.4315C185.422 80.1245 182.156 79.579 182.905 76.2402Z" fill="#9CD499"/>
<path d="M189.635 88.899C186.073 86.2306 182.425 88.7216 180.559 91.5674C178.692 94.4133 180.026 100.821 180.026 100.821C180.026 100.821 180.736 100.821 180.736 100.552C180.736 100.283 178.777 92.9871 183.404 89.6943C186.303 87.6371 188.386 88.6295 188.656 89.6023C188.925 90.575 187.499 92.3627 187.499 92.3627L189.635 88.899Z" fill="#74B570"/>
<path d="M181.446 83.4111C185.008 83.4111 186.165 88.932 185.186 92.1328C184.206 95.3336 182.872 101.301 182.872 101.301L181.985 100.414C181.985 100.414 185.37 92.0473 184.568 88.3076C183.766 84.5679 181.807 83.9435 181.452 83.9435C181.091 83.9435 181.446 83.4111 181.446 83.4111Z" fill="#9CD499"/>
<path d="M184.436 92.1588C184.686 91.8302 184.995 91.5541 185.376 91.3701C185.324 91.633 185.264 91.8893 185.192 92.1325C184.745 93.5916 184.226 95.6225 183.792 97.4036C183.753 97.1736 183.694 96.8253 183.595 96.2798C183.575 96.1549 183.556 96.0103 183.542 95.8657C183.891 94.6826 184.219 93.3944 184.436 92.1588Z" fill="#74B570"/>
<path d="M185.409 92.1852C192.172 89.3393 188.61 85.4287 194.571 88.0117C194.992 88.1957 195.504 88.6492 196.017 89.2867C195.485 89.4379 194.84 89.543 194.131 89.4379C192.35 89.1684 192.974 90.5946 195.912 90.9496C196.464 91.0153 196.917 91.1073 197.285 91.2387C198.685 93.9269 199.316 97.4629 196.352 98.6919C195.767 98.9351 195.051 99.0731 194.242 99.1257C193.329 98.4027 194.466 94.1963 193.059 94.7747C191.705 95.3334 193.48 98.3764 193.237 99.1454C191.903 99.1191 190.424 98.9022 189.011 98.5539C188.452 98.2384 188.025 97.8178 187.893 97.2657C187.446 95.3991 190.384 94.2424 190.476 92.6387C190.555 91.1664 189.398 95.8789 186.329 96.569C183.556 95.2742 182.248 93.5128 185.409 92.1852Z" fill="#9CD499"/>
<path d="M180.591 87.1504C181.301 85.6388 179.435 85.2839 179.527 86.4406C179.605 87.4659 179.612 89.9569 178.56 90.6338C176.746 90.4367 174.282 89.7071 172.415 88.5898C172.389 88.4386 172.415 88.2875 172.494 88.1232C173.296 86.5195 178.455 85.1853 176.858 84.6529C175.583 84.2257 173.349 86.7364 171.548 88.0049C170.463 87.1833 169.74 86.204 169.74 85.113C169.74 83.6342 171.535 81.9582 173.861 81.1629C174.906 81.2681 175.879 81.8399 177.397 82.7009C179.638 83.9694 179.119 81.9188 177.003 80.6963C178.83 80.7883 180.657 81.5704 181.998 83.437C181.998 83.437 181.873 84.2323 182.714 85.4679C185.021 88.833 182.359 90.8047 179.178 90.6733C179.349 89.7926 180.098 88.1955 180.591 87.1504Z" fill="#9CD499"/>
<path d="M189.425 88.7476C191.166 90.0949 193.099 91.6657 195.471 92.7305C197.844 93.7952 197.371 97.2786 197.371 97.2786C197.371 97.2786 197.726 94.275 195.747 93.2431C193.769 92.2178 192.461 90.9888 190.963 90.7522C189.464 90.5156 188.629 90.2789 188.629 90.2789C188.629 90.2789 189.103 89.3325 188.827 88.971C188.551 88.6095 189.425 88.7476 189.425 88.7476Z" fill="#74B570"/>
<path d="M198.002 72.9541C191.633 74.6564 186.967 78.7313 186.092 79.7172C185.225 80.703 185.225 80.9856 185.225 80.9856L185.895 82.2541L186.211 82.0964C186.211 82.0964 185.698 81.0251 187.039 79.6449C189.359 77.2591 192.179 75.3728 194.117 74.5446C196.063 73.7034 198.002 72.9541 198.002 72.9541Z" fill="#74B570"/>
<path d="M180.42 108.209H182.852C184.581 108.209 185.987 106.809 185.987 105.074V99.4805H177.285V105.074C177.292 106.802 178.692 108.209 180.42 108.209Z" fill="#75A1DE"/>
<path d="M185.994 100.479H177.292V101.091H185.994V100.479Z" fill="white"/>
<path d="M185.994 101.597H177.292V101.958H185.994V101.597Z" fill="white"/>
<path d="M21.7416 100.598H23.8185C24.2588 100.598 24.6137 100.243 24.6137 99.8029V98.0941C24.6137 97.6537 24.2588 97.2988 23.8185 97.2988H21.7416C21.3012 97.2988 20.9463 97.6537 20.9463 98.0941V99.8029C20.9463 100.243 21.3012 100.598 21.7416 100.598Z" fill="#9EC8FF"/>
<path d="M15.0772 100.598H17.1541C17.5945 100.598 17.9494 100.243 17.9494 99.8029V98.0941C17.9494 97.6537 17.5945 97.2988 17.1541 97.2988H15.0772C14.6369 97.2988 14.282 97.6537 14.282 98.0941V99.8029C14.2886 100.243 14.6435 100.598 15.0772 100.598Z" fill="#9EC8FF"/>
<path d="M8.41929 100.598H10.4962C10.9365 100.598 11.2915 100.243 11.2915 99.8029V98.0941C11.2915 97.6537 10.9365 97.2988 10.4962 97.2988H8.41929C7.97894 97.2988 7.62402 97.6537 7.62402 98.0941V99.8029C7.62402 100.243 7.97894 100.598 8.41929 100.598Z" fill="#9EC8FF"/>
<path d="M197.949 39.1651V37.0882C197.949 36.6479 197.594 36.293 197.154 36.293H195.445C195.005 36.293 194.65 36.6479 194.65 37.0882V39.1651C194.65 39.6055 195.005 39.9604 195.445 39.9604H197.154C197.594 39.9538 197.949 39.5989 197.949 39.1651Z" fill="#9EC8FF"/>
<path d="M197.949 45.8233V43.7464C197.949 43.3061 197.594 42.9512 197.154 42.9512H195.445C195.005 42.9512 194.65 43.3061 194.65 43.7464V45.8233C194.65 46.2637 195.005 46.6186 195.445 46.6186H197.154C197.594 46.6186 197.949 46.2637 197.949 45.8233Z" fill="#9EC8FF"/>
<path d="M197.949 52.4806V50.4037C197.949 49.9633 197.594 49.6084 197.154 49.6084H195.445C195.005 49.6084 194.65 49.9633 194.65 50.4037V52.4806C194.65 52.9209 195.005 53.2758 195.445 53.2758H197.154C197.594 53.2758 197.949 52.9209 197.949 52.4806Z" fill="#9EC8FF"/>
</g>
<defs>
<clipPath id="clip0_12975_179168">
<rect width="200" height="112.192" fill="white"/>
</clipPath>
</defs>
</svg>
