<svg width="24" height="24" viewBox="0 0 24 24" fill="none" xmlns="http://www.w3.org/2000/svg">
<path opacity="0.4" d="M17.9976 7.16C17.9376 7.15 17.8676 7.15 17.8076 7.16C16.4276 7.11 15.3276 5.98 15.3276 4.58C15.3276 3.15 16.4776 2 17.9076 2C19.3376 2 20.4876 3.16 20.4876 4.58C20.4776 5.98 19.3776 7.11 17.9976 7.16Z" stroke="#84878D" stroke-width="1.5" stroke-linecap="round" stroke-linejoin="round"/>
<path opacity="0.4" d="M16.9675 14.4402C18.3375 14.6702 19.8475 14.4302 20.9075 13.7202C22.3175 12.7802 22.3175 11.2402 20.9075 10.3002C19.8375 9.59016 18.3075 9.35016 16.9375 9.59016" stroke="#84878D" stroke-width="1.5" stroke-linecap="round" stroke-linejoin="round"/>
<path opacity="0.4" d="M5.96754 7.16C6.02754 7.15 6.09754 7.15 6.15754 7.16C7.53754 7.11 8.63754 5.98 8.63754 4.58C8.63754 3.15 7.48754 2 6.05754 2C4.62754 2 3.47754 3.16 3.47754 4.58C3.48754 5.98 4.58754 7.11 5.96754 7.16Z" stroke="#84878D" stroke-width="1.5" stroke-linecap="round" stroke-linejoin="round"/>
<path opacity="0.4" d="M6.9975 14.4402C5.6275 14.6702 4.1175 14.4302 3.0575 13.7202C1.6475 12.7802 1.6475 11.2402 3.0575 10.3002C4.1275 9.59016 5.6575 9.35016 7.0275 9.59016" stroke="#84878D" stroke-width="1.5" stroke-linecap="round" stroke-linejoin="round"/>
<path d="M12 14.6307C11.94 14.6207 11.87 14.6207 11.81 14.6307C10.43 14.5807 9.32996 13.4507 9.32996 12.0507C9.32996 10.6207 10.48 9.4707 11.91 9.4707C13.34 9.4707 14.49 10.6307 14.49 12.0507C14.48 13.4507 13.38 14.5907 12 14.6307Z" stroke="#84878D" stroke-width="1.5" stroke-linecap="round" stroke-linejoin="round"/>
<path d="M9.08997 17.7813C7.67997 18.7213 7.67997 20.2613 9.08997 21.2013C10.69 22.2713 13.31 22.2713 14.91 21.2013C16.32 20.2613 16.32 18.7213 14.91 17.7813C13.32 16.7213 10.69 16.7213 9.08997 17.7813Z" stroke="#84878D" stroke-width="1.5" stroke-linecap="round" stroke-linejoin="round"/>
</svg>
