<svg width="46" height="50" viewBox="0 0 46 50" fill="none" xmlns="http://www.w3.org/2000/svg">
<path fill-rule="evenodd" clip-rule="evenodd" d="M17.7535 48.5897L5.20801 41.3186C1.98422 39.4501 0 36.0085 0 32.2854V17.7146C0 13.9915 1.98422 10.5499 5.20801 8.68142L17.7535 1.41031C20.9979 -0.470103 25.0021 -0.470101 28.2465 1.41031L40.792 8.68142C44.0158 10.5499 46 13.9915 46 17.7146V32.2854C46 36.0085 44.0158 39.4501 40.792 41.3186L28.2465 48.5897C25.0021 50.4701 20.9979 50.4701 17.7535 48.5897ZM26.1479 5.0236L38.6934 12.2947C40.6276 13.4158 41.8182 15.4807 41.8182 17.7146V32.2854C41.8182 34.5193 40.6276 36.5842 38.6934 37.7053L26.1479 44.9764C24.2013 46.1046 21.7987 46.1046 19.8521 44.9764L7.30662 37.7053C5.37235 36.5842 4.18182 34.5193 4.18182 32.2854V17.7146C4.18182 15.4807 5.37235 13.4158 7.30662 12.2947L19.8521 5.0236C21.7987 3.89535 24.2013 3.89535 26.1479 5.0236Z" fill="#0C3F8B"/>
<path fill-rule="evenodd" clip-rule="evenodd" d="M17.255 38.6558V25.5217C17.255 24.2239 16.2019 23.1719 14.9028 23.1719H10.9772C9.67809 23.1719 8.62494 24.2239 8.62494 25.5217V34.0252L17.255 38.6558Z" fill="#E73369"/>
<path d="M27.7045 38.4779V14.6193C27.7045 13.3216 26.6514 12.2695 25.3523 12.2695H21.4318C20.1327 12.2695 19.0795 13.3216 19.0795 14.6193V39.6002L19.3443 39.746C21.2299 40.7848 23.5171 40.7848 25.4026 39.746L27.7045 38.4779Z" fill="#F2B926"/>
<path d="M38.1071 32.7074V19.3185C38.1071 18.0208 37.054 16.9688 35.7548 16.9688H31.8863C30.5871 16.9688 29.534 18.0208 29.534 19.3185V38.1539L36.3267 34.2409C37.0228 33.8399 37.6233 33.3167 38.1071 32.7074Z" fill="#59BC49"/>
</svg>
