<svg width="280" height="64" viewBox="0 0 280 64" fill="none" xmlns="http://www.w3.org/2000/svg">
<path fill-rule="evenodd" clip-rule="evenodd" d="M33.7535 55.5897L21.208 48.3186C17.9842 46.4501 16 43.0085 16 39.2854V24.7146C16 20.9915 17.9842 17.5499 21.208 15.6814L33.7535 8.41031C36.9979 6.5299 41.0021 6.5299 44.2465 8.41031L56.792 15.6814C60.0158 17.5499 62 20.9915 62 24.7146V39.2854C62 43.0085 60.0158 46.4501 56.792 48.3186L44.2465 55.5897C41.0021 57.4701 36.9979 57.4701 33.7535 55.5897ZM42.1479 12.0236L54.6934 19.2947C56.6276 20.4158 57.8182 22.4807 57.8182 24.7146V39.2854C57.8182 41.5193 56.6276 43.5842 54.6934 44.7053L42.1479 51.9764C40.2013 53.1046 37.7987 53.1046 35.8521 51.9764L23.3066 44.7053C21.3724 43.5842 20.1818 41.5193 20.1818 39.2854V24.7146C20.1818 22.4807 21.3724 20.4158 23.3066 19.2947L35.8521 12.0236C37.7987 10.8954 40.2013 10.8954 42.1479 12.0236Z" fill="#0C3F8B"/>
<path fill-rule="evenodd" clip-rule="evenodd" d="M33.255 45.6558V32.5217C33.255 31.2239 32.2018 30.1719 30.9027 30.1719H26.9772C25.678 30.1719 24.6249 31.2239 24.6249 32.5217V41.0252L33.255 45.6558Z" fill="#E73369"/>
<path d="M43.7045 45.4799V21.6213C43.7045 20.3235 42.6513 19.2715 41.3522 19.2715H37.4317C36.1326 19.2715 35.0795 20.3235 35.0795 21.6213V46.6021L35.3443 46.748C37.2298 47.7867 39.517 47.7867 41.4026 46.748L43.7045 45.4799Z" fill="#F2B926"/>
<path d="M54.107 39.7093V26.3205C54.107 25.0227 53.0539 23.9707 51.7548 23.9707H47.8862C46.5871 23.9707 45.5339 25.0227 45.5339 26.3205V45.1559L52.3266 41.2429C53.0228 40.8418 53.6232 40.3187 54.107 39.7093Z" fill="#59BC49"/>
<path d="M70.8333 24.5206C70.5936 24.5206 70.3921 24.4429 70.2287 24.2875C70.0762 24.121 70 23.9156 70 23.6714V16.2453C70 15.99 70.0762 15.7847 70.2287 15.6293C70.3921 15.4739 70.5936 15.3962 70.8333 15.3962C71.0838 15.3962 71.2853 15.4739 71.4378 15.6293C71.5903 15.7847 71.6665 15.99 71.6665 16.2453V16.4285C72.0042 16.0844 72.4126 15.8124 72.8919 15.6126C73.3711 15.4128 73.8885 15.3129 74.444 15.3129C75.1956 15.3129 75.8654 15.4794 76.4536 15.8124C77.0527 16.1343 77.521 16.6117 77.8587 17.2444C78.2073 17.8771 78.3815 18.6541 78.3815 19.5754V23.6714C78.3815 23.9156 78.2998 24.121 78.1365 24.2875C77.984 24.4429 77.7879 24.5206 77.5483 24.5206C77.3087 24.5206 77.1071 24.4429 76.9438 24.2875C76.7913 24.121 76.715 23.9156 76.715 23.6714V19.5754C76.715 18.6319 76.4645 17.9437 75.9635 17.5108C75.4733 17.0668 74.8579 16.8448 74.1172 16.8448C73.6598 16.8448 73.2459 16.9391 72.8755 17.1278C72.5052 17.3165 72.2111 17.5718 71.9933 17.8937C71.7754 18.2045 71.6665 18.5653 71.6665 18.976V23.6714C71.6665 23.9156 71.5903 24.121 71.4378 24.2875C71.2853 24.4429 71.0838 24.5206 70.8333 24.5206ZM70.8333 21.1905C70.5936 21.1905 70.3921 21.1128 70.2287 20.9574C70.0762 20.7909 70 20.5855 70 20.3413V12.3492C70 12.0939 70.0762 11.8885 70.2287 11.7331C70.3921 11.5777 70.5936 11.5 70.8333 11.5C71.0838 11.5 71.2853 11.5777 71.4378 11.7331C71.5903 11.8885 71.6665 12.0939 71.6665 12.3492V20.3413C71.6665 20.5855 71.5903 20.7909 71.4378 20.9574C71.2853 21.1128 71.0838 21.1905 70.8333 21.1905Z" fill="#0C3F8B"/>
<path d="M84.6982 24.5705C83.7941 24.5705 82.9881 24.3763 82.2801 23.9878C81.583 23.5881 81.033 23.0442 80.63 22.356C80.2378 21.6567 80.0418 20.8575 80.0418 19.9584C80.0418 19.0482 80.2269 18.2489 80.5973 17.5607C80.9785 16.8614 81.5013 16.3175 82.1658 15.929C82.8302 15.5294 83.5926 15.3296 84.4531 15.3296C85.3027 15.3296 86.0325 15.5238 86.6424 15.9123C87.2524 16.2897 87.7153 16.817 88.0312 17.4941C88.358 18.1601 88.5213 18.9316 88.5213 19.8085C88.5213 20.0194 88.4505 20.197 88.3089 20.3413C88.1673 20.4745 87.9876 20.5411 87.7698 20.5411H81.5612C81.6811 21.3071 82.0242 21.9342 82.5905 22.4226C83.1678 22.8999 83.8704 23.1386 84.6982 23.1386C85.0358 23.1386 85.3789 23.0775 85.7275 22.9554C86.0869 22.8222 86.3756 22.6724 86.5934 22.5059C86.7568 22.3838 86.9311 22.3227 87.1163 22.3227C87.3123 22.3116 87.4811 22.3671 87.6227 22.4892C87.8079 22.6557 87.9059 22.8389 87.9168 23.0387C87.9277 23.2385 87.8406 23.4105 87.6554 23.5548C87.2851 23.8546 86.8222 24.0988 86.2667 24.2875C85.7221 24.4762 85.1992 24.5705 84.6982 24.5705ZM84.4531 16.7615C83.6471 16.7615 82.999 16.9891 82.5089 17.4442C82.0187 17.8993 81.7083 18.4876 81.5776 19.2091H87.0182C86.9202 18.4987 86.6533 17.9159 86.2176 17.4608C85.782 16.9946 85.1938 16.7615 84.4531 16.7615Z" fill="#0C3F8B"/>
<path d="M89.5314 24.5039C89.3135 24.5039 89.1393 24.4373 89.0086 24.3041C88.8887 24.1598 88.8288 23.9878 88.8288 23.788C88.8288 23.5881 88.9051 23.3883 89.0576 23.1885L91.59 19.9584L88.8942 16.7116C88.7526 16.534 88.6763 16.3452 88.6654 16.1454C88.6546 15.9345 88.709 15.7569 88.8288 15.6126C88.9486 15.4683 89.1284 15.3962 89.368 15.3962C89.6294 15.3962 89.8364 15.4905 89.9888 15.6792L92.6683 18.9427L95.07 15.6792C95.1572 15.5682 95.2498 15.4961 95.3478 15.4628C95.4458 15.4184 95.5548 15.3962 95.6746 15.3962C95.9142 15.3962 96.0939 15.4739 96.2137 15.6293C96.3335 15.7736 96.388 15.9512 96.3771 16.1621C96.3771 16.373 96.3009 16.5784 96.1484 16.7782L93.6813 20.0583L96.2791 23.2218C96.4425 23.4216 96.5187 23.6215 96.5078 23.8213C96.5078 24.01 96.437 24.1709 96.2954 24.3041C96.1647 24.4373 95.9904 24.5039 95.7726 24.5039C95.6637 24.5039 95.5602 24.4873 95.4622 24.454C95.3641 24.4207 95.2716 24.3485 95.1844 24.2375L92.5866 21.0739L90.1196 24.2375C89.9562 24.4151 89.7601 24.5039 89.5314 24.5039Z" fill="#0C3F8B"/>
<path d="M100.851 24.5705C100.056 24.5705 99.3425 24.3707 98.7108 23.9711C98.0791 23.5604 97.578 23.0109 97.2077 22.3227C96.8482 21.6234 96.6685 20.8353 96.6685 19.9584C96.6685 19.0815 96.8646 18.2933 97.2567 17.594C97.6597 16.8947 98.1989 16.3452 98.8742 15.9456C99.5604 15.5349 100.328 15.3296 101.178 15.3296C102.027 15.3296 102.79 15.5349 103.465 15.9456C104.141 16.3452 104.674 16.8947 105.066 17.594C105.469 18.2933 105.671 19.0815 105.671 19.9584V23.6714C105.671 23.9156 105.589 24.121 105.426 24.2875C105.273 24.4429 105.077 24.5206 104.838 24.5206C104.598 24.5206 104.397 24.4429 104.233 24.2875C104.081 24.121 104.004 23.9156 104.004 23.6714V23.0553C103.623 23.5215 103.16 23.8934 102.616 24.1709C102.082 24.4373 101.494 24.5705 100.851 24.5705ZM101.178 23.072C101.733 23.072 102.229 22.9388 102.665 22.6724C103.1 22.3949 103.443 22.023 103.694 21.5568C103.944 21.0795 104.07 20.5467 104.07 19.9584C104.07 19.359 103.944 18.8262 103.694 18.3599C103.443 17.8826 103.1 17.5108 102.665 17.2444C102.229 16.9669 101.733 16.8281 101.178 16.8281C100.633 16.8281 100.138 16.9669 99.6911 17.2444C99.2554 17.5108 98.9069 17.8826 98.6455 18.3599C98.3949 18.8262 98.2697 19.359 98.2697 19.9584C98.2697 20.5467 98.3949 21.0795 98.6455 21.5568C98.9069 22.023 99.2554 22.3949 99.6911 22.6724C100.138 22.9388 100.633 23.072 101.178 23.072Z" fill="#0C3F8B"/>
<path d="M109.622 24.5039C109.142 24.5039 108.718 24.3707 108.347 24.1043C107.977 23.8379 107.688 23.4771 107.481 23.022C107.274 22.5558 107.171 22.023 107.171 21.4236V12.3325C107.171 12.0883 107.247 11.8885 107.4 11.7331C107.552 11.5777 107.748 11.5 107.988 11.5C108.227 11.5 108.423 11.5777 108.576 11.7331C108.728 11.8885 108.805 12.0883 108.805 12.3325V21.4236C108.805 21.8343 108.881 22.1729 109.033 22.4393C109.186 22.7057 109.382 22.8389 109.622 22.8389H110.03C110.248 22.8389 110.422 22.9166 110.553 23.072C110.694 23.2274 110.765 23.4272 110.765 23.6714C110.765 23.9156 110.662 24.1154 110.455 24.2708C110.248 24.4262 109.981 24.5039 109.654 24.5039H109.622Z" fill="#0C3F8B"/>
<path d="M113.344 28.5C113.235 28.5 113.104 28.4667 112.951 28.4001C112.472 28.1781 112.341 27.8284 112.559 27.3511L114.193 23.6048L110.517 16.4951C110.408 16.2842 110.392 16.0844 110.468 15.8957C110.555 15.6959 110.702 15.5516 110.909 15.4628C111.116 15.374 111.312 15.3684 111.497 15.4461C111.682 15.5127 111.824 15.6515 111.922 15.8624L114.912 21.9231L117.542 15.879C117.76 15.4128 118.103 15.2796 118.572 15.4794C119.062 15.6903 119.198 16.04 118.98 16.5284L113.981 27.9838C113.85 28.3279 113.638 28.5 113.344 28.5Z" fill="#0C3F8B"/>
<path d="M123.147 24.5039C122.603 24.5039 122.113 24.3652 121.677 24.0877C121.241 23.7991 120.898 23.4105 120.648 22.9221C120.397 22.4337 120.272 21.8843 120.272 21.2738V17.1611H119.52C119.292 17.1611 119.106 17.0945 118.965 16.9613C118.823 16.8281 118.752 16.6616 118.752 16.4618C118.752 16.2398 118.823 16.0622 118.965 15.929C119.106 15.7958 119.292 15.7292 119.52 15.7292H120.272V13.3315C120.272 13.0873 120.348 12.8875 120.501 12.7321C120.653 12.5767 120.849 12.499 121.089 12.499C121.328 12.499 121.525 12.5767 121.677 12.7321C121.83 12.8875 121.906 13.0873 121.906 13.3315V15.7292H123.295C123.523 15.7292 123.708 15.7958 123.85 15.929C123.992 16.0622 124.062 16.2398 124.062 16.4618C124.062 16.6616 123.992 16.8281 123.85 16.9613C123.708 17.0945 123.523 17.1611 123.295 17.1611H121.906V21.2738C121.906 21.7178 122.026 22.0896 122.265 22.3893C122.505 22.689 122.799 22.8389 123.147 22.8389H123.703C123.899 22.8389 124.062 22.9166 124.193 23.072C124.335 23.2274 124.406 23.4272 124.406 23.6714C124.406 23.9156 124.313 24.1154 124.128 24.2708C123.954 24.4262 123.725 24.5039 123.442 24.5039H123.147Z" fill="#0C3F8B"/>
<path d="M126.797 24.5039C126.557 24.5039 126.356 24.4262 126.192 24.2708C126.04 24.1043 125.964 23.899 125.964 23.6548V16.2453C125.964 15.99 126.04 15.7847 126.192 15.6293C126.356 15.4739 126.557 15.3962 126.797 15.3962C127.047 15.3962 127.249 15.4739 127.401 15.6293C127.554 15.7847 127.63 15.99 127.63 16.2453V23.6548C127.63 23.899 127.554 24.1043 127.401 24.2708C127.249 24.4262 127.047 24.5039 126.797 24.5039ZM126.797 13.9143C126.503 13.9143 126.247 13.8088 126.029 13.5979C125.822 13.3759 125.719 13.1151 125.719 12.8154C125.719 12.5157 125.822 12.2604 126.029 12.0495C126.247 11.8275 126.503 11.7165 126.797 11.7165C127.091 11.7165 127.342 11.8275 127.548 12.0495C127.766 12.2604 127.875 12.5157 127.875 12.8154C127.875 13.1151 127.766 13.3759 127.548 13.5979C127.342 13.8088 127.091 13.9143 126.797 13.9143Z" fill="#0C3F8B"/>
<path d="M134.129 24.5705C133.257 24.5705 132.479 24.3707 131.792 23.9711C131.117 23.5604 130.583 23.0109 130.191 22.3227C129.81 21.6234 129.619 20.8353 129.619 19.9584C129.619 19.0593 129.81 18.26 130.191 17.5607C130.573 16.8614 131.095 16.3175 131.76 15.929C132.424 15.5294 133.187 15.3296 134.047 15.3296C135.332 15.3296 136.4 15.8291 137.249 16.8281C137.402 17.0057 137.456 17.1889 137.413 17.3776C137.369 17.5663 137.249 17.7328 137.053 17.8771C136.901 17.9881 136.732 18.0269 136.547 17.9936C136.362 17.9492 136.193 17.8493 136.04 17.6939C135.507 17.1167 134.842 16.8281 134.047 16.8281C133.208 16.8281 132.528 17.1167 132.005 17.6939C131.482 18.26 131.221 19.0149 131.221 19.9584C131.221 20.5578 131.34 21.0906 131.58 21.5568C131.831 22.023 132.174 22.3949 132.609 22.6724C133.045 22.9388 133.552 23.072 134.129 23.072C134.87 23.072 135.469 22.8777 135.926 22.4892C136.1 22.3449 136.28 22.2672 136.465 22.2561C136.65 22.2339 136.814 22.2839 136.955 22.406C137.141 22.5614 137.244 22.739 137.266 22.9388C137.288 23.1275 137.222 23.2995 137.07 23.4549C136.285 24.1987 135.305 24.5705 134.129 24.5705Z" fill="#0C3F8B"/>
<path d="M142.487 24.5705C141.725 24.5705 141.017 24.454 140.363 24.2209C139.721 23.9767 139.22 23.6714 138.86 23.3051C138.697 23.1275 138.626 22.9277 138.648 22.7057C138.68 22.4726 138.789 22.2839 138.975 22.1396C139.192 21.962 139.405 21.8898 139.612 21.9231C139.83 21.9453 140.015 22.0397 140.167 22.2062C140.352 22.4171 140.646 22.6169 141.049 22.8056C141.463 22.9832 141.921 23.072 142.422 23.072C143.054 23.072 143.533 22.9665 143.86 22.7556C144.197 22.5447 144.372 22.2728 144.383 21.9398C144.393 21.6068 144.235 21.3182 143.909 21.0739C143.593 20.8297 143.01 20.6299 142.161 20.4745C141.06 20.2525 140.26 19.9195 139.759 19.4755C139.269 19.0315 139.024 18.4876 139.024 17.8438C139.024 17.2777 139.187 16.8115 139.514 16.4452C139.84 16.0677 140.26 15.7902 140.772 15.6126C141.284 15.4239 141.817 15.3296 142.373 15.3296C143.092 15.3296 143.729 15.4461 144.284 15.6792C144.84 15.9123 145.281 16.2342 145.608 16.645C145.76 16.8226 145.831 17.0113 145.82 17.2111C145.809 17.3998 145.717 17.5607 145.543 17.6939C145.368 17.816 145.161 17.8549 144.922 17.8105C144.682 17.7661 144.481 17.6662 144.317 17.5108C144.045 17.2444 143.751 17.0612 143.435 16.9613C143.119 16.8614 142.754 16.8115 142.34 16.8115C141.861 16.8115 141.453 16.8947 141.115 17.0612C140.788 17.2277 140.625 17.4719 140.625 17.7938C140.625 17.9936 140.674 18.1768 140.772 18.3433C140.881 18.4987 141.088 18.643 141.393 18.7762C141.698 18.8983 142.144 19.0204 142.732 19.1425C143.963 19.3867 144.813 19.7364 145.281 20.1915C145.76 20.6355 146 21.1849 146 21.8399C146 22.3505 145.864 22.8111 145.592 23.2218C145.33 23.6326 144.938 23.96 144.415 24.2042C143.903 24.4484 143.261 24.5705 142.487 24.5705Z" fill="#0C3F8B"/>
<path d="M78.0391 52.5C76.5109 52.5 75.1396 52.1028 73.9254 51.3083C72.7111 50.4917 71.7481 49.3993 71.0363 48.031C70.3454 46.6407 70 45.0738 70 43.3303C70 41.5869 70.3768 40.02 71.1305 38.6297C71.9051 37.2393 72.9414 36.1469 74.2394 35.3524C75.5583 34.5359 77.0342 34.1276 78.6672 34.1276C80.3001 34.1276 81.7656 34.5359 83.0636 35.3524C84.3616 36.1469 85.3874 37.2393 86.1411 38.6297C86.9157 40.02 87.303 41.5869 87.303 43.3303V50.7124C87.303 51.1979 87.146 51.6062 86.8319 51.9372C86.5388 52.2462 86.162 52.4007 85.7014 52.4007C85.2409 52.4007 84.8535 52.2462 84.5395 51.9372C84.2464 51.6062 84.0999 51.1979 84.0999 50.7124V49.4876C83.3671 50.4145 82.4774 51.1538 81.4306 51.7055C80.4048 52.2352 79.2743 52.5 78.0391 52.5ZM78.6672 49.5207C79.7349 49.5207 80.6874 49.2559 81.5248 48.7262C82.3623 48.1745 83.0217 47.4352 83.5032 46.5083C83.9847 45.5593 84.2255 44.5 84.2255 43.3303C84.2255 42.1386 83.9847 41.0793 83.5032 40.1524C83.0217 39.2034 82.3623 38.4641 81.5248 37.9345C80.6874 37.3828 79.7349 37.1069 78.6672 37.1069C77.6204 37.1069 76.6679 37.3828 75.8095 37.9345C74.9721 38.4641 74.3022 39.2034 73.7997 40.1524C73.3182 41.0793 73.0775 42.1386 73.0775 43.3303C73.0775 44.5 73.3182 45.5593 73.7997 46.5083C74.3022 47.4352 74.9721 48.1745 75.8095 48.7262C76.6679 49.2559 77.6204 49.5207 78.6672 49.5207Z" fill="#0C3F8B"/>
<path d="M97.0631 52.5C95.5977 52.5 94.2369 52.2683 92.9808 51.8048C91.7456 51.3193 90.7826 50.7124 90.0917 49.9841C89.7777 49.631 89.6416 49.2338 89.6835 48.7924C89.7463 48.329 89.9556 47.9538 90.3115 47.6669C90.7302 47.3138 91.1385 47.1703 91.5362 47.2366C91.9549 47.2807 92.3108 47.4683 92.6039 47.7993C92.9598 48.2186 93.5251 48.6159 94.2997 48.991C95.0952 49.3441 95.9745 49.5207 96.9375 49.5207C98.1518 49.5207 99.0729 49.311 99.701 48.8917C100.35 48.4724 100.685 47.9317 100.706 47.2697C100.727 46.6076 100.423 46.0338 99.7952 45.5483C99.188 45.0628 98.068 44.6655 96.4351 44.3566C94.3206 43.9152 92.7819 43.2531 91.8188 42.3703C90.8768 41.4876 90.4057 40.4062 90.4057 39.1262C90.4057 38.0007 90.7197 37.0738 91.3478 36.3455C91.9759 35.5952 92.7819 35.0434 93.7658 34.6903C94.7498 34.3152 95.7756 34.1276 96.8433 34.1276C98.225 34.1276 99.4497 34.3593 100.517 34.8228C101.585 35.2862 102.433 35.9262 103.061 36.7428C103.354 37.0959 103.49 37.471 103.469 37.8683C103.448 38.2434 103.27 38.5634 102.935 38.8283C102.6 39.071 102.203 39.1483 101.742 39.06C101.282 38.9717 100.894 38.7731 100.58 38.4641C100.057 37.9345 99.4916 37.5703 98.8845 37.3717C98.2774 37.1731 97.576 37.0738 96.7805 37.0738C95.8593 37.0738 95.0743 37.2393 94.4253 37.5703C93.7972 37.9014 93.4832 38.3869 93.4832 39.0269C93.4832 39.4241 93.5774 39.7883 93.7658 40.1193C93.9752 40.4283 94.3729 40.7152 94.9591 40.98C95.5453 41.2228 96.4037 41.4655 97.5342 41.7083C99.8998 42.1938 101.533 42.889 102.433 43.7938C103.354 44.6766 103.815 45.769 103.815 47.071C103.815 48.0862 103.553 49.0021 103.03 49.8186C102.527 50.6352 101.774 51.2862 100.769 51.7717C99.7847 52.2572 98.5495 52.5 97.0631 52.5Z" fill="#0C3F8B"/>
<path d="M112.858 52.5C111.392 52.5 110.032 52.2683 108.775 51.8048C107.54 51.3193 106.577 50.7124 105.886 49.9841C105.572 49.631 105.436 49.2338 105.478 48.7924C105.541 48.329 105.75 47.9538 106.106 47.6669C106.525 47.3138 106.933 47.1703 107.331 47.2366C107.75 47.2807 108.105 47.4683 108.399 47.7993C108.754 48.2186 109.32 48.6159 110.094 48.991C110.89 49.3441 111.769 49.5207 112.732 49.5207C113.946 49.5207 114.868 49.311 115.496 48.8917C116.145 48.4724 116.48 47.9317 116.501 47.2697C116.521 46.6076 116.218 46.0338 115.59 45.5483C114.983 45.0628 113.863 44.6655 112.23 44.3566C110.115 43.9152 108.577 43.2531 107.613 42.3703C106.671 41.4876 106.2 40.4062 106.2 39.1262C106.2 38.0007 106.514 37.0738 107.142 36.3455C107.771 35.5952 108.577 35.0434 109.56 34.6903C110.544 34.3152 111.57 34.1276 112.638 34.1276C114.02 34.1276 115.244 34.3593 116.312 34.8228C117.38 35.2862 118.228 35.9262 118.856 36.7428C119.149 37.0959 119.285 37.471 119.264 37.8683C119.243 38.2434 119.065 38.5634 118.73 38.8283C118.395 39.071 117.997 39.1483 117.537 39.06C117.076 38.9717 116.689 38.7731 116.375 38.4641C115.852 37.9345 115.286 37.5703 114.679 37.3717C114.072 37.1731 113.371 37.0738 112.575 37.0738C111.654 37.0738 110.869 37.2393 110.22 37.5703C109.592 37.9014 109.278 38.3869 109.278 39.0269C109.278 39.4241 109.372 39.7883 109.56 40.1193C109.77 40.4283 110.168 40.7152 110.754 40.98C111.34 41.2228 112.198 41.4655 113.329 41.7083C115.694 42.1938 117.327 42.889 118.228 43.7938C119.149 44.6766 119.609 45.769 119.609 47.071C119.609 48.0862 119.348 49.0021 118.824 49.8186C118.322 50.6352 117.568 51.2862 116.563 51.7717C115.579 52.2572 114.344 52.5 112.858 52.5Z" fill="#0C3F8B"/>
<path d="M130.474 52.5C128.736 52.5 127.187 52.1138 125.826 51.3414C124.486 50.5469 123.429 49.4655 122.654 48.0972C121.901 46.7069 121.524 45.1179 121.524 43.3303C121.524 41.5207 121.88 39.9317 122.592 38.5634C123.324 37.1731 124.329 36.0917 125.606 35.3193C126.883 34.5248 128.349 34.1276 130.003 34.1276C131.636 34.1276 133.038 34.5138 134.211 35.2862C135.383 36.0366 136.273 37.0848 136.88 38.431C137.508 39.7552 137.822 41.289 137.822 43.0324C137.822 43.4517 137.686 43.8048 137.414 44.0917C137.142 44.3566 136.796 44.489 136.378 44.489H124.444C124.675 46.0117 125.334 47.2586 126.423 48.2297C127.532 49.1786 128.883 49.6531 130.474 49.6531C131.123 49.6531 131.782 49.5317 132.452 49.289C133.143 49.0241 133.698 48.7262 134.117 48.3952C134.431 48.1524 134.766 48.031 135.121 48.031C135.498 48.009 135.823 48.1193 136.095 48.3621C136.451 48.6931 136.639 49.0572 136.66 49.4545C136.681 49.8517 136.514 50.1938 136.158 50.4807C135.446 51.0766 134.556 51.5621 133.488 51.9372C132.442 52.3124 131.437 52.5 130.474 52.5ZM130.003 36.9745C128.454 36.9745 127.208 37.4269 126.266 38.3317C125.324 39.2366 124.727 40.4062 124.476 41.8407H134.933C134.745 40.4283 134.232 39.2697 133.394 38.3648C132.557 37.4379 131.426 36.9745 130.003 36.9745Z" fill="#0C3F8B"/>
<path d="M146.9 52.3676C145.854 52.3676 144.912 52.0917 144.074 51.54C143.237 50.9662 142.577 50.1938 142.096 49.2228C141.614 48.2517 141.374 47.1593 141.374 45.9455V37.769H139.929C139.489 37.769 139.133 37.6366 138.861 37.3717C138.589 37.1069 138.453 36.7759 138.453 36.3786C138.453 35.9372 138.589 35.5841 138.861 35.3193C139.133 35.0545 139.489 34.9221 139.929 34.9221H141.374V30.1552C141.374 29.6697 141.52 29.2724 141.813 28.9634C142.106 28.6545 142.483 28.5 142.944 28.5C143.404 28.5 143.781 28.6545 144.074 28.9634C144.367 29.2724 144.514 29.6697 144.514 30.1552V34.9221H147.183C147.623 34.9221 147.979 35.0545 148.251 35.3193C148.523 35.5841 148.659 35.9372 148.659 36.3786C148.659 36.7759 148.523 37.1069 148.251 37.3717C147.979 37.6366 147.623 37.769 147.183 37.769H144.514V45.9455C144.514 46.8283 144.744 47.5676 145.205 48.1635C145.665 48.7593 146.23 49.0572 146.9 49.0572H147.968C148.345 49.0572 148.659 49.2117 148.91 49.5207C149.182 49.8297 149.318 50.2269 149.318 50.7124C149.318 51.1979 149.14 51.5952 148.785 51.9041C148.45 52.2131 148.01 52.3676 147.466 52.3676H146.9Z" fill="#0C3F8B"/>
<path d="M158.248 52.5C156.783 52.5 155.422 52.2683 154.166 51.8048C152.931 51.3193 151.968 50.7124 151.277 49.9841C150.963 49.631 150.827 49.2338 150.869 48.7924C150.932 48.329 151.141 47.9538 151.497 47.6669C151.915 47.3138 152.324 47.1703 152.721 47.2366C153.14 47.2807 153.496 47.4683 153.789 47.7993C154.145 48.2186 154.71 48.6159 155.485 48.991C156.28 49.3441 157.16 49.5207 158.123 49.5207C159.337 49.5207 160.258 49.311 160.886 48.8917C161.535 48.4724 161.87 47.9317 161.891 47.2697C161.912 46.6076 161.608 46.0338 160.98 45.5483C160.373 45.0628 159.253 44.6655 157.62 44.3566C155.506 43.9152 153.967 43.2531 153.004 42.3703C152.062 41.4876 151.591 40.4062 151.591 39.1262C151.591 38.0007 151.905 37.0738 152.533 36.3455C153.161 35.5952 153.967 35.0434 154.951 34.6903C155.935 34.3152 156.961 34.1276 158.029 34.1276C159.41 34.1276 160.635 34.3593 161.703 34.8228C162.77 35.2862 163.618 35.9262 164.246 36.7428C164.539 37.0959 164.675 37.471 164.655 37.8683C164.634 38.2434 164.456 38.5634 164.121 38.8283C163.786 39.071 163.388 39.1483 162.927 39.06C162.467 38.9717 162.08 38.7731 161.766 38.4641C161.242 37.9345 160.677 37.5703 160.07 37.3717C159.463 37.1731 158.761 37.0738 157.966 37.0738C157.045 37.0738 156.26 37.2393 155.611 37.5703C154.982 37.9014 154.668 38.3869 154.668 39.0269C154.668 39.4241 154.763 39.7883 154.951 40.1193C155.16 40.4283 155.558 40.7152 156.144 40.98C156.731 41.2228 157.589 41.4655 158.719 41.7083C161.085 42.1938 162.718 42.889 163.618 43.7938C164.539 44.6766 165 45.769 165 47.071C165 48.0862 164.738 49.0021 164.215 49.8186C163.712 50.6352 162.959 51.2862 161.954 51.7717C160.97 52.2572 159.735 52.5 158.248 52.5Z" fill="#0C3F8B"/>
</svg>
